<?xml version="1.0" encoding="UTF-8"?>
<svg id="Layer_2" data-name="Layer 2" xmlns="http://www.w3.org/2000/svg" viewBox="0 0 579.75 869.78">
  <defs>
    <style>
      .cls-1 {
        fill: #010101;
      }
    </style>
  </defs>
  <g id="Layer_1-2" data-name="Layer 1">
    <path class="cls-1" d="m281.2,565.68s-48.81,26.61-125.13,49.49c0,0-32.71,9.05-31.67,29,0,0,8.13,41.24-1.9,88.78,0,0-3.81,26.61-3.12,53.93,0,0,9.43-3.55,5.02,19.87,0,0,5.85,17.04,4.97,33.85-.31,5.89-4.41,10.86-9.99,12.31-6.3,1.65-16.23,3.65-30.47,4.93,0,0-23.19.36-38.08,6.74,0,0-38.77,11.71-48.11,0,0,0-16.61-16.67,32.19-26.96,0,0,23.19-16.67,28.38-26.61,0,0-3.46-31.58,14.88-26.96,0,0,1.56-33.7-3.12-59.25,0,0-6.75-43.64-5.19-77.69,0,0-12.98-44.7,10.38-62.26,0,0,96.57-69.71,133.44-85.14,0,0-9.87-17.83-15.32-36.98,0,0-17.91-29.53-29.34-72.64,0,0-18.17-7.98-25.09-32.11l-43.27-44.35-9-4.26s-16.62-7.63-23.88-30.51c0,0-6.75-11.44-12.72-15.97,0,0-3.72-4.26-1.3-6.56,0,0,2.42-3.19,6.58,1.06l13.15,15.79-14.19-26.08s-2.25-5.68.52-6.74c0,0,2.94-1.6,6.23,3.19l11.94,17.21-12.63-24.66s-1.73-2.48,1.04-6.21c0,0,2.94-1.42,5.71,2.48l14.54,27.32s-.17-15.43-6.06-26.25c0,0-1.21-3.37,1.04-6.03,0,0,3.98-3.02,6.06,5.14,0,0,7.62,12.95,8.31,21.46,0,0,8.65-4.79,2.94,15.08,0,0,8.13,14.19,9.69,24.12,0,0,16.96,17.74,42.06,34.06,0,0,21.46-43.64,42.23-65.45,0,0,2.94-31.93,3.98-56.05,0,0-5.88-17.03-.69-29.45,0,0-13.85-8.16-1.38-37.61,0,0,7.3-16.75-16.43-8.23-3.54,1.27-6.87,3.04-10.03,5.1-6.91,4.51-25.34,12.8-47.61-7.52,0,0,25.94,16.14,44.27,4.19,3.71-2.42,7.49-4.72,11.59-6.36,8.16-3.25,19.62-6.1,22.02,2.17,0,0,4.85-22.7-18.35-20.57,0,0-6.41,1.44-19.73,7.45,0,0-18.69,6.74-31.85.71,0,0,21.81,2.13,47.42-12.06,0,0,30.81-16.32,38.77,12.42,0,0,34.61-47.36-34.96-105.37,0,0,39.46,13.84,55.04,72.91,0,0-2.08-52.68-23.88-83.55,0,0,52.44,40.44,35.31,112.28,0,0,50.36-26.61,16.61-104.3,0,0,23.88,26.08,18.17,65.99,0,0,19.21-31.93,11.94-67.05,0,0,17.65,28.74-6.75,90.47,0,0,27.52-9.05,23.88-69.71,0,0,12.46,60.67-10.38,95.26,0,0,50.88-15.97,28.04-101.11,0,0,23.88,50.56,8.31,85.68,0,0,16.1-17.56,15.58-35.12,0,0,6.75,47.36-32.19,81.42,0,0,29.08-1.6,38.94-34.06,0,0-2.08,38.31-43.61,68.12,0,0-4.15,43.1-42.58,53.21,0,0-12.98,10.11,9.35,15.97,0,0,34.27,14.72,48.11,51.26,0,0,4.85,12.06,11.42,16.32,0,0,26.65,19.87,31.15,30.51,0,0,19.04,5.32,24.23-43.28,0,0-2.77-11-2.08-22.35l-7.96-16.32s-8.65-9.22-5.88-19.16c0,0,4.5-5.32,11.25,8.34,0,0,5.8,14.63,10.99,17.56,0,0,14.02,6.39,7.53-29,0,0-9.35-18.36-4.15-20.75,0,0,4.15-2.13,8.31,7.98,0,0,.26-16.5,9.09,3.99,0,0,5.45-10.91,7.79,17.03,0,0,10.9-9.05,5.45,31.13,0,0-3.38,17.56-13.76,32.46,0,0-3.63,5.59-9.61,28.2,0,0-11.42,35.12-25.96,46.03,0,0-8.57,9.85-18.17,1.33,0,0-54.52-43.37-73.21-71.04l-13.5,14.01s-8.65,27.32-7.27,42.93c0,0-1.73,43.99,29.77,67.05,0,0,7.62,4.61,8.65,10.64,0,0,30.81,12.77,43.27,57.47,0,0,20.08,39.73,43.61,141.2,0,0,1.39,30.51,30.46,31.22,0,0,30.11-12.24,101.77,39.38,0,0,18.17-11.18,26.48,9.05l11.94,14.37s18.69,13.84,0,30.86c0,0-5.76,9.39-11.33,22.08-9.76,22.23-33.11,35.31-56.38,30.26-.36-.08-.73-.16-1.1-.25-1.54-.36-3.01-1.21-3.9-2.54-2.09-3.1-2.39-9.29,10.93-20.28,0,0,23.37-35.12,5.71-51.09,0,0-41.02-18.09-102.8-26.61,0,0-41.54,6.92-65.42-47.36l-36.86-86.74s-12.98-26.61-29.08-37.25Z"/>
  </g>
</svg>