<?xml version="1.0" encoding="UTF-8"?>
<svg id="Layer_2" data-name="Layer 2" xmlns="http://www.w3.org/2000/svg" viewBox="0 0 484.91 964.18">
  <defs>
    <style>
      .cls-1 {
        fill: #010101;
      }
    </style>
  </defs>
  <g id="Layer_1-2" data-name="Layer 1">
    <path class="cls-1" d="m484.55,246.48l-.81-9.57c0-7.14-5.35-10.06-5.35-10.06-1.62-7.3-6.33-7.46-6.33-7.46.73-3.16-5.6-5.6-5.6-5.6-.24-3.41-4.14-4.86-4.14-4.86,1.7-7.3-3.41-5.84-3.41-5.84l-13.87,6.32c-6.57,4.87-6.57,17.76-6.57,17.76,1.46,10.7,2.92,24.33,2.92,24.33-7.78,32.11-46.22,71.03-46.22,71.03-30.65-16.54-24.81-94.87-24.81-94.87,1.95-54.01-24.81-80.6-24.81-80.6-21.41-40.22-69.82-17.92-69.82-17.92-15.08-.49-21.41,13.14-21.41,13.14-14.11,6.81-16.79,19.46-16.79,19.46l-9.73,11.92c-20.43,5.84-24.33,32.11-24.33,32.11-.97-12-26.27-42.82-26.27-42.82l-9.41-36c-6.16-17.84,3.89-29.19,3.89-29.19l37.3-43.79c17.19-24.65,36.98-13.3,36.98-13.3,24.33,7.14,26.92-4.54,26.92-4.54,6.16-10.38-3.57-15.89-3.57-15.89-3.57-2.92-4.87-14.27-4.87-14.27-2.59-9.41-12-4.88-12-4.88l-12.65.02c-16.87-.65-29.52,16.87-29.52,16.87-35.03,23.68-71.68,58.38-71.68,58.38-17.52,9.73-12,23.35-12,23.35l2.92,22.38c5.84,53.19,29.19,108.5,29.19,108.5,7.78,17.03-10.22,37.95-10.22,37.95-57.41,35.03-19.95,77.36-19.95,77.36-.97,30.65-3.24,104.77-3.24,104.77-1.95,8.43-.32,12-.32,12-1.3,10.38-14.92,9.08-14.92,9.08-94.06-3.89-106.39,27.9-106.39,27.9-15.57,38.27,23.19,67.14,23.19,67.14,22.87,29.19,105.58,75.66,105.58,75.66-3.65,8.03,0,9.97,0,9.97,24.33,17.03,28.22,54.17,28.22,54.17,1.3,23.35,6.49,41.84,6.49,41.84,8.76,18.81,24.65,5.51,24.65,5.51,22.06-18.81,15.57-50.44,15.57-50.44-7.3-24.81,4.38-38.92,4.38-38.92l11.68,29.19c3.89,22.87,24.81,44.52,24.81,44.52,1.22,10.46,7.78,23.11,7.78,23.11,12.65,52.06,17.52,103.15,17.52,103.15-10.38,6.49-8.11,24-8.11,24l-3.89,20.43c-3.24,17.84-19.46,34.06-19.46,34.06-17.84,23.35,12.97,21.08,12.97,21.08,45.41-.65,46.31-13.62,46.31-13.62,4.79-11.03,13.05-14.6,13.05-14.6,25.95-6.81,13.95-30.81,13.95-30.81l-7.46-21.41c1.95-20.11-11.03-24-11.03-24,12.97-107.04-14.92-144.5-14.92-144.5-15.57-27.25-14.11-60.82-14.11-60.82,3.41-38.44,1.14-96.33,1.14-96.33,11.68-48.65-10.38-93.41-10.38-93.41-4.38-15.57-20.43-34.3-20.43-34.3,1.95-17.76-8.72-42.25-8.72-42.25,1.98-10.38,0-17.51,0-17.51-1.91-21.41,16.83-27.57,16.83-27.57-8.43,32.44,10.38,58.06,10.38,58.06-3.57-10.7.32-25.3.32-25.3-.97,18.16,15.57,33.41,15.57,33.41-5.19-26.92.97-33.73.97-33.73-2.6,9.08,7.46,29.84,7.46,29.84-9.08,18.49.97,27.89.97,27.89-3.89,15.24,12.33,18.49,12.33,18.49,9.41,31.79,32.44,34.38,32.44,34.38-26.27-12.97-21.41-48.33-21.41-48.33,3.24,18.81,27.89,24.98,27.89,24.98-23.68-13.3-12.33-43.46-12.33-43.46,0,20.11,14.92,28.22,14.92,28.22-16.22-32.44,2.27-53.52,2.27-53.52,2.6,10.06,9.73,15.57,9.73,15.57,11.35,12.33.65,34.38.65,34.38,20-17.5,15.15-30.82,13.34-34.3,11.28,19.34,30.86,5.91,30.86,5.91-32.6,0-15.57-25.06-15.57-25.06,10.22,20.19,30.9,8.51,30.9,8.51-18,4.87-23.19-7.95-23.19-7.95-2.92-6.81,4.54-14.27,4.54-14.27,25.95-41.84,68.28-107.85,68.28-107.85,17.84-13.78,13.95-22.38,13.95-22.38Zm-303.68,378.2l-10.95-10.22c-4.38-8.76-14.35,0-14.35,0l-37.95-49.38,31.87,5.84c21.65,14.35,29.92-5.84,29.92-5.84,5.6,26.27,19.95,67.63,19.95,67.63-4.38-4.38-18.49-8.03-18.49-8.03Z"/>
  </g>
</svg>