<?xml version="1.0" encoding="UTF-8"?>
<svg id="Layer_2" data-name="Layer 2" xmlns="http://www.w3.org/2000/svg" viewBox="0 0 426.53 856.67">
  <defs>
    <style>
      .cls-1 {
        fill: #010101;
      }
    </style>
  </defs>
  <g id="Layer_1-2" data-name="Layer 1">
    <path class="cls-1" d="m394,357.23c-47.78-11.32-55.95-43.38-55.95-43.38,17.92,27.98,48.41,32.77,48.41,32.77,31.59,8.25,40.08,41.73,40.08,41.73,0-38.19-33.01-48.1-33.01-48.1-76.86-39.14-55.17-72.14-55.17-72.14,24.05-46.21-4.24-58.47-4.24-58.47,8.49-12.26,4.24-31.59,4.24-31.59,67.43-53.75,24.99-120.71,24.99-120.71,9.43,35.84-5.19,66.01-5.19,66.01,6.13-29.71-12.26-51.87-12.26-51.87,9.43,58.94-23.58,74.5-23.58,74.5,12.29-19.88,9.34-50.55,7.29-63.79,1.45,19.16-12.95,41.16-12.95,41.16,8.49-52.81-27.35-81.57-27.35-81.57,27.82,58.47,0,97.92,0,97.92-4.4-27.66-36.78-31.12-36.78-31.12,26.41,16.35,19.49,34.89,19.49,34.89-15.4,0-27.98,14.15-27.98,14.15-25.46,21.69-11,42.12-11,42.12-14.81,14.56-21.6,45.15-23.73,56.88,1.14-12.36-1.73-34.56-1.73-34.56,4.09-17.92,11.32-50.92,11.32-50.92,17.6-16.66,19.49-47.78,19.49-47.78,2.36-18.86,16.5-54.22,16.5-54.22,5.42-18.15,10.06-31.59,10.06-31.59,15.56-16.03,3.38-13.44,3.38-13.44,10.37-20.51,5.54-22.16,5.54-22.16-4.36-2.36-8.37,4.95-8.37,4.95.83-3.18-.71-5.17-.71-5.17-7.23-5.17-8.02,2.97-8.02,2.97.94,12.57-8.33,21.85-8.33,21.85l1.57-15.09c1.1-8.33-2.04-9.27-2.04-9.27-4.4-1.73-5.97,2.04-5.97,2.04v8.8c0,19.49-5.38,16.03-5.38,16.03,0,0-2-8.13-2.48-11.67-.47-3.54-2.12-6.01-4.76-4.6-2.63,1.41-2.08,5.66-2.08,5.66l2.08,12.5c-.75,11.55-.12,20.43-.12,20.43,1.57,21.06-13.2,50.61-13.2,50.61-16.03,27.98-22,53.91-22,53.91l-3.77,8.49c-17.92,32.06-25.78,82.83-25.78,82.83-.63,22.95-13.52,72.93-13.52,72.93-25.15,49.04,13.2,79.22,13.2,79.22,22,34.26,12.38,87.07,12.38,87.07-6.16,6.29-4.84,24.52-4.84,24.52-8.49-.94-10.06,12.57-10.06,12.57l-92.42,60.67c-27.03,11.63-22.08,38.27-22.08,38.27,1.18,10.84-.71,29.47-.71,29.47-8.49,50.93,2.12,51.4,2.12,51.4,6.84,35.84-4.48,70.96-4.48,70.96-26.41,2.12-11.79,24.28-11.79,24.28-5.66,7.54-9.19,20.98-9.19,20.98-2.12,8.49-16.03,16.5-16.03,16.5-12.73,8.02-4.48,19.33-4.48,19.33,14.15,3.77,35.52-2.44,35.52-2.44,90.53-32.38,74.19-38.98,74.19-38.98l-4.09-7.54c-.63-8.17-11.32-27.66-11.32-27.66l2.2-11c4.72-12.57,1.57-27.35,1.57-27.35,5.66-27.66,13.52-38.98,13.52-38.98,16.98,0,18.55-22.95,18.55-22.95,30.81-47.78,94.93-86.76,94.93-86.76,25.62,14.3,42.75,91.32,42.75,91.32,4.72,33.48,15.56,52.81,15.56,52.81,23.1,52.81,38.51,41.65,38.51,41.65l20.9,44.64-2.36,19.8c-9.43,16.5,15.09,14.65,15.09,14.65,32.3.51,29.86-7.11,29.86-7.11l4.09-14.77c4.09-16.98-8.96-37.09-8.96-37.09l-12.73-50.45c4.24-19.33-12.26-28.76-12.26-28.76,1.89-18.39-25.93-68.37-25.93-68.37,8.02-55.64,2.83-114.58,2.83-114.58,1.89-52.34-23.81-79.22-23.81-79.22,45.74-13.2,71.67-38.19,71.67-38.19,7.54-9.9-3.77-21.22-3.77-21.22-8.49-15.09-33.87-34.26-33.87-34.26,44.95,11,55.01,42.44,55.01,42.44-.94-29.23-36.15-45.58-36.15-45.58,21.38,6.29,33.64,11.63,33.64,11.63,20.43,10.69,16.03,40.86,16.03,40.86,15.09-44.32-19.8-54.7-19.8-54.7Z"/>
  </g>
</svg>