<?xml version="1.0" encoding="UTF-8"?>
<svg id="Layer_2" data-name="Layer 2" xmlns="http://www.w3.org/2000/svg" viewBox="0 0 410.57 996.25">
  <defs>
    <style>
      .cls-1 {
        fill: #010101;
      }
    </style>
  </defs>
  <g id="Layer_1-2" data-name="Layer 1">
    <path class="cls-1" d="m160.83,575.66s-13.26,44.37-6.12,131.07c0,0,2.04,24.48-4.59,40.8,0,0-6.12,9.18-3.06,44.88,0,0,4.08,21.93-6.12,58.14,0,0-11.56,40.12-1.36,71.74,0,0,8.16,13.26,5.1,38.08,0,0-.64,8.5,3.42,20.4,0,0,11.88,12.92-20.76,15.3,0,0-29.24,2.04-30.94-7.14,0,0-4.92-.72,2.72-31.28.68-2.72,6.12-34,6.12-34,0,0-3.46-52.02-10.4-82.96,0,0-12.55-62.56-2.86-109.48,0,0,2.86-34.17-3.67-58.65l-21.49-90.95s-21.76-68.68,28.56-140.08c0,0,36.89-30.09,40.97-67.83v-22.44s-13.77-12.24-15.3-31.11c0,0-9.69,10.45-17.59,11.47,0,0-10.71,12.24,3.82,36.21,0,0-21.42-18.1-8.67-47.68,0,0-10.45,5.1-12.24,15.04,0,0-1.28-20.91,19.63-32.89,0,0-5.1-2.55-16.57,3.06,0,0,4.84-16.06,16.57-20.91l-10.96-7.82s-60.52-34.34-87.04-80.24c0,0-18.02-16.66,0-42.5,0,0,35.02-70.04,69.02-102,0,0,6.46-15.98,17-18.7,0,0,7.14-11.9,12.92-11.9,0,0,6.12,0,9.52,3.74,0,0,9.52,2.72,10.88,6.12,0,0,9.52,1.02,6.8,11.9,0,0-4.08,14.96-29.24,20.4,0,0-39.78,35.02-60.52,98.26,0,0-3.74,11.22,4.76,22.44,0,0,36.38,28.9,42.16,37.74,0,0,12.58,11.22,15.98-4.08,0,0-3.06-56.78,8.16-80.75,0,0,12.24-32.64,34.68-34.68,0,0,40.29-20.91,62.22,17.85,0,0,18.87,43.35,37.23,70.38,0,0,17.34,17.85,9.69,37.23,0,0,26.01-20.4,29.07-40.8,0,0,1.53-48.45,5.61-66.3,0,0-57.12-64.26-82.62-79.56,0,0-20.14,8.93-36.21-2.29,0,0-11.73-11.98-3.06-14.79,0,0,2.3-6.63,6.12-6.88,0,0,2.29-6.12,5.61-6.38,0,0,3.06-4.84,4.84-4.84,0,0,2.29-5.86,6.38-5.86,0,0,19.89-2.3,26.26,11.47,0,0,10.71,13.77,19.63,19.12l72.93,51.76s21.93,10.71,18.87,42.33c0,0,1.02,73.44-19.38,136.17,0,0-11.73,33.66-12.24,54.06,0,0,0,14.79-7.65,28.56,0,0-16.83,63.24-36.21,101.49,0,0-15.81,38.25,1.53,80.58,0,0,28.39,77.01,48.79,147.05l7.31,33.49s8.16,22.95,8.67,38.76c0,0,21.42,53.55,26.18,150.1,0,0,1.7,10.88,8.16,16.32,0,0,6.8-10.54,13.26,10.2,0,0,4.08,27.88,31.28,43.18,0,0,14.28,9.86,5.1,17.34,0,0-23.12,8.5-49.3-1.02,0,0-6.12-8.5-24.48-8.5,0,0-24.14,0-22.44-11.9,0,0-.68-24.14,7.14-35.36,0,0,7.14-12.92,1.02-27.88,0,0-19.04-42.5-28.22-57.46,0,0-14.62-31.28-15.13-69.53,0,0-38.25-70.38-54.57-108.12,0,0-55.76-113.04-60.69-86.7Z"/>
  </g>
</svg>