<?xml version="1.0" encoding="UTF-8"?>
<svg id="Layer_2" data-name="Layer 2" xmlns="http://www.w3.org/2000/svg" viewBox="0 0 553.89 1000">
  <defs>
    <style>
      .cls-1 {
        fill: #010101;
      }
    </style>
  </defs>
  <g id="Layer_1-2" data-name="Layer 1">
    <path class="cls-1" d="m257.08,592.25s-16.57,22.78-15.19,104.92c0,0,0,32.79-18.64,45.73,0,0-2.59,16.57-30.03,32.62,0,0-14.49,10.87-25.88,26.4,0,0-12.94,22.26-51.77,48.66,0,0-48.15,39.35-45.04,66.78,0,0,11.91-1.38,8.11,22.09,0,0-7.59,22.09,22.09,35.89,0,0,23.12,6.9,1.38,21.74,0,0-25.88,6.56-54.53,0,0,0-17.26-7.59-32.79-46.25,0,0-28.65-36.93-6.21-52.81,0,0,13.81-12.08,21.74-11.04l52.81-69.72s22.61-51.6,64.02-68.16c0,0,22.26-6.73,22.26-40.38l-4.66-104.06s-11.39-62.64-1.04-104.58c0,0-4.66-6.73-1.04-14.5,0,0-2.33-4.66,1.29-14.5,0,0,4.92-20.19,10.87-31.84,0,0,8.54-27.18-12.68-87.23,0,0-5.44-7.25-10.1,8.54l-15.1,44.26s-5.13,16.22-8.43,22.78c0,0-4.34,23.81-12.62,42.11,0,0-19.33,42.45-10.7,73.51,0,0,3.45,20.02-.34,30.03,0,0-5.87,11.73-.35,22.78,0,0-6.56,3.28-11.22-8.46,0,0-2.76-9.15-.52-17.08,0,0,1.73-8.28-7.94.52l-9.66,12.08s-2.76,6.73-.17,14.15c0,0,3.15,4.85,2.47,10.09-.31,2.37-2.92,3.51-4.85,2.09-1.57-1.15-3.49-3.58-5.64-8.39,0,0-5.95-10.01-.6-20.88l-5.48,6.98c-1.38,1.75-2.2,3.88-2.35,6.1l-.45,6.43s1.9,11.74-6.21,13.12c0,0-4.31,0-1.73-8.11,0,0-3.28,5.35-9.15,3.28,0,0-3.28-1.73,2.42-9.49,0,0,2.76-7.42,3.11-16.05,0,0-.34-8.97,14.5-19.16,0,0,15.7-15.88,15.36-21.4,0,0,.17-13.12,2.93-22.09,0,0,.34-80.76,17.6-118.04,0,0,15.88-52.46,18.64-75.24,0,0,14.5-75.24,58.67-86.97,0,0,23.12-14.84,41.42-20.36,0,0,31.41-12.6,45.9-36.93,0,0,27.44-83.87,79.21-65.75l4.66,1.55s15.53-31.58,54.88-44.52c0,0,40.38-15.01,31.58-46.08,0,0,12.94,17.08,4.14,30.03,0,0,74.38-19.5,89.56-57.46,0,0-4.14,23.47-25.2,41.07,0,0,18.64-12.42,26.92-29.34,0,0-5.52,28.99-24.5,40.38,0,0,22.78-12.42,34.51-38.65,0,0-8.28,35.89-32.1,50.73,0,0,34.17.35,40.38-23.81,0,0-1.38,27.61-37.96,39.35,0,0,38.66-2.76,46.25-10.01,0,0-16.91,22.09-48.66,22.78,0,0-33.13,36.19-87.39,38.31-9.27.36-18.53-.93-27.41-3.61-8.57-2.59-22.31-5.39-33.27-1.22,0,0,47.28,42.8,9.49,81.62l-19.41,17.86-20.97,14.5s12.94,11.65,10.53,40.29l16.91,47.28s33.13,7.59,45.56,11.73c0,0,61.78,15.19,73.86-.34,0,0,10.83-16.35,11.17-18.08.35-1.73,6.77-22.3,6.77-22.3,0,0,2.93-7.33,5.78.69,0,0,3.63-8.71,4.92-17.6,0,0,3.88-10.87,5.44,3.88,0,0,8.8-14.24,9.84-5.69,0,0,3.62,3.36-1.04,9.84l-13.98,29.25s-7.51,14.5,3.88,7.51l10.09-10.61s7.25-3.62,4.27,6.34c0,0-1.94,4.79-9.71,11,0,0-5.07,3.55-8.83,8.7-8.77,12.03-22.11,19.89-36.97,20.74-.43.02-.87.05-1.31.07l-68.08,8.8s-55.91,5.69-62.64-10.09c0,0-19.41,31.06,2.33,101.99,0,0,7.25,15.01,2.59,25.88l31.06,80.24s3.88,4.14,1.29,9.06c0,0,15.27,44.78,22,107.42,0,0,10.87,24.85,12.94,44.52,0,0,26.75,35.03,36.41,109.58l10.18,51.42s12.43,1.04,13.98,17.6c0,0,43.49,31.06,35.72,52.29,0,0,.52,10.87-56.95,2.07,0,0-6.04-.17-10.87-10.18,0,0-18.64-1.38-12.08-21.4,0,0,1.38-14.84,4.83-22.43l-.69-15.19-31.75-67.3s-28.3-40.73-24.16-73.17c0,0-29.68-35.89-37.27-66.96,0,0-35.2-48.32-46.94-69.03,0,0-13.99,2.76-15.11-11.39,0,0-5.6-24.5-13.2-14.15Z"/>
  </g>
</svg>