<?xml version="1.0" encoding="UTF-8"?>
<svg id="Layer_1" data-name="Layer 1" xmlns="http://www.w3.org/2000/svg" viewBox="0 0 324.16 324.16">
  <defs>
    <style>
      .cls-1 {
        fill: #231f20;
      }

      .cls-2 {
        fill: #9b8579;
      }

      .cls-3 {
        fill: #636464;
      }

      .cls-4 {
        fill: #594a42;
      }

      .cls-5 {
        fill: #353535;
        stroke: #231f20;
        stroke-miterlimit: 10;
      }
    </style>
  </defs>
  <circle id="base_disc" class="cls-5" cx="162.08" cy="162.08" r="161.58"/>
  <g>
    <path class="cls-3" d="m95.24,161.28c0-.62-.12-.4-.14-.49.03,1.04.17.47.14.49Z"/>
    <polygon class="cls-3" points="96.17 171.45 96.09 171.28 96.45 172.75 96.17 171.45"/>
    <path class="cls-3" d="m98.16,180.77c-.02-.93-.96-3.32-1.19-5.01v-.28s-.33-.72-.33-.72c.24,1.01.48,2.17.78,3.24.31,1.07.58,2.06.74,2.77Z"/>
    <path class="cls-3" d="m99.36,185.74c-.03-.33.45,1.01-.39-1.13.03.11.04.14.06.21.07.19.17.46.34.92Z"/>
    <path class="cls-3" d="m99.02,184.82c-.36-.95.17.64,0,0h0Z"/>
    <path class="cls-3" d="m100.8,189.14l-.59-1.19c.06.27.52,1.37.32.98.58,1.24.51.96.28.22Z"/>
    <path class="cls-3" d="m101.46,190.23c-.11-.2-.22-.4-.32-.61.03.12.09.29.32.61Z"/>
    <path class="cls-3" d="m100.51,188.3l.64,1.32c-.04-.19,0-.24-.29-.61.1.08-.06-.16-.35-.71Z"/>
    <path class="cls-3" d="m100.21,187.52c-.26-.7-.56-1.61-.01-.4-.92-2.36-.96-1.95.01.4Z"/>
    <path class="cls-3" d="m98.52,181.17c-.08-.32-.16-.64-.22-.96l-.29-.81c.13.41.44,1.85.51,1.77Z"/>
    <path class="cls-3" d="m104.52,196.55c.08.05-.13-.44-.13-.56-.19-.27-.36-.55-.53-.83.2.47.69,1.29.67,1.38Z"/>
    <path class="cls-3" d="m104.39,195.99l.83,1.21c-.68-1.12-.83-1.31-.83-1.21Z"/>
    <path class="cls-3" d="m101.77,190.34c-.42-.69-.75-1.42-1.12-2.13.43.86.84,1.72,1.33,2.55l-.2-.42Z"/>
    <path class="cls-3" d="m107.6,201.25l-.56-.63c.32.38.65.76,1,1.12l-.44-.49Z"/>
    <path class="cls-3" d="m109.89,204.2c-.46-.42.43.74-.03.27.67.77,1.27,1.4,1.83,1.94-.57-.6-1.12-1.29-1.8-2.21Z"/>
    <path class="cls-3" d="m112.64,207.31c-.3-.28-.61-.58-.96-.9.31.31.63.61.96.9Z"/>
    <path class="cls-3" d="m106.56,199.31c.04.11.11.33.55,1.03l-.22-.55c-.1-.15-.21-.31-.32-.48Z"/>
    <path class="cls-3" d="m106.88,199.77v.02c.36.52.6.88.71,1.03-.09-.13-.3-.45-.71-1.05Z"/>
    <path class="cls-3" d="m106.48,199.19s.05.08.08.12c-.02-.05-.04-.08-.08-.12Z"/>
    <path class="cls-3" d="m103.41,193.81c.48.72,1.4,2.25.66.68-.37-.5.05.4-.66-.68Z"/>
    <path class="cls-3" d="m106.21,198.52c-.28-.43-.53-.89-.8-1.33-.01.04.09.31-.16-.04.32.46.62.93.96,1.37Z"/>
    <polygon class="cls-3" points="106.67 199.12 106.21 198.52 106.52 199 106.67 199.12"/>
    <path class="cls-3" d="m110.97,205.23c.47.51.96,1.04,1.53,1.64-.6-.66-1.17-1.38-1.73-2.06-.11-.07-.41-.32.2.41Z"/>
    <path class="cls-3" d="m108.92,202.62s.07.08.1.12c-.05-.08-.09-.14-.1-.12Z"/>
    <polygon class="cls-3" points="118.33 212.61 118.25 212.5 118.21 212.5 118.33 212.61"/>
    <path class="cls-3" d="m110.68,204.69c-.41-.53-.69-.82-.96-1.09.33.38.67.78,1.04,1.22.05.03.06.03-.08-.13Z"/>
    <path class="cls-3" d="m114.26,208.94c-.23-.26-.5-.56-.76-.88.19.29.64.82.76.88Z"/>
    <path class="cls-3" d="m109.12,202.94s-.04-.05-.06-.08c.11.19.11.16.06.08Z"/>
    <path class="cls-3" d="m109.12,202.94c.22.26.41.46.6.66-.26-.31-.5-.61-.71-.86.04.07.08.15.11.2Z"/>
    <path class="cls-3" d="m120.75,213.56c-.15,0-1.62-.97-2.63-2.1-1.16-.93-.7,0,.13,1.04.07-.01.08-.02,1.32.89-.4-.36-2.47-2.35-1.44-1.56,1.55,1.31,1.24,1.1,1.95,1.79-.56-.64,2.13,1.46,1.93.99-.5-.32-.96-.69-1.43-1.04,0-.05.53.32.16-.02Z"/>
    <path class="cls-3" d="m116.08,210.52l-.46-.44c.48.52.83.9,1.49,1.61.82.66,1.01.78,1.09.8-.76-.71-1.55-1.39-2.29-2.11l.17.14Z"/>
    <path class="cls-3" d="m113.62,208.07c.41.29,1.55,1.3.98.56-1.3-1.32-.97-.87-1.76-1.64,2.05,2.18-.63-.59.78,1.06-.41-.43-.77-.81-1.12-1.17.35.41.69.81,1.01,1.18-.02-.02-.03-.04-.04-.06h0s0,0,0,0c-.08-.11-.1-.14,0-.03,0,0,.03.03.04.04.03,0,.08.03.13.07.57.66.07.12-.13-.07-.01,0-.03-.02-.04-.01h0c.69.74,1.45,1.4,2.16,2.1-.45-.45-1.01-1.02-2.01-2.02Z"/>
    <path class="cls-3" d="m105.1,195.74c.04.08.03.09.02.1.11.16.16.21-.02-.1Z"/>
    <path class="cls-3" d="m105.67,196.82c-.13-.18-.27-.3-.62-.91-.29-.54.05-.03.07-.08-.26-.34-.84-1.23-.21-.05l.13.17c.59,1.04,1.27,2.45,1.14,2.28-.09-.36-.18-.67-.5-1.41Z"/>
    <path class="cls-3" d="m109.42,202.69c.5.66,1.06,1.27,1.61,1.9l-.73-1.04v.09c-.87-1.12-.73-.84-.88-.95Z"/>
    <path class="cls-3" d="m118.5,212.85l-.34-.12c.39.28.82.52,1.23.79l-.9-.67Z"/>
    <path class="cls-3" d="m121.03,214.9l-.17.02c.24.16.49.31.73.46l-.57-.48Z"/>
    <path class="cls-3" d="m219.02,129.83l-.38-.61c.18.29.29.47.38.61Z"/>
    <path class="cls-3" d="m221.4,134.47l.11.09c-.13-.2-.2-.28-.11-.09Z"/>
    <path class="cls-3" d="m196.16,219.62c.97-.47,2.08-.95,1.9-1l-.35.06c-.63.41-1.12.7-1.55.93Z"/>
    <path class="cls-3" d="m226.64,176.33c-.03.1-.07.2-.1.3-.02.26-.04.5-.05.72.05-.31.12-.65.15-1.02Z"/>
    <path class="cls-3" d="m226.27,175.49l.35-1.34c-.09.3-.2.73-.35,1.34Z"/>
    <path class="cls-3" d="m200.03,108.95c-.25-.13-.5-.26-.76-.38,1.07.75.63.38.76.38Z"/>
    <path class="cls-3" d="m151.29,228.04c.91.18,1.63.31,2.27.41-1.09-.23-1.96-.47-2.27-.41Z"/>
    <path class="cls-3" d="m221.21,131c-.24-.38-.35-.54-.37-.51.24.4.39.61.37.51Z"/>
    <path class="cls-3" d="m156.22,228.73c-.16-.03-.32-.05-.48-.08-.67-.05-1.36-.07-2.18-.2.81.17,1.75.27,2.66.27Z"/>
    <path class="cls-3" d="m108.57,124.46c-.05.06-.1.13-.14.19,0,.03.06-.06.14-.19Z"/>
    <path class="cls-3" d="m96.17,151.92c.04-.3.11-.79.17-1.25-.04.22-.1.6-.17,1.25Z"/>
    <path class="cls-3" d="m132.07,221.93c-.62-.3-.11-.03,0,0h0Z"/>
    <path class="cls-3" d="m129.35,219.91c.14.06.24.09.27.08-.06,0-.16-.03-.27-.08Z"/>
    <path class="cls-3" d="m163.08,228.18s.04,0,.06,0c-.2-.02-.17-.02-.06,0Z"/>
    <path class="cls-3" d="m131.17,221.4c.23.13.48.29.76.45-.13-.07-.36-.21-.76-.45Z"/>
    <path class="cls-3" d="m131.27,221.52c-.21-.12-.37-.21-.53-.3-.09-.02-.02.03.53.3Z"/>
    <path class="cls-3" d="m132.94,222.34c-.35-.17-.68-.34-1-.49.12.07.17.1.13.09.18.09.44.21.87.41Z"/>
    <path class="cls-3" d="m154.71,96.76s-.1,0-.15,0c-.67.13-.38.09.15,0Z"/>
    <path class="cls-3" d="m209.25,207.57s-.03.04-.05.06c.02-.02.05-.05.07-.07h-.02Z"/>
    <path class="cls-3" d="m210.83,205.73c-.58.87-.97,1.32-1.56,1.84.28-.11.56-.21.83-.32l.72-1.52Z"/>
    <path class="cls-3" d="m211.83,119.65l1,1.38c-1.45-1.46-2.36-2.62-1.46-1.3.21-.03,1.32,1.2,2.33,2.51.5.66,1,1.31,1.41,1.8.38.51.67.84.79.83l.56.97c-.19-.26-.22-.3-.4-.56,1.08,1.9,1.15,1.19,2.58,3.62.47.86.73,1.5.38.94l1.14,1.87c.29.57.16.46-.14-.1.54.97,1,1.98,1.51,2.97l-.02-.02c.27.4.77,1.36,1.02,1.83.28.8-.21-.38-.17-.16.27.56.56,1.1.81,1.67.08.37-.03.21-.22-.2-.21-.4-.51-1.04-.75-1.62.31,1.74.73,1.36,1.78,4.94-.2-.55-.43-1.08-.64-1.62.2,1.12.69,2.38,1.14,4.3-.07-.46-.85-3.86-.15-1.98.14.55.36,1.26.75,2.27-.13.05.17,1.06.51,2.33l-.21-.04c.42,1.36.44,1.24.71,2.04.31,1.56.24,1.91.17,2.3.37,2.51-.04-1.78.46,1.19.07.53.14,1.01.21,1.48.06.47.11.93.17,1.41.12.95.3,1.94.41,3.21.02,1.49-.13-.25-.15.28l.23,1.31c.01.32-.04.22-.06.17.1,1.11.2.08.27,1.83.1.23.06,1.14-.05,2.24-.13,1.11-.22,2.42-.21,3.5-.1.53-.09-.27-.18-.11-.13,2.96-.1,2.54-.26,4.98-.14.68-.28,1.36-.47,2.03.44-1.47.22.47.02,2.19.17-.53.32-.98.41-1.27-.14.91-.28,1.81-.49,2.71-.11.32-.11.03-.07-.42-.03.18-.06.36-.08.5-.31.94-.29.41-.22-.29.12-.31.24-.63.35-.93.02-.69.02-1.33-.12-1.22-.01.18-.06.52-.12.89,0-.18,0-.3-.04-.22-.04.09-.04.38-.11.82l-.36.55.04.17c-.33,1.14-.65,2.28-1.06,3.4-.13.62-.26,1.23-.39,1.85-.16.62-.32,1.24-.5,1.91-.17.67-.38,1.39-.66,2.16-.29.77-.56,1.63-.99,2.56.29-.98-.14-.3-.28-.42.33-.46.59-1.2.91-2.05.3-.86.65-1.83,1-2.82-.39,1.02-.39.77-.32.49-.34,1.2-.8,2.36-1.22,3.54-.1-.14-.4.69-.89,1.54.59-.54-1,2.61-1.69,3.97-.13.04-.05-.34.85-1.96-1.18,1.69-.91,2.52-2.13,4.14.23-.39.37-.59.42-.77-.23.48-.7,1.26-1.08,1.86-.38.59-.71.97-.57.7l.25-.38c-.42.62-.95,1.41-1.51,2.25-.59.82-1.21,1.68-1.79,2.48-1.19,1.57-2.19,2.89-2.25,3.13-.04,0,.04-.49.11-.67-.96,1.53-1.95,3.07-3.05,4.53.18-.49-1.46.44.21-1.42-.54.48-1.15,1.11-2.21,2.19.38-.3,1.11-.6.63-.13-1.53,1.06-1.01.79-2.85,2.12.59-.43.19.34-.71,1.08.11-.15-.29-.2.02-.49-.66.7-1.33,1.41-2.05,2.06.54-.48-.07-.3-.64.01.14-.06-.36.31-.96.76-.62.44-1.36.92-1.67,1.15l1.05-.62c-2.71,1.79-2.41,2.2-5.22,3.83.31-.25.64-.83-.82-.08-.56.52-2.55,2.34-5.17,3.6l-.55.13c-.67.32-1.33.66-2.01.94.61-.34,1.74-1.06,2.94-1.79,1.2-.74,2.44-1.59,3.33-2.14-1.12.47-.36.05-1.98.86-.62.2.83-.56,1.31-.8-1.27.6-2.54,1.22-3.85,1.73.13.05-.6.42-1.33.78-.74.33-1.5.65-1.39.7,1.43-.57,2.79-1.28,4.18-1.94.25.07-2.19,1.65-5.07,2.61-.75.19.42-.53.34-.57-.33.23-2.66,1.05-2.94,1.08l1.18-.49c-1.61.44-2.52,1.09-4.53,1.4-.67.19-2.07.23-2.16.37,1.15-.01,1.54.62.83.95-.12.02-1.04.15-2.02.3-.98.16-2.05.2-2.45.22-1.16,0,1.64-.69.64-.69-.03.06-.65.23-.9.29-.73.07.27-.21-1.29.06-.24.23-3.21.33-.72.25-1.54.2-1.64.18-3.46.3.59.08-1.61.57-3.18.65.09-.05-.26-.12-.43-.15-.8,0-1.51,0-2.17-.01-.66-.04-1.26-.08-1.86-.11-.6-.04-1.19-.08-1.82-.12-.63-.06-1.29-.13-2.03-.21-.27-.07-1.69-.28-1.07-.3-.43-.02-.82-.01-1.73-.14-1.73-.43,2.03.27.72-.13-.13.09-2.37-.14-3.66-.37.18.12.92.31,1.78.41.86.1,1.84.19,2.5.25-.01.12-.59.17-1.56.14-.97,0-2.32-.17-3.87-.43-2.45-.46-1.02-.4-1.45-.45-1.13-.3-1.94-.48-2.59-.6-.64-.15-1.1-.25-1.55-.33-.89-.17-1.69-.32-3.48-1.08-1.4-.67.04-.32-.24-.54.96.31,1.68.61,2.33.86.65.23,1.23.45,1.89.65l-1.59-.56c.63.14,1.93.49,2.62.75-.3-.13-.92-.34-1.73-.6-.41-.13-.86-.27-1.35-.43-.48-.17-.99-.36-1.52-.55-.53-.2-1.08-.38-1.62-.6-.54-.23-1.08-.46-1.6-.68-1.06-.43-2.03-.92-2.82-1.34-.6-.23-1.62-.65-1.18-.37l1.04.47c.89.57-2.02-.76-.74-.09-.72-.27-1.45-.64-2.26-1.02-.4-.19-.82-.4-1.25-.63-.42-.25-.86-.52-1.31-.81l-.25-.36c.01.07,1.15.82,1.7,1.08-.81-.41-2.73-1.88-3.65-2.26.4.31.79.64,1.2.93-1.34-.76-3.07-1.63-4.56-2.85.6.66.36.25,1.35,1.23-.84-.87,4.09,2.74,2.65,1.46,1.08.92,2,1.38,3.52,2.43-.02-.08-.52-.41.89.38.07.02.23.08.34.12.04.03.06.03.09.06-.03-.02-.05-.03-.08-.05.07.03.07.03-.03-.02-.33-.21-.59-.38-.68-.47.39.12,1.14.51,1.91.86.78.34,1.56.69,1.96.85.85.44-.39-.11.05.17.4.16.81.3,1.22.43.06.17,2.26,1.18.15.38l1.88.79c1.09.5,2.64,1.08,3.62,1.36.91.31,2.36.57,1.53.42,1.02.3,2.05.55,3.1.77l.02.04c1.52.43,3.13.64,4.77.95,1.66.21,3.36.51,5.15.76.53.04,1.07.07,1.69.11.63.02,1.34.05,2.23.11l.34.13c.68.03,1.7.04,2.63.05.93.01,1.76.03,2.04-.07.74.09,2.4.09,4.16-.14.88-.11,1.79-.19,2.62-.34.83-.14,1.59-.27,2.19-.35l.06-.16c.82-.11,1.6-.32,2.44-.5.84-.18,1.72-.4,2.69-.71l-.15-.1c.83-.28,1.94-.51,3.14-.88.61-.17,1.24-.36,1.89-.54.64-.21,1.3-.45,1.95-.69-.16.11-.83.35-1.3.49,3.26-.8,6.42-2.84,9.17-4.05.64-.4,1.12-.65,1.6-.88-.06.04-.11.07-.16.1.07-.04.17-.09.27-.15.31-.13.61-.29.94-.47-.29.14-.56.27-.79.39.51-.28,1.24-.77,1.96-1.25l.39-.07c.06-.04.11-.07.17-.11.75-.4.54-.41.1-.27.36-.24.67-.5.9-.7.69-.21,1.84-1.31,2.71-1.69.2-.22,1.05-.89,1.87-1.57.8-.71,1.57-1.43,1.66-1.67.04,0,.25-.14-.11.15.77-.58,1.48-1.21,2.07-1.84l.42-.14c.47-.52.91-1.06,1.34-1.62.97-.82,1.39-1.15.6-.16,1.01-1.15,1.4-1.62,1.76-2.06.36-.43.69-.81,1.46-1.86v.17c.59-.72,1.41-1.96,1.83-2.33.71-.75,2.27-2.79,3.89-5.29,1.57-2.52,3.2-5.48,4.38-7.87-.38.39-.07-.14.29-.83.34-.69.75-1.53.67-1.68.19-.25.52-.92.26-.1.51-1.26.83-2.23,1.17-3.09.34-.85.56-1.64.73-2.57.17-.27-.06.59.07.34.05-.21.18-.85.31-1.11.13-.25-.05.4-.14.82.41-1.33.55-2.09.55-2.55.02-.45-.07-.6-.16-.73.22-.67.38-1.17.48-1.64.08-.47.13-.9.15-1.41.17-.46.41-1.25.1.45.08-.48.47-1.91.64-3.27.2-1.36.37-2.61.26-2.67.08-.3.14-1.35.15-1.6.24-2.16.18-2.36.28-4.49l-.06.59c-.17-.85-.01-1.77-.05-3.49l.02.05c.07-1.97-.05-2.39-.07-2.81-.06-.42-.02-.83-.16-2.77l-.12.22c-.17-.17-.22-1.02-.27-2.12-.09-1.09-.21-2.43-.45-3.53l.05.82c-.13-.6-.22-1.46-.28-2.33-.06-.87-.08-1.75-.24-2.36-.05-.27.16.4.26.77-.64-3.2-.28-.37-.94-2.7-.03-.46.41.48-.03-1.09-.09-.4-.52-1.51-1-2.78-.56-1.25-1.08-2.69-1.46-3.74.12.48.24.96-.25-.05-.67-1.58-1.65-4.38-2.61-5.63-.09-.2-.11-.28-.1-.3-.36-.56-.86-1.5-1.42-2.34-.56-.84-1.08-1.61-1.35-1.92-.04-.33-.4-.9-.85-1.58-.46-.68-1.03-1.49-1.64-2.21-1.17-1.49-2.34-2.77-2.16-2.9-.85-1.05-1.77-2.04-2.69-3.03l.11.05c-1.75-1.91-2.52-2.44-3.24-3-.42-.42-.07-.16-.02-.15-1.38-1.3-2.12-2.02-2.9-2.6-.77-.58-1.46-1.14-2.82-1.97l-.18-.31c-.7-.48-4.33-3.38-7.69-4.99.04,0,.12.01.39.14-1.87-.94-4.06-2.14-6.05-3.04-1.97-.92-3.72-1.53-4.52-1.54-.87-.29-1.78-.48-2.66-.71,3.39,1.08-.57.07.8.58-.67-.19-1.52-.49-2-.68-.48-.17-.59-.27.24-.05l.25.1c.7-.14-4.24-1.22-4.12-1.34-6.85-1.47-13.74-1.98-20.3-1.41.26.05.51.08.77.15-.76.05-1.52.15-2.28.22-.6.01-.82-.08.81-.25-.87-.04-2.72.4-2.75.48-3.17.42,1.2-.45.23-.3l-1.32.23.3-.02c-1.05.28-1.14.31-3.06.72-1.23.21-.65,0-1.13.09,0-.02-.16.01-.74.15-.94.22-1.87.47-2.8.71l1.16-.13c-1.22.4-2.62.7-1.29.53-.98.13-3.57.88-5.98,1.83-1.22.45-2.37,1-3.32,1.39-.93.42-1.62.78-1.91.88-.78.44-1.56.87-2.37,1.35-.81.47-1.69.92-2.62,1.5.48-.25.86-.26-.76.71.2-.34-.58.04-1.54.66-.95.63-2.16,1.38-2.84,1.75.6-.34-.47.48-1.45,1.25-.98.77-1.82,1.56-.92.97-1.23.98-.17-.05-1.15.64-2.77,2.53-6.18,5.53-9.05,9.2,0,.09.55-.46-.02.36-.6.57-1.13,1.19-1.69,1.79-.51.77-.29.83-1.36,2.12.17-.17.42-.43.09.09-2.66,3.68-4.84,7.82-6.59,12.14-1.75,4.32-3.07,8.81-4.12,13.32.34-1.21.19-.39,0,.55.14-.61.12.04.22-.07-.25,1.26-.53,2.52-.74,3.8.06.36-.03,1.39-.12,2.39-.1.99-.1,1.95-.03,2.16l.02-1.22c.08.82.21.26.39-.47.2-.73.42-1.61.55-1.48-.02-.45.02-.97.09-1.55.09-.57.23-1.18.36-1.84.24-1.31.61-2.73.72-4.21.18-.63-.02.56.11.24,0-.76.22-1.64.68-3.25l-.02.19c.25-1.15.6-2.09.87-2.99.26-.89.58-1.69.89-2.51.31-.82.63-1.65,1.05-2.56.41-.92.84-1.94,1.44-3.11l-.29.29c.5-1.02.65-1.21.9-1.67.37-1.27-1.38,2.87-1.08,1.7.23-.31.55-.92.93-1.66.38-.74.87-1.6,1.32-2.45.94-1.69,1.95-3.28,2.36-3.61.97-1.44-.42.34.55-1.11l.33-.33.15-.43c.64-.94,1.11-1.32,1.19-1.31-.17.22-.45.64-.62.88.48-.56,1.09-1.4,1.63-2.15.54-.75,1.04-1.36,1.21-1.56l-1.09,1.26c2.83-3.83,7-7.88,10.46-10.89l-.31.17c1.3-1.19,1.92-1.54,2.52-1.98.62-.43,1.26-.87,2.85-1.97l-.11.09c.59-.51,1.46-1.06,2.36-1.61-.79.58,1.64-.83.59-.09,3.24-1.98,1.57-1.03,3.68-2.42l.57-.16c.74-.45.75-.58,2.51-1.38-1.42.71,1.2-.33-.38.48.95-.34,1.76-.68,2.48-.99.72-.29,1.35-.55,1.92-.78,1.12-.49,2.03-.8,2.97-.91,1.67-.87-3.38.91-2.4.55-.42.11-.09-.08.51-.35.61-.24,1.48-.54,2.09-.72.62-.19,1.17-.27,1.97-.37.8-.09,1.81-.34,3.4-.64-.31.08-.34.08-.65.16,1.21-.15,2.3-.64,3.79-.72.79-.31,1.91-.29,2.11-.56l-2.93.52c.83-.16,1.62-.37,2.56-.58.94-.2,2.03-.33,3.42-.42-.21.07-1.03.22-1.59.32.82,0,1.55-.24,2.4-.21-.11.11-1.01.21-2.1.34-.55.06-1.14.13-1.71.2-.57.1-1.1.21-1.54.32.44-.01,1.27-.21,1.9-.3.62-.09,1.03-.14.6.04.63-.23,1.42-.31,2.33-.38.91-.04,1.93-.06,3.02-.25l-.14.15c.34-.05,1.06-.12,1.7-.12l-1.15.19c1.77-.16,3.42.08,5.11.11-1.78-.08-1.98-.12-1.92-.17.06-.06.37-.13-.38-.17,4.41-.02,2.52.38,7.41.79-.66-.07-2.48-.33-1.43-.3.93.1,2.15.33,2.7.49,3.22.44-.47-.22.91-.1,1.07.31,1.59.21,3.01.42l-.02.14c3.61.88,1.03-.08,4.26.82l-1.42-.15c.57.13,1.14.24,1.7.39-.13.02-.26.03-.39.06,1.84.45,2.42.59,4.15,1.27-.37-.24.31-.16,1.87.39,1.02.48-.63-.12,1.54.75-.53-.11-1.08-.27-2-.72-.11,0-.52-.09-.64-.09,1.15.47,2.81,1.13,3.59,1.45-.3-.13-.65-.29-.83-.38l1.6.56,1.57.64c.46.28.06.13-.34,0,.62.29,1.09.4,1.99.87-.28-.02-.27.1-1.58-.46,1,.4,1.95.89,2.92,1.36.17.14,1.38.91.99.75.74.49,1.71.99,2.73,1.56.99.61,2.07,1.23,3,1.97.11.05.32.18.74.47.44.34.87.67,1.29,1,.41.35.82.7,1.23,1.06.42.35.86.71,1.31,1.08.44.39.92.78,1.43,1.2.32.39.66.76.96,1.16,1.5,1.42-1.26-1.61,1.24.75,1.77,1.67.52.76,1.07,1.42.45.41,1.06.97,1.75,1.64.67.68,1.36,1.53,2.01,2.44-.5-.54-.85-1.01-1.31-1.53Zm12.48,22.01c-.16-.47-.57-1.36-.63-1.73.35.47.43.91.63,1.73Zm1.15,38.27c.06-.37.21-.92.42-1.53-.11.46-.23.97-.42,1.53Zm-86.4,44.88s.04,0,.05.01c1.04.43.67.28-.05-.01Zm-2.15-.9c-.22-.07-.22-.05-.13,0,.16.03.65.23,1.2.46-.14-.09-.41-.24-1.06-.47Zm10.44-126.9l.45-.06c-.99.25-.72.16-.45.06Z"/>
    <path class="cls-3" d="m226.31,175.6c.05-.13.08-.17.12-.19.01-.2-.01-.21-.12.19Z"/>
    <path class="cls-3" d="m200.17,109.02l-.06-.05s-.06-.02-.08-.03l.14.07Z"/>
    <path class="cls-3" d="m172.17,226.85c.47-.05.73-.07.91-.07.02-.04-.2-.03-.91.07Z"/>
    <path class="cls-3" d="m125.83,218.43c.42.28.86.51,1.29.76-.62-.37-.83-.52-1.12-.75,0,.05.22.25-.17-.01Z"/>
    <path class="cls-3" d="m116.25,209.74c-.16-.15-.33-.31-.49-.46v.09c.65.65,1.15,1.06.49.37Z"/>
    <path class="cls-3" d="m124.94,217.27c-.02-.18-.85-.62-1.69-1.24l.15.11c-.35-.04.58.58,1.54,1.13Z"/>
    <path class="cls-3" d="m123.05,215.89c-.26-.19-.52-.38-.78-.57-.14-.02.31.24.78.57Z"/>
    <path class="cls-3" d="m134.16,222.82c-.44-.24-.35,0-.58-.16-.57-.09,3.08,1.24.58.16Z"/>
    <polygon class="cls-3" points="124.46 216.48 124.69 216.8 125.24 217.03 124.46 216.48"/>
    <path class="cls-3" d="m131.41,220.8l-1.44-.82s-.18-.05-.42-.17c.9.49,1.87,1.04,1.86.99Z"/>
    <path class="cls-3" d="m129.55,219.81c-.46-.26-.89-.53-1.16-.66.25.14.78.47,1.16.66Z"/>
    <path class="cls-3" d="m126.37,217.7l.39.3,1,.61c-.46-.3-.94-.58-1.39-.91Z"/>
    <path class="cls-3" d="m148.12,226.87l1.78.31c.19-.01-.29-.14-.95-.25-.43-.05-1.09-.16-.83-.06Z"/>
    <path class="cls-3" d="m142.94,225.11c.46.17.48.21.73.34l.1-.16-.83-.18Z"/>
    <path class="cls-3" d="m148.03,226.4c.19-.01,2.59.36.35-.07-.19.03-1.96-.32-.35.07Z"/>
    <polygon class="cls-3" points="174.99 226.87 174.54 226.96 174.66 227.25 174.99 226.87"/>
    <path class="cls-3" d="m196.76,217.45c-1.84,1.04-.33.43-2.01,1.34-.39.32,1.38-.74.97-.43,1.05-.74,1.65-1.05,1.04-.91Z"/>
    <path class="cls-3" d="m195.72,218.36c-.17.12-.34.25-.53.38.31-.21.45-.31.53-.38Z"/>
    <path class="cls-3" d="m95.42,156.96c-.08.46-.1.92-.14,1.39l.14-.89c0-.17,0-.33,0-.49Z"/>
    <path class="cls-3" d="m95.51,159.64l-.21.32.14.84c0-.31.02-.92.07-1.16Z"/>
    <path class="cls-3" d="m225.01,145.4l.07.09c0-.22-.08-.52-.24-1.14l.17,1.05Z"/>
    <polygon class="cls-3" points="217.99 128.45 218.15 128.72 217.99 128.13 217.99 128.45"/>
    <path class="cls-3" d="m208.36,116.42c.45.44.98.96,1.4,1.43-.94-1-1.37-1.7-1.4-1.43Z"/>
  </g>
  <g>
    <path class="cls-3" d="m153.02,45.18c1.08-.08.68-.26.84-.32-1.81.22-.79.37-.84.32Z"/>
    <polygon class="cls-3" points="135.41 48.4 135.69 48.23 133.19 49.09 135.41 48.4"/>
    <path class="cls-3" d="m119.45,53.34c1.62-.19,5.65-2.2,8.57-2.87l.49-.06,1.2-.68c-1.72.57-3.72,1.18-5.53,1.87-1.82.71-3.52,1.33-4.73,1.73Z"/>
    <path class="cls-3" d="m110.94,56.21c.56-.11-1.7.95,1.91-.86-.19.07-.25.09-.36.13-.33.15-.78.37-1.55.73Z"/>
    <path class="cls-3" d="m112.49,55.48c1.6-.77-1.1.39,0,0h0Z"/>
    <path class="cls-3" d="m105.23,59.26l1.99-1.22c-.47.16-2.31,1.13-1.66.71-2.08,1.2-1.6,1.04-.33.52Z"/>
    <path class="cls-3" d="m103.44,60.57c.33-.23.67-.45,1.02-.65-.2.07-.5.2-1.02.65Z"/>
    <path class="cls-3" d="m106.66,58.61l-2.2,1.32c.33-.11.42-.02,1.01-.59-.13.2.26-.14,1.18-.72Z"/>
    <path class="cls-3" d="m107.96,57.97c1.18-.57,2.73-1.23.7-.08,1.97-1.02,2.81-1.47,2.63-1.47-.16.03-1.38.47-3.33,1.55Z"/>
    <path class="cls-3" d="m118.8,54.02c.55-.19,1.09-.39,1.65-.54l1.37-.63c-.34.16-1.14.42-1.83.65-.69.24-1.26.49-1.19.52Z"/>
    <path class="cls-3" d="m92.87,66.92c-.07.15.75-.3.95-.32.44-.38.9-.72,1.36-1.06-.78.43-2.15,1.41-2.31,1.38Z"/>
    <path class="cls-3" d="m93.82,66.6l-1.99,1.65c1.85-1.36,2.15-1.66,1.99-1.65Z"/>
    <path class="cls-3" d="m103.29,61.14c1.14-.84,2.36-1.52,3.55-2.29-1.43.88-2.87,1.74-4.24,2.72l.69-.42Z"/>
    <path class="cls-3" d="m85.13,73.03c.33-.37.67-.72,1.01-1.08-.62.61-1.22,1.25-1.8,1.91l.79-.84Z"/>
    <path class="cls-3" d="m80.34,77.48c.66-.87-1.23.87-.48,0-1.24,1.28-2.24,2.43-3.1,3.5.95-1.1,2.08-2.16,3.58-3.49Z"/>
    <path class="cls-3" d="m75.33,82.79c.46-.56.92-1.16,1.42-1.81-.49.59-.97,1.19-1.42,1.81Z"/>
    <path class="cls-3" d="m88.36,70.91c-.18.09-.56.24-1.71,1.11l.92-.47c.24-.2.51-.42.79-.64Z"/>
    <path class="cls-3" d="m87.6,71.53l-.03.02c-.85.69-1.44,1.17-1.7,1.38.22-.18.74-.6,1.73-1.4Z"/>
    <path class="cls-3" d="m88.55,70.75c-.07.06-.13.1-.2.16.09-.04.14-.08.2-.16Z"/>
    <path class="cls-3" d="m97.48,64.54c-1.19.95-3.71,2.8-1.09,1.27.81-.73-.69.15,1.09-1.27Z"/>
    <path class="cls-3" d="m89.7,70.17c.71-.56,1.47-1.07,2.21-1.61-.08-.01-.52.21.04-.28-.75.63-1.52,1.23-2.24,1.89Z"/>
    <polygon class="cls-3" points="88.71 71.07 89.7 70.17 88.9 70.79 88.71 71.07"/>
    <path class="cls-3" d="m78.71,79.53c-.8.89-1.66,1.84-2.63,2.92,1.06-1.15,2.23-2.27,3.32-3.35.1-.2.49-.77-.69.42Z"/>
    <path class="cls-3" d="m82.94,75.54c-.06.06-.13.13-.19.19.13-.09.23-.18.19-.19Z"/>
    <path class="cls-3" d="m66.97,93.55c.06-.06.11-.1.17-.16,0-.02,0-.04,0-.07l-.17.23Z"/>
    <path class="cls-3" d="m79.61,78.95c.86-.8,1.32-1.33,1.75-1.85-.61.63-1.26,1.3-1.96,2.01-.05.09-.05.12.21-.16Z"/>
    <path class="cls-3" d="m72.74,85.86c.42-.45.9-.95,1.43-1.46-.47.38-1.34,1.25-1.43,1.46Z"/>
    <path class="cls-3" d="m82.42,75.95s.08-.08.12-.13c-.32.22-.27.21-.12.13Z"/>
    <path class="cls-3" d="m82.42,75.95c-.43.43-.74.79-1.06,1.15.51-.5.98-.96,1.4-1.37-.12.09-.24.17-.34.22Z"/>
    <path class="cls-3" d="m65.69,97.92c-.03-.14.35-.87.94-1.82.3-.47.64-1.01,1.03-1.55.41-.52.84-1.06,1.28-1.55,1.44-2.17-.12-1.23-1.8.39.04.13.05.14-1.35,2.45.57-.76,3.72-4.68,2.51-2.75-1.04,1.44-1.45,2.04-1.76,2.43-.32.39-.53.57-1.06,1.26.52-.54-.04.45-.63,1.52-.61,1.05-1.15,2.25-.8,2.02.48-.92,1.05-1.78,1.59-2.67.08-.02-.47.97.06.28Z"/>
    <path class="cls-3" d="m70.26,89.3l.69-.87c-.84.94-1.45,1.61-2.58,2.86-1.03,1.54-1.2,1.89-1.22,2.04,1.11-1.44,2.18-2.93,3.33-4.34l-.22.31Z"/>
    <path class="cls-3" d="m74.16,84.61c-.44.77-2.03,2.91-.82,1.8,2.1-2.48,1.37-1.82,2.59-3.34-3.5,3.92.93-1.2-1.73,1.52.67-.79,1.29-1.48,1.87-2.14-.66.68-1.31,1.33-1.91,1.94.04-.03.06-.05.09-.08l.02-.02h0c.17-.14.24-.19.05,0-.01.01-.05.06-.07.08,0,.05-.05.14-.1.23-1.06,1.1-.21.14.1-.23,0-.02.02-.06.02-.07h-.02c-1.17,1.33-2.2,2.76-3.31,4.12.75-.83,1.59-1.94,3.21-3.82Z"/>
    <path class="cls-3" d="m94.38,67.79c-.14.08-.15.06-.16.06-.25.22-.35.32.16-.06Z"/>
    <path class="cls-3" d="m92.57,68.97c.29-.25.49-.51,1.49-1.23.9-.59.06.09.15.12.56-.5,2.02-1.66.06-.38l-.28.25c-1.73,1.19-4.08,2.6-3.8,2.35.62-.21,1.14-.42,2.38-1.1Z"/>
    <path class="cls-3" d="m82.91,76.44c-1.08.98-2.06,2.06-3.07,3.11l1.71-1.43h-.16c1.82-1.69,1.36-1.4,1.52-1.68Z"/>
    <path class="cls-3" d="m66.58,93.89l.16-.6c-.43.73-.79,1.52-1.18,2.28l1.02-1.67Z"/>
    <path class="cls-3" d="m63.39,98.63l-.05-.29c-.25.44-.46.9-.69,1.35l.75-1.06Z"/>
    <path class="cls-3" d="m227.32,256.51l1.01-.75c-.48.36-.79.59-1.01.75Z"/>
    <path class="cls-3" d="m219.59,261.4l-.14.2c.33-.27.46-.39.14-.2Z"/>
    <path class="cls-3" d="m66.89,230.62c.97,1.62,1.99,3.49,2.04,3.17l-.17-.6c-.82-1.03-1.4-1.85-1.87-2.57Z"/>
    <path class="cls-3" d="m147.27,277.1c-.17-.04-.35-.08-.53-.13-.46,0-.89.01-1.27.02.54.03,1.15.1,1.8.11Z"/>
    <path class="cls-3" d="m148.68,276.31l2.4.4c-.54-.11-1.31-.24-2.4-.4Z"/>
    <path class="cls-3" d="m260.84,220.08c.19-.46.38-.91.54-1.38-1.15,1.99-.56,1.16-.54,1.38Z"/>
    <path class="cls-3" d="m45.16,153.54c-.18,1.61-.29,2.9-.36,4.04.24-1.95.52-3.51.36-4.04Z"/>
    <path class="cls-3" d="m225.63,260.52c.63-.47.89-.7.84-.73-.65.48-1.01.78-.84.73Z"/>
    <path class="cls-3" d="m44.74,162.27c.02-.29.04-.57.06-.86-.02-1.19-.09-2.38,0-3.83-.17,1.44-.19,3.1-.06,4.69Z"/>
    <path class="cls-3" d="m219.44,62.71c-.11-.07-.24-.16-.35-.22-.05,0,.11.09.35.22Z"/>
    <path class="cls-3" d="m169.53,45.35c.53.03,1.39.07,2.21.11-.39-.04-1.06-.07-2.21-.11Z"/>
    <path class="cls-3" d="m52.83,119c.44-1.13.04-.19,0,0h0Z"/>
    <path class="cls-3" d="m55.94,113.94c-.08.25-.12.44-.09.49-.01-.11.02-.28.09-.49Z"/>
    <path class="cls-3" d="m46.77,174.16s0,.06,0,.1c0-.36,0-.3,0-.1Z"/>
    <path class="cls-3" d="m53.63,117.36c-.2.41-.43.88-.67,1.4.11-.23.31-.65.67-1.4Z"/>
    <path class="cls-3" d="m53.43,117.54c.17-.38.31-.68.44-.97.03-.16-.05-.04-.44.97Z"/>
    <path class="cls-3" d="m52.25,120.59c.24-.65.47-1.25.7-1.83-.1.22-.14.31-.13.24-.12.33-.29.81-.58,1.59Z"/>
    <path class="cls-3" d="m275.05,138.99c0-.08-.02-.17-.03-.25-.33-1.16-.21-.64.03.25Z"/>
    <path class="cls-3" d="m89.98,251.59s-.07-.05-.11-.08c.04.04.09.08.13.12l-.02-.04Z"/>
    <path class="cls-3" d="m93.45,254.07c-1.61-.87-2.45-1.49-3.45-2.43.23.46.45.95.69,1.4l2.76,1.03Z"/>
    <path class="cls-3" d="m243.98,242.36l-2.26,1.96c2.32-2.77,4.21-4.54,2.05-2.75.05.2-.43.81-1.18,1.63-.76.82-1.75,1.87-2.84,2.83-1.07.98-2.13,1.96-2.92,2.74-.82.75-1.37,1.31-1.33,1.51l-1.61,1.14c.44-.35.48-.44.92-.79-3.15,2.18-1.89,2.19-5.91,5.08-1.43.96-2.51,1.52-1.58.8l-3.09,2.29c-.94.6-.77.35.16-.25-1.62,1.09-3.31,2.07-4.96,3.1l.03-.04c-.65.54-2.26,1.55-3.03,2.07-1.36.62.62-.42.25-.32-.93.56-1.84,1.15-2.79,1.68-.64.2-.37-.02.31-.42.66-.43,1.73-1.05,2.72-1.57-1.5.41-2.06.77-3.01,1.36-.97.54-2.3,1.34-5.35,2.52.92-.43,1.82-.92,2.73-1.38-.98.23-1.96.68-3.16,1.13-1.19.45-2.54.99-4.17,1.53.79-.19,6.61-2.08,3.44-.57-.94.33-2.14.83-3.85,1.66-.11-.23-1.82.46-4,1.26l.04-.37c-1.15.48-1.69.71-2.09.9-.41.2-.69.37-1.37.66-2.68.79-3.3.72-4,.65-4.34,1.04,3.1-.35-2.01,1-.91.2-1.75.39-2.56.59-.82.18-1.61.35-2.43.52-1.63.36-3.34.83-5.54,1.22-2.59.27.42-.27-.52-.22l-2.25.6c-.56.08-.39-.03-.3-.09-1.92.34-.12.36-3.16.75-.39.21-1.98.27-3.92.26-1.95-.06-4.26-.01-6.15.19-.94-.1.45-.2.16-.33-5.19.24-4.45.22-8.74.33-1.21-.14-2.42-.27-3.62-.5,2.64.53-.78.46-3.82.38.93.22,1.74.41,2.28.52-1.61-.11-3.21-.21-4.81-.43-.57-.14-.07-.18.73-.2-.33-.02-.64-.04-.88-.06-1.68-.39-.77-.44.47-.43.57.16,1.13.32,1.68.47,1.21-.07,2.33-.18,2.11-.4-.31,0-.91-.03-1.57-.08.31-.02.52-.05.38-.1-.16-.06-.66,0-1.45-.06l-1.02-.54-.28.1c-2.05-.4-4.09-.78-6.1-1.32-1.11-.13-2.19-.26-3.29-.39-1.1-.18-2.22-.37-3.41-.57-.6-.11-1.22-.22-1.87-.34-.64-.13-1.3-.31-2-.49-1.39-.38-2.94-.73-4.63-1.32,1.75.36.5-.29.7-.56.85.5,2.19.85,3.73,1.27.77.2,1.59.44,2.45.64.86.19,1.75.41,2.63.66-1.85-.52-1.4-.56-.91-.49-2.15-.41-4.24-1.04-6.37-1.58.22-.2-1.27-.59-2.83-1.32.52.47-.66.13-2.28-.43-.82-.26-1.74-.62-2.6-.99-.87-.35-1.69-.69-2.32-.91-.08-.22.58-.14,3.55,1.18-3.13-1.79-4.55-1.19-7.57-3.08.72.34,1.09.56,1.41.61-.87-.34-2.32-1.03-3.41-1.6-1.09-.58-1.81-1.08-1.31-.89l.7.38c-1.16-.64-2.61-1.44-4.16-2.3-1.54-.87-3.12-1.87-4.62-2.73-2.92-1.84-5.39-3.38-5.83-3.45,0-.08.86-.01,1.18.08-2.82-1.44-5.66-2.93-8.39-4.62.88.24-.99-2.48,2.51.14-.47-.42-.99-.89-1.66-1.45-.67-.57-1.51-1.2-2.51-2.06.59.62,1.23,1.84.33,1.09-2.09-2.5-1.54-1.65-4.16-4.65.85.97-.57.38-2-1.08.29.16.3-.53.86-.05l-1.99-1.59c-.66-.53-1.28-1.11-1.93-1.67.93.87.51-.17-.12-1.12.13.23-.6-.58-1.48-1.57-.86-1.01-1.82-2.24-2.27-2.73l1.26,1.74c-1.76-2.24-2.87-3.16-3.85-4.19-.5-.5-1.01-1-1.6-1.66-.58-.67-1.29-1.47-2.06-2.67.49.51,1.55.98,0-1.45-.99-.9-4.48-4.08-7.1-8.46l-.31-.94c-.67-1.11-1.37-2.22-1.96-3.37.69,1.02,2.13,2.87,3.58,4.86.7,1.01,1.54,1.98,2.27,2.93.73.94,1.42,1.82,1.98,2.55-1-1.89-.14-.61-1.81-3.33-.44-1.04,1.11,1.36,1.6,2.16-1.25-2.13-2.53-4.25-3.62-6.46-.08.23-.82-.98-1.57-2.2-.7-1.24-1.37-2.51-1.44-2.32,1.22,2.41,2.68,4.68,4.04,7-.07.23-.84-.67-1.9-2.23-.52-.78-1.16-1.7-1.73-2.77-.57-1.07-1.16-2.24-1.72-3.44-.45-1.27,1,.65,1.05.5-.19-.29-.83-1.37-1.32-2.5-.5-1.12-.97-2.23-1.03-2.47l1.03,1.99c-.51-1.38-1.07-2.43-1.65-3.58-.56-1.14-1.05-2.4-1.5-4.11-.43-1.14-.73-3.58-.98-3.72.2,2.01-.85,2.79-1.53,1.6-.05-.21-.43-1.79-.83-3.49-.43-1.69-.67-3.55-.77-4.24-.19-2.03,1.46,2.75,1.3,1.02-.11-.05-.49-1.09-.64-1.53-.23-1.26.42.44-.31-2.24-.45-.38-1.08-5.56-.55-1.23-.32-1.33-.44-2.04-.56-2.82-.12-.78-.28-1.6-.5-3.19-.04.52-.33-.16-.68-1.31-.33-1.15-.8-2.78-.94-4.14.1.15.16-.48.19-.78-.12-1.4-.22-2.64-.32-3.79-.05-1.15-.06-2.22-.09-3.27-.02-1.05-.07-2.1-.07-3.2.01-1.11.03-2.27.05-3.58.08-.48.22-3,.35-1.92-.03-.75-.1-1.44-.02-3.05.48-3.09-.15,3.58.35,1.23-.17-.21-.12-4.17.07-6.46-.18.34-.39,1.65-.43,3.18-.05,1.53-.05,3.25-.05,4.4-.22,0-.39-1.01-.49-2.7-.04-.85-.1-1.87-.07-3.02.04-1.15.12-2.43.21-3.81.16-2.19.37-2.64.43-2.65.08-.01.09.42.12.05.34-2.02.53-3.47.65-4.62.17-1.13.26-1.96.34-2.75.08-.79.16-1.53.33-2.5.17-.96.51-2.12,1.01-3.76.96-2.55.57.03.91-.5-.39,1.73-.8,3.03-1.14,4.21-.3,1.18-.59,2.22-.83,3.4l.74-2.87c-.14,1.13-.56,3.45-.9,4.7.18-.54.45-1.66.77-3.12.16-.73.34-1.55.53-2.43.23-.87.48-1.79.73-2.75.26-.95.5-1.95.79-2.93.31-.97.63-1.95.94-2.91.58-1.92,1.29-3.69,1.89-5.14.3-1.08.88-2.93.46-2.11l-.66,1.89c-.85,1.65,1.02-3.64.04-1.3.36-1.3.89-2.63,1.42-4.1.28-.73.57-1.5.91-2.29.37-.78.77-1.58,1.21-2.42l.6-.5c-.12.03-1.25,2.14-1.62,3.14.27-.74,1.01-2,1.71-3.29.36-.64.7-1.3.99-1.89.31-.59.56-1.12.67-1.55-.48.74-1,1.47-1.43,2.25.51-1.26,1.17-2.62,1.84-4.07.66-1.46,1.49-2.93,2.42-4.34-1.06,1.15-.38.67-1.93,2.55,1.38-1.6-4.15,7.58-2.13,4.87-.74,1-1.24,1.94-1.78,2.97-.55,1.02-1.13,2.11-1.91,3.55.14-.05.63-.97-.53,1.62-.02.13-.1.42-.16.61-.04.08-.05.11-.08.17.03-.05.05-.09.07-.14-.03.12-.04.13.03-.05.31-.6.57-1.08.71-1.27-.15.7-.71,2.06-1.21,3.47-.48,1.41-.97,2.83-1.18,3.56-.63,1.55.13-.7-.29.12-.21.73-.41,1.46-.56,2.21-.29.14-1.71,4.14-.65.32l-1.08,3.4c-.7,1.98-1.48,4.78-1.81,6.53-.4,1.64-.62,4.21-.5,2.74-.16.92-.35,1.83-.49,2.75l-.37,2.77-.07.04c-.51,2.72-.64,5.56-.92,8.48-.11,2.93-.36,5.95-.52,9.11.02.93.04,1.87.07,2.97.07,1.1.12,2.35.16,3.91l-.17.62c.05,1.19.2,2.98.32,4.6.12,1.62.23,3.07.44,3.56-.04.65.04,1.7.18,2.97.08.63.17,1.32.27,2.05.12.72.29,1.47.44,2.23.33,1.52.62,3.1,1,4.53.38,1.43.72,2.74.95,3.77l.29.09c.31,1.41.81,2.74,1.26,4.18.24.71.48,1.45.74,2.21.28.76.6,1.54.92,2.38l.14-.28c.63,1.41,1.2,3.31,2.03,5.35.4,1.03.82,2.11,1.25,3.22.47,1.09.99,2.19,1.52,3.29-.22-.26-.74-1.39-1.06-2.2,1.91,5.58,5.96,10.77,8.51,15.38.81,1.05,1.31,1.85,1.78,2.65-.07-.1-.13-.19-.19-.26.07.11.19.28.3.45.28.51.6,1.02.96,1.56-.29-.48-.56-.93-.8-1.32.57.84,1.54,2.04,2.48,3.22l.19.67c.08.1.14.18.21.28.81,1.25.81.88.48.13.47.59.98,1.08,1.36,1.47.22.59.88,1.33,1.57,2.12.68.8,1.41,1.61,1.81,2.35.42.31,1.72,1.69,3.03,3.03,1.37,1.28,2.74,2.51,3.17,2.64,0,.08.29.41-.29-.16,1.13,1.25,2.35,2.4,3.54,3.32l.31.72,1.5,1.08,1.55,1.01c1.59,1.57,2.23,2.25.37,1.02,1.09.79,1.85,1.34,2.44,1.77.6.41,1.03.71,1.43.99.81.56,1.53,1.08,3.47,2.26l-.3.04c1.35.91,3.65,2.13,4.36,2.82.71.57,2.04,1.43,3.73,2.5.84.55,1.8,1.1,2.84,1.66,1.04.57,2.14,1.18,3.28,1.8,4.65,2.35,10.07,4.74,14.43,6.43-.75-.61.24-.14,1.5.38,1.27.49,2.79,1.08,3.04.91.48.3,1.7.77.22.43,2.28.7,4.03,1.11,5.57,1.57,1.54.46,2.95.73,4.6.87.51.25-1.04,0-.59.18.38.05,1.51.19,1.98.38.46.18-.71-.03-1.46-.12,1.2.24,2.13.41,2.86.51.74.07,1.28.08,1.67.06.8-.04,1.04-.22,1.24-.4,1.2.29,2.11.48,2.93.59.83.07,1.59.08,2.49.04.83.23,2.25.52-.76.25.42.05,1.28.16,2.33.28.52.06,1.1.13,1.69.2.59.04,1.21.08,1.81.11,2.4.14,4.62.24,4.71.04.53.09,2.37.04,2.82,0,1.9.03,2.94.04,3.97-.02,1.03-.05,2.04-.1,3.91-.19h-1.04c1.45-.44,3.09-.31,6.09-.64l-.08.05c1.73-.07,2.77-.23,3.47-.32.7-.1,1.07-.17,1.43-.24.36-.07.72-.13,1.41-.23.35-.04.78-.1,1.33-.16.55-.09,1.23-.19,2.07-.32l-.41-.17c.26-.32,1.75-.54,3.66-.8,1.89-.33,4.2-.75,6.09-1.34l-1.42.22c1.03-.32,2.51-.61,4.02-.84,1.51-.25,3.05-.42,4.08-.79.46-.12-.68.34-1.3.57,5.49-1.62.6-.55,4.57-2.06.79-.12-.78.8,1.9-.22.68-.21,2.56-1.14,4.7-2.18,1.05-.57,2.18-1.16,3.27-1.7.54-.27,1.08-.53,1.6-.76.51-.25.99-.49,1.44-.68-.82.29-1.63.57.06-.45,2.66-1.42,7.39-3.57,9.43-5.45.34-.18.48-.23.51-.22.92-.71,2.49-1.74,3.86-2.85,1.38-1.1,2.65-2.14,3.14-2.65.57-.13,1.5-.83,2.63-1.73,1.12-.91,2.44-2.03,3.61-3.21,1.19-1.15,2.34-2.25,3.18-3.07.83-.82,1.41-1.31,1.54-1.16.83-.85,1.68-1.67,2.49-2.54l2.38-2.64-.06.19c1.58-1.64,2.47-2.9,3.18-3.83.69-.95,1.15-1.61,1.55-2.3.67-.8.27-.15.25-.05,2.05-2.61,3.2-4.03,4.09-5.47.9-1.43,1.76-2.73,3.01-5.23l.52-.36c.73-1.3,5.23-8.09,7.52-14.22,0,.07,0,.21-.18.71,1.34-3.41,3.11-7.43,4.36-11.04,1.31-3.59,2.08-6.74,1.97-8.14.37-1.57.55-3.18.83-4.76-1.35,6.08-.21-.99-.88,1.48.22-1.2.62-2.73.88-3.59.23-.87.38-1.07.12.41l-.14.45c.36,1.2,1.46-7.6,1.69-7.4.78-6.1,1.04-12.18.97-18.15-.05-1.49-.1-2.98-.15-4.46-.1-1.48-.24-2.95-.36-4.41-.07-.73-.11-1.47-.21-2.19-.1-.72-.2-1.45-.3-2.17-.22-1.44-.36-2.89-.66-4.3-.04.46-.07.91-.14,1.37-.21-1.32-.5-2.63-.74-3.94-.12-1.05.01-1.45.56,1.37-.07-1.53-1.12-4.68-1.27-4.73-1.22-5.48.97,2.02.55.35l-.6-2.27.09.52c-.32-.89-.5-1.39-.74-2.06-.21-.68-.48-1.54-1-3.18-.57-2.11-.1-1.14-.34-1.97.03,0-.05-.29-.38-1.26-.53-1.61-1.12-3.19-1.68-4.79l.41,2.01c-.89-2.07-1.63-4.47-1.13-2.16-.37-1.68-2.09-6.09-4.13-10.17-.98-2.05-2.12-3.98-2.95-5.57-.89-1.56-1.61-2.71-1.84-3.19-.45-.64-.89-1.29-1.33-1.95-.46-.65-.92-1.3-1.39-1.98-.94-1.35-1.87-2.82-3.03-4.34.52.8.59,1.45-1.35-1.22.62.29-.17-1.01-1.4-2.59-1.25-1.56-2.75-3.55-3.5-4.68.68,1-.92-.74-2.41-2.33-1.5-1.59-3.01-2.93-1.84-1.45-1.91-1.99.07-.3-1.3-1.9-4.85-4.44-10.63-9.92-17.49-14.37-.15,0,.89.88-.62.02-1.08-.96-2.25-1.79-3.39-2.68-.7-.4-1.08-.48-1.58-.69-.5-.22-1.12-.53-2.34-1.36.33.27.81.66-.15.17-6.85-4.07-14.42-7.24-22.23-9.61-7.82-2.38-15.88-3.98-23.92-5.12,2.17.41.71.27-.96.1,1.08.15-.04.22.16.37-2.24-.24-4.49-.52-6.75-.7-.62.17-2.44.16-4.19.16-1.75-.02-3.43.13-3.78.29l2.14-.15c-1.42.26-.41.41.88.61,1.3.24,2.89.49,2.68.74.79-.11,1.71-.11,2.71-.08,1.01.06,2.11.22,3.26.35,2.32.22,4.87.63,7.47.6,1.12.22-.99.06-.39.23,1.33-.11,2.9.14,5.78.68h-.34c2.04.26,3.75.72,5.35,1.05,1.6.32,3.05.74,4.52,1.16,1.48.41,2.98.83,4.64,1.43,1.66.57,3.52,1.16,5.66,2.03l-.56-.47c1.85.72,2.22.94,3.07,1.32,2.27.44-5.22-1.96-3.13-1.62.58.35,1.69.82,3.05,1.36,1.36.54,2.93,1.27,4.49,1.93,1.58.64,3.04,1.44,4.26,2.05,1.2.63,2.11,1.14,2.43,1.5,2.68,1.47-.65-.68,2.02.79l.64.52.77.2c1.75.98,2.47,1.74,2.48,1.87-.41-.27-1.19-.69-1.64-.95,1.06.75,2.62,1.69,4.02,2.5,1.39.82,2.55,1.61,2.91,1.87-.79-.57-1.57-1.16-2.38-1.71,1.74,1.13,3.59,2.32,5.42,3.64,1.79,1.36,3.68,2.68,5.42,4.18.89.73,1.77,1.46,2.65,2.18.85.76,1.68,1.51,2.51,2.25,1.69,1.44,3.19,2.97,4.68,4.33l-.35-.51c.56.53,1.04.97,1.44,1.38.39.42.72.77,1.01,1.09.58.64.99,1.12,1.41,1.62.84,1.01,1.72,2.07,3.88,4.67l-.18-.17c.98.95,2.08,2.39,3.18,3.88-1.13-1.29,1.7,2.73.25,1.02,2.04,2.64,2.47,3.34,2.85,3.74.34.42.63.54,1.96,2.32l.36.97c.46.6.73.91,1.11,1.44.37.53.89,1.24,1.69,2.73-1.46-2.36.77,2.04-.9-.59.75,1.61,1.46,2.98,2.11,4.17.63,1.21,1.18,2.27,1.67,3.23,1.03,1.89,1.71,3.42,2.05,5.04.87,1.4.35-.04-.29-1.63-.61-1.61-1.51-3.27-1.05-2.48-.25-.73.13-.16.69.84.52,1.02,1.17,2.5,1.58,3.54.44,1.05.66,2,.96,3.38.16.68.35,1.47.63,2.41.14.47.3.99.48,1.55.17.57.35,1.19.55,1.87-.16-.54-.21-.57-.38-1.11.25,1.04.59,2.02.95,3.06.18.52.36,1.06.53,1.63.15.57.27,1.18.38,1.82.67,1.34.81,3.29,1.31,3.61l-1.37-5.05c.41,1.42.91,2.78,1.42,4.38.5,1.61.89,3.49,1.27,5.91-.16-.36-.55-1.77-.8-2.73.14,1.43.66,2.68.74,4.16-.21-.18-.52-1.73-.92-3.62-.19-.94-.4-1.98-.62-2.96-.27-.97-.54-1.9-.81-2.65.09.76.57,2.19.82,3.26.26,1.08.4,1.78.03,1.05.5,1.06.76,2.44,1.03,4.01.21,1.58.41,3.36.91,5.24l-.28-.22c.15.59.38,1.84.48,2.95l-.51-1.98c.56,3.07.39,5.98.61,8.95-.13-3.12-.09-3.47,0-3.38.11.09.28.63.24-.69.73,7.7-.27,4.46-.23,13.06.01-1.16.18-4.38.3-2.55-.04.82-.05,1.77-.15,2.64-.1.87-.2,1.66-.29,2.16-.27,5.7.3-.86.32,1.58-.38,1.92-.11,2.81-.27,5.32h-.25c-.2,1.61-.31,2.52-.38,3.08-.05.56-.02.76.02.94.07.37.15.65-.41,3.54l.05-2.51c-.14,1.01-.24,2.03-.41,3.03-.05-.22-.09-.45-.16-.67-.22,1.65-.42,2.72-.63,3.78-.21,1.06-.46,2.11-.93,3.67.36-.69.33.52-.39,3.33-.69,1.86.12-1.11-1.07,2.81.11-.94.3-1.93.94-3.6-.03-.2.08-.92.05-1.12-.64,2.02-1.54,5.09-1.97,6.5.18-.54.4-1.18.54-1.51-.25.96-.47,1.92-.74,2.88l-.87,2.84c-.41.84-.23.12-.04-.59-.41,1.13-.53,1.97-1.21,3.61-.02-.5-.21-.46.55-2.84-.54,1.8-1.25,3.54-1.91,5.31-.22.32-1.37,2.55-1.15,1.85-.74,1.38-1.47,3.14-2.3,5.01-.92,1.82-1.82,3.81-2.97,5.54-.08.2-.27.59-.71,1.36-.53.82-1.04,1.62-1.54,2.41-.55.77-1.09,1.54-1.65,2.32-.55.79-1.1,1.61-1.69,2.46-.61.84-1.23,1.72-1.87,2.69-.63.62-1.22,1.27-1.88,1.85-2.24,2.84,2.62-2.45-1.12,2.28-2.64,3.36-1.25,1.03-2.31,2.09-.64.84-1.52,2.01-2.59,3.31-1.09,1.28-2.46,2.61-3.94,3.9.87-.97,1.63-1.65,2.47-2.52Zm-36.51,25.24c.39-.19.97-.48,1.52-.76.55-.29,1.08-.55,1.39-.62-.77.69-1.52.9-2.92,1.38Zm-66.68,7.99c.65.05,1.63.22,2.73.5-.81-.11-1.73-.25-2.73-.5ZM48.88,131.67s0,.06-.01.09c-.59,1.88-.38,1.22.01-.09Zm1.23-3.9c.09-.4.05-.39-.04-.23-.02.29-.3,1.17-.62,2.16.14-.26.35-.75.66-1.93Zm223.33-1.6l.17.78c-.59-1.69-.38-1.23-.17-.78Z"/>
    <path class="cls-3" d="m148.5,276.4c.24.07.3.12.35.17.34,0,.36-.05-.35-.17Z"/>
    <path class="cls-3" d="m260.74,220.33l.07-.11c.03-.07.03-.11.03-.14l-.11.25Z"/>
    <path class="cls-3" d="m50.51,189.82c.17.81.24,1.27.26,1.58.07.03.03-.35-.26-1.58Z"/>
    <path class="cls-3" d="m57.97,107.55c-.42.77-.76,1.58-1.13,2.38.55-1.15.78-1.54,1.13-2.08-.08.02-.4.43,0-.3Z"/>
    <path class="cls-3" d="m71.67,89.47c.22-.31.51-.62.72-.93h-.16c-1.03,1.26-1.67,2.19-.57.93Z"/>
    <path class="cls-3" d="m59.86,105.82c.14-.04.39-.43.71-1.01.31-.59.72-1.35,1.19-2.13-.06.09-.11.18-.17.28.01-.3-.21-.03-.56.54-.34.57-.75,1.46-1.18,2.33Z"/>
    <path class="cls-3" d="m61.98,102.31c.29-.49.58-.98.88-1.44.01-.24-.38.57-.88,1.44Z"/>
    <path class="cls-3" d="m51.61,122.8c.35-.8-.06-.6.19-1.04.04-.5-.39.89-.63,1.84-.13.47-.19.85-.14.81.04-.04.2-.48.59-1.61Z"/>
    <polygon class="cls-3" points="61.17 104.86 60.63 105.31 60.33 106.3 61.17 104.86"/>
    <path class="cls-3" d="m54.7,117.68l1.21-2.65c-.06.02.06-.33.23-.75-.71,1.65-1.53,3.43-1.43,3.4Z"/>
    <path class="cls-3" d="m56.14,114.28c.38-.85.79-1.64.97-2.13-.21.46-.7,1.43-.97,2.13Z"/>
    <path class="cls-3" d="m59.34,108.38l-.46.73-.91,1.84c.46-.86.86-1.74,1.37-2.57Z"/>
    <path class="cls-3" d="m46.71,147.83l-.26,3.17c.05.33.2-.52.29-1.7.02-.76.11-1.94-.03-1.46Z"/>
    <path class="cls-3" d="m48.98,138.5c-.23.83-.3.87-.48,1.33l.3.16.18-1.48Z"/>
    <path class="cls-3" d="m47.53,147.58c.05.33-.23,4.58.17.6-.07-.33.25-3.47-.17-.6Z"/>
    <polygon class="cls-3" points="50.92 194.76 50.68 193.99 50.21 194.25 50.92 194.76"/>
    <path class="cls-3" d="m70.78,231.33c-2.11-3.06-.8-.5-2.65-3.31-.63-.63,1.51,2.3.9,1.63,1.45,1.73,2.09,2.71,1.75,1.68Z"/>
    <path class="cls-3" d="m69.03,229.65c-.24-.27-.48-.56-.75-.87.42.5.62.73.75.87Z"/>
    <path class="cls-3" d="m160.61,44.83c-.82-.06-1.63-.03-2.44-.04l1.58.11c.29-.04.58-.05.86-.07Z"/>
    <path class="cls-3" d="m155.94,45.39l-.59-.31-1.44.37c.55-.04,1.61-.12,2.04-.06Z"/>
    <path class="cls-3" d="m201.06,269.41l-.14.14c.38-.04.9-.23,1.96-.59l-1.82.45Z"/>
    <polygon class="cls-3" points="229.57 254.49 229.12 254.82 230.14 254.44 229.57 254.49"/>
    <path class="cls-3" d="m249.08,235.8c-.7.86-1.52,1.86-2.28,2.67,1.6-1.79,2.75-2.66,2.28-2.67Z"/>
  </g>
  <g>
    <path class="cls-3" d="m319.57,160.93c.01,1.46.29.94.35,1.16-.13-2.45-.42-1.09-.35-1.16Z"/>
    <polygon class="cls-3" points="316.92 137.02 317.11 137.42 316.2 133.98 316.92 137.02"/>
    <path class="cls-3" d="m311.8,115.16c.1,2.18,2.42,7.77,3.04,11.75l.04.67.8,1.67c-.3-1.18-.62-2.45-.94-3.74-.34-1.29-.64-2.61-1.05-3.85-.78-2.5-1.45-4.84-1.88-6.5Z"/>
    <path class="cls-3" d="m308.75,103.5c.09.76-1.11-2.36.97,2.64-.08-.26-.1-.34-.14-.49-.18-.45-.42-1.08-.83-2.15Z"/>
    <path class="cls-3" d="m309.58,105.64c.89,2.21-.42-1.51,0,0h0Z"/>
    <path class="cls-3" d="m305.19,95.56l1.45,2.79c-.17-.64-1.29-3.2-.79-2.29-1.41-2.9-1.24-2.24-.66-.5Z"/>
    <path class="cls-3" d="m303.6,93.03c.27.47.54.94.77,1.43-.07-.28-.23-.68-.77-1.43Z"/>
    <path class="cls-3" d="m305.93,97.53l-1.56-3.07c.11.45-.01.56.7,1.42-.25-.19.16.36.86,1.66Z"/>
    <path class="cls-3" d="m306.67,99.34c.32.82.68,1.76.77,2.15.08.39-.01.19-.72-1.21,1.19,2.74,1.71,3.91,1.72,3.66,0-.12-.14-.58-.42-1.37-.29-.78-.69-1.89-1.34-3.24Z"/>
    <path class="cls-3" d="m310.94,114.24c.2.75.41,1.5.56,2.26l.71,1.89c-.18-.47-.45-1.56-.7-2.51-.26-.94-.53-1.73-.58-1.64Z"/>
    <path class="cls-3" d="m296.09,78.28c-.2-.11.33,1.04.34,1.3.46.62.87,1.27,1.29,1.92-.5-1.09-1.69-3.01-1.63-3.23Z"/>
    <path class="cls-3" d="m296.43,79.59l-2.02-2.82c1.65,2.61,2.03,3.04,2.02,2.82Z"/>
    <path class="cls-3" d="m302.86,92.78l.73,1.22.67,1.25,1.34,2.5c-1.05-2-2.06-4.01-3.24-5.94l.5.97Z"/>
    <path class="cls-3" d="m288.63,67.33c.46.47.9.97,1.35,1.45l-1.17-1.32-1.23-1.27,1.05,1.13Z"/>
    <path class="cls-3" d="m283.12,60.49c1.11.97-1.05-1.73.06-.65-1.6-1.78-3.05-3.23-4.4-4.48,1.38,1.38,2.7,3,4.34,5.13Z"/>
    <path class="cls-3" d="m276.48,53.29c.71.67,1.47,1.34,2.29,2.08-.75-.72-1.5-1.41-2.29-2.08Z"/>
    <path class="cls-3" d="m291.17,71.85c-.1-.25-.26-.77-1.33-2.4l.55,1.28c.24.34.51.72.79,1.11Z"/>
    <path class="cls-3" d="m290.41,70.79l-.02-.04c-.85-1.21-1.44-2.05-1.69-2.4.22.31.73,1.05,1.71,2.45Z"/>
    <path class="cls-3" d="m291.37,72.14c-.07-.1-.13-.18-.2-.28.05.12.09.19.2.28Z"/>
    <path class="cls-3" d="m298.85,84.68c-1.16-1.68-3.41-5.24-1.59-1.57.9,1.16-.14-.95,1.59,1.57Z"/>
    <path class="cls-3" d="m292.04,73.72c.69,1.01,1.29,2.07,1.94,3.11.03-.1-.23-.72.38.08-.78-1.06-1.51-2.15-2.32-3.18Z"/>
    <polygon class="cls-3" points="290.93 72.31 292.04 73.72 291.28 72.6 290.93 72.31"/>
    <path class="cls-3" d="m280.53,58.12c-.57-.56-1.14-1.16-1.73-1.81-.61-.63-1.26-1.29-1.94-1.99.69.79,1.44,1.55,2.12,2.37.69.81,1.38,1.61,2.05,2.4.26.16.98.74-.5-.96Z"/>
    <path class="cls-3" d="m285.47,64.17c-.07-.08-.16-.19-.23-.27.11.19.22.33.23.27Z"/>
    <path class="cls-3" d="m262.84,41.08c.07.08.13.16.2.24.03,0,.05,0,.09,0l-.29-.25Z"/>
    <path class="cls-3" d="m281.22,59.39c.99,1.23,1.66,1.89,2.32,2.52-.8-.87-1.63-1.81-2.51-2.82-.12-.07-.15-.07.19.3Z"/>
    <path class="cls-3" d="m272.61,49.53c.56.61,1.19,1.29,1.82,2.05-.47-.67-1.55-1.91-1.82-2.05Z"/>
    <path class="cls-3" d="m284.97,63.43c.05.06.1.11.16.18-.27-.45-.25-.38-.16-.18Z"/>
    <path class="cls-3" d="m284.97,63.43c-.54-.61-.99-1.07-1.44-1.53.62.74,1.19,1.42,1.7,2-.1-.17-.2-.34-.26-.47Z"/>
    <path class="cls-3" d="m257.1,38.95c.19-.02,1.13.55,2.36,1.43.61.44,1.3.95,1.97,1.53.66.59,1.33,1.23,1.96,1.86,2.77,2.13,1.66-.04-.35-2.45-.17.04-.19.05-3.15-2.04.97.83,5.92,5.42,3.45,3.62-1.83-1.53-2.6-2.13-3.09-2.59-.49-.46-.72-.76-1.59-1.54.67.75-.6-.1-1.97-.99-1.35-.92-2.91-1.75-2.63-1.26,1.18.73,2.29,1.57,3.43,2.38.01.11-1.25-.72-.39.05Z"/>
    <path class="cls-3" d="m268.23,45.88l1.1,1c-1.18-1.22-2.03-2.1-3.59-3.73-1.97-1.53-2.42-1.79-2.61-1.83,1.83,1.63,3.72,3.2,5.5,4.88l-.4-.32Z"/>
    <path class="cls-3" d="m274.15,51.55c-.99-.67-3.71-2.99-2.34-1.26,1.6,1.48,2.11,2.05,2.56,2.37.43.34.72.51,1.67,1.41-4.92-5.05,1.52,1.35-1.88-2.46.99.97,1.87,1.86,2.69,2.71-.84-.95-1.66-1.87-2.43-2.74.04.05.07.09.1.13l.02.02h0c.18.25.24.33.02.07-.02-.02-.08-.08-.11-.1-.06,0-.18-.07-.3-.15-1.37-1.53-.17-.29.3.15.03,0,.08.04.09.03l-.02-.02c-.82-.85-1.7-1.65-2.57-2.44l-2.62-2.38c1.04,1.08,2.46,2.32,4.81,4.66Z"/>
    <path class="cls-3" d="m294.78,80.22c-.09-.2-.07-.2-.06-.23-.28-.36-.39-.49.06.23Z"/>
    <path class="cls-3" d="m293.38,77.69c.31.41.64.7,1.51,2.12.7,1.26-.13.07-.17.19.62.79,2.03,2.86.5.12l-.3-.4c-1.44-2.43-3.1-5.71-2.79-5.32.22.85.46,1.57,1.25,3.3Z"/>
    <path class="cls-3" d="m284.27,64.04c-1.22-1.53-2.56-2.95-3.88-4.4l1.76,2.42.02-.21c2.08,2.6,1.74,1.96,2.1,2.19Z"/>
    <path class="cls-3" d="m262.43,40.52l.79.27c-.94-.65-1.96-1.2-2.94-1.8l2.14,1.53Z"/>
    <path class="cls-3" d="m256.38,35.8l.39-.05c-.57-.37-1.16-.7-1.74-1.05l1.35,1.1Z"/>
    <path class="cls-3" d="m29.43,240.63l.92,1.43c-.43-.68-.7-1.12-.92-1.43Z"/>
    <path class="cls-3" d="m23.59,229.82l-.26-.21c.33.47.48.66.26.21Z"/>
    <path class="cls-3" d="m79.19,28.1c-2.26,1.14-4.87,2.34-4.44,2.43l.82-.17c1.46-1,2.62-1.7,3.62-2.27Z"/>
    <path class="cls-3" d="m9.36,131.44c.07-.23.14-.47.22-.7.03-.61.07-1.19.1-1.7-.09.72-.25,1.53-.31,2.4Z"/>
    <path class="cls-3" d="m10.28,133.4l-.77,3.18c.2-.71.45-1.74.77-3.18Z"/>
    <path class="cls-3" d="m75.09,288.97c.59.3,1.18.6,1.8.86-2.56-1.72-1.51-.85-1.8-.86Z"/>
    <path class="cls-3" d="m184.5,6.22c-2.14-.39-3.86-.66-5.37-.87,2.59.5,4.65,1.03,5.37.87Z"/>
    <path class="cls-3" d="m24.21,237.98c.58.89.86,1.25.9,1.19-.59-.92-.95-1.43-.9-1.19Z"/>
    <path class="cls-3" d="m172.85,4.83c.38.05.76.1,1.14.16,1.59.09,3.2.11,5.13.37-1.91-.37-4.13-.55-6.28-.52Z"/>
    <path class="cls-3" d="m289.84,248.27c.11-.14.23-.31.33-.44,0-.07-.14.14-.33.44Z"/>
    <path class="cls-3" d="m317.8,183.02c-.08.71-.22,1.86-.35,2.95.09-.53.2-1.41.35-2.95Z"/>
    <path class="cls-3" d="m230.06,19.73c1.48.69.25.07,0,0h0Z"/>
    <path class="cls-3" d="m236.55,24.38c-.32-.13-.57-.21-.64-.16.15,0,.37.06.64.16Z"/>
    <path class="cls-3" d="m156.72,6.44s-.09,0-.14,0c.48.05.4.04.14,0Z"/>
    <path class="cls-3" d="m232.19,20.96c-.53-.31-1.14-.66-1.81-1.03.29.17.85.48,1.81,1.03Z"/>
    <path class="cls-3" d="m231.96,20.68c.49.27.88.48,1.25.67.21.05.06-.06-1.25-.67Z"/>
    <path class="cls-3" d="m227.99,18.81c.85.38,1.64.75,2.39,1.11-.28-.15-.4-.22-.31-.19-.44-.19-1.05-.47-2.07-.92Z"/>
    <path class="cls-3" d="m182.41,315.62c.11,0,.23,0,.34-.01,1.58-.33.88-.22-.34.01Z"/>
    <path class="cls-3" d="m48.91,57.06c.05-.06.07-.09.11-.14-.05.05-.12.12-.17.16l.06-.02Z"/>
    <path class="cls-3" d="m45.27,61.49c1.32-2.08,2.22-3.14,3.58-4.4-.64.26-1.31.51-1.94.8l-1.64,3.6Z"/>
    <path class="cls-3" d="m46.81,264.28l-2.42-3.21c3.49,3.37,5.68,6.07,3.5,3.01-.27.05-1.04-.65-2.07-1.74-1.02-1.09-2.34-2.52-3.52-4.07-1.21-1.52-2.42-3.04-3.4-4.17-.92-1.17-1.62-1.95-1.9-1.93l-1.37-2.27c.43.62.55.69.97,1.3-2.62-4.43-2.75-2.74-6.25-8.4-1.15-2.01-1.79-3.5-.93-2.19l-2.77-4.35c-.72-1.32-.4-1.07.32.23-1.31-2.27-2.46-4.63-3.69-6.94l.05.04c-.66-.93-1.87-3.17-2.48-4.26-.7-1.88.51.87.4.36-.66-1.3-1.36-2.58-1.98-3.89-.21-.88.06-.49.54.46.51.93,1.24,2.42,1.85,3.79-.4-2.05-.84-2.83-1.54-4.15-.63-1.34-1.58-3.21-2.88-7.4.49,1.28,1.06,2.52,1.59,3.78-.22-1.33-.73-2.7-1.21-4.33-.49-1.63-1.08-3.5-1.66-5.73.18,1.08,2.17,9.05.44,4.66-.35-1.29-.91-2.95-1.87-5.32.31-.12-.44-2.49-1.31-5.47l.49.09c-.54-1.59-.79-2.32-1.01-2.89-.23-.56-.43-.95-.75-1.9-.8-3.67-.65-4.49-.5-5.42-.98-5.91.18,4.18-1.15-2.79-.18-1.24-.36-2.38-.56-3.48-.16-1.11-.31-2.19-.47-3.31-.33-2.22-.8-4.56-1.11-7.53-.11-3.5.32.59.35-.67l-.59-3.07c-.05-.76.08-.52.14-.4-.28-2.6-.47-.19-.71-4.3-.24-.55-.18-2.67.02-5.28.12-1.31.24-2.73.3-4.15.07-1.42.04-2.83.03-4.11.22-1.24.23.62.43.25.08-3.49.12-4.99.15-6.33.06-1.34.11-2.53.23-5.41.3-1.61.59-3.21,1-4.8-.96,3.49-.55-1.09-.15-5.15-.38,1.23-.72,2.29-.91,3l.45-3.21c.14-1.07.39-2.13.58-3.19.25-.75.25-.08.19,1,.06-.44.12-.85.16-1.18.68-2.22.66-.99.53.67-.27.75-.53,1.49-.79,2.21-.02,1.62.02,3.14.33,2.86.02-.42.12-1.22.25-2.1,0,.42.02.7.09.52.1-.2.07-.89.22-1.93l.81-1.32-.11-.39,1.09-4.05c.35-1.35.84-2.67,1.25-4,.28-1.48.55-2.91.83-4.38.35-1.45.7-2.93,1.08-4.52.2-.79.41-1.61.63-2.47.24-.85.54-1.72.84-2.64.31-.92.64-1.88.99-2.9.36-1.01.72-2.09,1.22-3.18-.65,2.31.34.7.68.99-.75,1.09-1.34,2.86-2.05,4.87-.34,1.02-.73,2.09-1.09,3.22-.34,1.14-.71,2.3-1.13,3.47.87-2.43.88-1.82.74-1.18.75-2.84,1.79-5.59,2.71-8.38.13.16.36-.25.68-.96.33-.71.81-1.69,1.35-2.71-.68.65-.11-.89.79-3.02.23-.53.48-1.1.73-1.68.28-.57.57-1.14.85-1.71.56-1.13,1.08-2.2,1.44-3.03.31-.09.13.79-1.91,4.65,2.69-4.03,2.03-5.98,4.84-9.86-.53.93-.85,1.41-.95,1.84.53-1.13,1.6-3.01,2.46-4.42.87-1.41,1.62-2.32,1.31-1.67l-.57.9c.96-1.49,2.18-3.37,3.47-5.36,1.31-1.98,2.79-4,4.09-5.93,1.33-1.91,2.65-3.58,3.57-4.93.93-1.33,1.53-2.27,1.6-2.56.1,0-.06,1.16-.22,1.58,2.2-3.64,4.46-7.31,6.97-10.81-.4,1.16,3.42-1.1-.43,3.36.61-.59,1.29-1.24,2.1-2.09.82-.84,1.75-1.91,2.99-3.17-.89.73-2.59,1.48-1.49.34,1.77-1.29,2.36-1.76,3.04-2.31.34-.28.7-.58,1.24-1.02.54-.44,1.24-1.03,2.34-1.8-1.38,1.05-.46-.8,1.63-2.58-.24.37.68.45-.01,1.16l2.31-2.52c.78-.84,1.61-1.61,2.41-2.43-1.25,1.16.18.7,1.51-.06-.32.16.83-.75,2.24-1.84,1.43-1.06,3.17-2.22,3.88-2.79l-2.45,1.52c3.17-2.15,4.51-3.54,5.97-4.76.72-.63,1.43-1.26,2.38-1.99.95-.72,2.09-1.6,3.77-2.51-.72.6-1.46,1.99,1.94.15.33-.31.87-.81,1.57-1.45.71-.64,1.57-1.44,2.62-2.22,2.11-1.57,4.73-3.57,7.81-5.05l1.29-.33c1.55-.8,3.1-1.62,4.7-2.31-1.43.82-4.04,2.58-6.85,4.34-1.42.85-2.8,1.88-4.14,2.77-1.33.89-2.57,1.72-3.6,2.41,2.62-1.17.83-.13,4.64-2.11,1.44-.5-1.93,1.35-3.04,1.94,2.98-1.47,5.93-2.99,8.99-4.25-.3-.12,1.39-1.01,3.09-1.9,1.73-.82,3.49-1.6,3.24-1.72-3.34,1.4-6.52,3.15-9.75,4.75-.3-.12.98-1.06,3.17-2.34,1.1-.62,2.39-1.4,3.88-2.06,1.48-.67,3.11-1.35,4.77-1.98,1.75-.49-.96,1.28-.77,1.37.41-.22,1.92-.98,3.47-1.53,1.55-.57,3.07-1.09,3.4-1.14l-2.76,1.2c1.89-.55,3.36-1.21,4.95-1.87,1.59-.65,3.32-1.18,5.65-1.63.79-.19,1.99-.43,3.05-.54,1.05-.13,1.92-.25,2.03-.42-2.71.08-3.66-1.4-1.99-2.19.29-.05,2.44-.4,4.75-.79.58-.09,1.16-.19,1.74-.27.58-.06,1.14-.12,1.65-.17,1.03-.1,1.89-.17,2.37-.19,2.74-.06-3.82,1.7-1.49,1.64.07-.14,1.51-.56,2.12-.72,1.71-.2-.63.52,3.03-.2.55-.56,7.55-.92,1.69-.63,1.81-.3,2.78-.4,3.83-.49,1.05-.09,2.17-.22,4.32-.36-.7-.1.24-.43,1.82-.79,1.58-.34,3.79-.81,5.64-.87-.21.13.62.26,1.03.32,1.89-.03,3.55-.05,5.1-.07,1.55.04,2.98.13,4.4.19,1.41.08,2.81.11,4.29.21,1.48.12,3.04.25,4.79.4.64.15,3.99.58,2.54.65,1.01.03,1.94,0,4.09.26,4.1.93-4.79-.54-1.68.35.29-.21,5.6.23,8.65.7-.43-.27-2.17-.68-4.22-.88-2.04-.2-4.35-.37-5.89-.48.02-.29,1.38-.42,3.67-.4,1.14.03,2.52.04,4.06.19,1.54.17,3.25.38,5.08.64,2.91.42,3.5.75,3.51.83,0,.11-.58.09-.07.16,2.68.64,4.6,1.04,6.13,1.3,1.5.34,2.61.53,3.66.71,1.05.19,2.04.36,3.32.68,1.28.31,2.8.89,4.94,1.71,3.33,1.52-.09.76.59,1.27-2.28-.69-3.99-1.36-5.53-1.92-1.55-.52-2.92-1-4.48-1.44l3.78,1.26c-1.5-.3-4.58-1.07-6.22-1.65.71.29,2.18.75,4.1,1.33.96.28,2.04.6,3.2.94,1.14.39,2.36.81,3.61,1.24,1.25.44,2.56.85,3.85,1.33,1.28.51,2.56,1.03,3.81,1.53,1.24.52,2.48.96,3.59,1.51,1.12.54,2.17,1.05,3.12,1.51,1.42.5,3.84,1.46,2.79.82l-2.47-1.06c-2.13-1.29,4.78,1.7,1.74.18,1.71.61,3.44,1.44,5.36,2.29.96.44,1.95.91,2.98,1.43,1.01.57,2.05,1.18,3.13,1.85l.61.85c-.03-.16-2.75-1.88-4.06-2.47.97.44,2.59,1.54,4.25,2.61.83.54,1.67,1.05,2.44,1.5.75.47,1.45.85,2.01,1.04-.95-.72-1.88-1.47-2.88-2.13,1.64.8,3.4,1.82,5.29,2.85.93.54,1.91,1.06,2.83,1.68.92.62,1.85,1.28,2.75,1.96-1.44-1.53-.87-.58-3.23-2.83,2.02,2.01-9.77-6.27-6.32-3.32-1.27-1.08-2.49-1.84-3.81-2.66-1.33-.82-2.75-1.72-4.58-2.89.05.19,1.24.94-2.12-.86-.17-.04-.56-.18-.8-.27-.1-.06-.14-.08-.22-.13.07.04.11.07.18.11-.16-.06-.17-.06.07.04.78.47,1.4.87,1.63,1.07-.92-.27-2.7-1.15-4.53-1.95-1.85-.77-3.7-1.57-4.66-1.91-2.02-.99.92.24-.14-.4l-1.44-.51-1.46-.45c-.16-.4-5.38-2.68-.37-.9l-4.45-1.77c-1.28-.61-2.87-1.15-4.39-1.71-1.53-.53-3.02-1.06-4.19-1.32-2.16-.68-5.59-1.23-3.63-.93-1.22-.3-2.42-.64-3.64-.92l-3.68-.75-.05-.09c-3.59-.94-7.39-1.37-11.28-2.03-3.92-.42-7.94-1.04-12.16-1.56-1.25-.06-2.51-.12-3.99-.19-1.48-.01-3.16-.06-5.25-.15l-.81-.29c-1.6-.04-4.01,0-6.19,0-2.18.01-4.14.02-4.81.25-.87-.12-2.28-.11-4-.03-.86.04-1.79.1-2.77.17-.98.09-1.99.24-3.03.38-2.07.3-4.21.54-6.16.91-1.95.37-3.74.7-5.14.92l-.14.38-1.43.25-1.41.33c-.94.23-1.89.47-2.87.71-.98.25-1.98.51-3.03.78-1.04.3-2.12.66-3.27,1.02l.37.22c-1.95.71-4.55,1.3-7.36,2.22-1.42.44-2.91.9-4.43,1.37-1.51.52-3.03,1.12-4.56,1.72.37-.27,1.93-.86,3.05-1.22-1.88.55-3.78,1.24-5.67,1.99-1.86.81-3.69,1.74-5.5,2.63-1.83.86-3.54,1.9-5.26,2.8-1.71.91-3.4,1.72-4.98,2.53-1.48.98-2.61,1.59-3.72,2.14.14-.08.27-.16.37-.23-.16.09-.39.22-.63.36-.71.33-1.43.71-2.18,1.14.66-.34,1.3-.67,1.85-.95-1.18.69-2.88,1.88-4.55,3.03l-.91.19c-.14.09-.25.17-.39.26-1.75.97-1.26,1-.23.63-.84.58-1.54,1.21-2.09,1.68-.81.25-1.87,1.05-2.99,1.9-.56.42-1.13.86-1.7,1.23-.56.39-1.1.75-1.62.97-.45.53-2.42,2.15-4.34,3.77-1.84,1.71-3.62,3.43-3.84,4-.1-.01-.58.35.24-.37-1.78,1.39-3.43,2.92-4.78,4.44l-.99.35-1.58,1.9-1.5,1.98c-2.25,1.98-3.22,2.78-1.4.4-1.16,1.38-1.97,2.35-2.6,3.1-.61.77-1.04,1.31-1.46,1.83-.82,1.04-1.59,1.94-3.36,4.44l-.03-.41c-1.34,1.72-3.2,4.69-4.19,5.58-.84.89-2.1,2.59-3.7,4.76-.39.55-.82,1.11-1.24,1.72-.4.62-.82,1.26-1.25,1.93-.86,1.33-1.78,2.75-2.72,4.22-3.59,6.01-7.29,13.05-9.97,18.73.88-.94.17.34-.64,1.97-.77,1.65-1.71,3.64-1.5,3.99-.45.61-1.19,2.2-.6.25-.28.75-.54,1.46-.79,2.12-.23.67-.45,1.3-.66,1.91-.43,1.2-.81,2.28-1.17,3.29-.76,2.02-1.25,3.88-1.6,6.08-.39.65.1-1.4-.18-.8-.1.51-.4,2.01-.69,2.62-.29.6.1-.95.3-1.95-.44,1.58-.75,2.82-.95,3.79-.16.98-.23,1.7-.24,2.24-.02,1.07.2,1.41.41,1.7-.5,1.58-.84,2.78-1.06,3.88-.18,1.11-.26,2.12-.29,3.33-.38,1.1-.91,2.96-.26-1.05-.11.56-.33,1.7-.6,3.09-.13.7-.28,1.46-.43,2.24-.11.79-.22,1.61-.32,2.41-.41,3.21-.75,6.16-.49,6.3-.17.7-.27,3.18-.27,3.78-.11,1.27-.19,2.26-.26,3.1-.06.84-.06,1.53-.09,2.22-.03,1.38-.06,2.75-.12,5.26l.11-1.39c.44,1.99.11,4.17.28,8.21l-.06-.11c-.07,2.32.04,3.73.1,4.68.06.95.12,1.45.18,1.94.06.49.11.98.17,1.91.02.47.05,1.05.09,1.8.06.75.14,1.66.23,2.81l.27-.53c.41.38.56,2.4.73,4.98.26,2.57.62,5.7,1.22,8.29l-.16-1.92c.34,1.41.58,3.42.75,5.47.19,2.04.28,4.12.68,5.54.12.63-.39-.94-.64-1.8,1.65,7.51.68.85,2.33,6.31.08,1.08-.99-1.12.11,2.57.22.94,1.28,3.53,2.48,6.51.66,1.46,1.35,3.03,1.98,4.54.31.76.6,1.5.87,2.21.29.7.56,1.37.77,1.99-.31-1.13-.61-2.24.6.12,1.65,3.69,4.08,10.23,6.41,13.15.21.47.27.66.24.7.41.66.95,1.52,1.54,2.47.59.95,1.21,2,1.91,2.96,1.35,1.95,2.62,3.75,3.26,4.45.12.78.97,2.09,2.07,3.69,1.11,1.59,2.49,3.46,3.96,5.14,1.43,1.71,2.8,3.34,3.81,4.55,1.02,1.19,1.62,2.02,1.4,2.18,1.06,1.19,2.08,2.41,3.17,3.57l3.31,3.44-.25-.1c1.03,1.12,1.93,2.04,2.75,2.77.8.74,1.49,1.35,2.08,1.86,1.2,1.01,2.04,1.69,2.94,2.29,1.02.98.17.38.05.34,3.3,2.99,5.09,4.67,6.95,5.99,1.84,1.34,3.49,2.62,6.72,4.52l.43.73c1.67,1.1,10.35,7.76,18.35,11.41-.09,0-.29-.03-.93-.3,4.45,2.12,9.66,4.86,14.38,6.88,1.18.49,2.32.97,3.39,1.41.54.21,1.06.42,1.56.62.51.16,1,.32,1.47.47,1.87.57,3.37.92,4.32.91,2.07.64,4.2,1.04,6.3,1.56-8.03-2.38,1.35-.18-1.9-1.32,1.59.41,3.6,1.08,4.73,1.52,1.15.39,1.39.61-.57.12l-.59-.23c-1.64.37,10.05,2.68,9.76,2.97,8.1,1.62,16.22,2.53,24.23,3,2.01.07,4.01.15,6,.22,1.99.01,3.97-.05,5.95-.07.99-.03,1.97-.01,2.95-.07.98-.07,1.96-.13,2.94-.2,1.95-.16,3.9-.22,5.82-.48-.61-.1-1.21-.17-1.82-.31,1.79-.16,3.57-.42,5.35-.62,1.42-.06,1.94.15-1.89.62,1.02.02,2.62-.25,3.97-.53,1.35-.26,2.44-.68,2.48-.72,7.46-1.12-2.8,1.1-.53.71l3.09-.59-.71.07c1.23-.35,1.91-.54,2.82-.8.93-.22,2.11-.5,4.36-1.04,2.88-.56,1.54-.03,2.67-.27,0,.04.39-.03,1.73-.38,2.2-.56,4.38-1.2,6.57-1.8l-2.73.36c1.42-.51,2.96-.94,3.75-1.19.78-.29.83-.32-.74-.11,2.29-.34,8.36-2.23,14.01-4.57,1.44-.53,2.8-1.2,4.11-1.78,1.31-.59,2.54-1.15,3.64-1.65,2.18-1.04,3.79-1.91,4.45-2.17.91-.55,1.82-1.07,2.74-1.59.91-.55,1.83-1.11,2.78-1.68,1.9-1.14,3.95-2.24,6.1-3.66-1.12.62-2,.65,1.76-1.7-.21.41.12.37.8.04.67-.33,1.71-.91,2.81-1.68,1.12-.75,2.37-1.59,3.53-2.37.59-.38,1.16-.74,1.68-1.05.51-.33.98-.62,1.38-.83-1.4.82,1.07-1.16,3.35-3.02,1.16-.9,2.17-1.89,2.69-2.4.51-.53.48-.63-.57.07,2.85-2.37.4.12,2.67-1.56,6.4-6.08,14.3-13.31,20.9-22.08,0-.21-1.27,1.11.03-.84,1.38-1.36,2.61-2.85,3.91-4.29.6-.9.75-1.41,1.07-2.06.16-.33.37-.69.69-1.16.31-.48.73-1.07,1.35-1.85-.39.41-.96,1.03-.22-.21,6.1-8.79,11.06-18.64,14.97-28.89,3.93-10.26,6.82-20.9,9.11-31.57-.75,2.87-.43.93-.05-1.29-.31,1.43-.29-.08-.51.18.53-2.98,1.12-5.97,1.57-8.97-.17-.85.01-3.28.18-5.63.11-1.17.13-2.32.12-3.24,0-.92-.04-1.6-.15-1.84v2.88c-.21-1.92-.51-.59-.9,1.13-.44,1.72-.93,3.82-1.24,3.52.07,1.07,0,2.3-.15,3.64-.18,1.34-.49,2.8-.77,4.34-.32,1.54-.52,3.17-.86,4.83-.31,1.66-.55,3.38-.64,5.13-.4,1.48.02-1.33-.28-.55.02,1.79-.45,3.87-1.45,7.68l.03-.45c-.15.67-.3,1.32-.44,1.95-.16.63-.34,1.22-.5,1.81-.34,1.16-.65,2.26-.96,3.31-.58,2.12-1.28,4.01-1.98,5.95-.35.97-.71,1.95-1.07,2.96-.36,1.02-.84,2.03-1.28,3.12-.92,2.18-1.88,4.61-3.25,7.4l.68-.7c-1.14,2.41-1.46,2.88-2.05,3.98-.81,3,3.11-6.81,2.47-4.05-.52.74-1.26,2.18-2.11,3.96-.86,1.77-1.98,3.8-3,5.84-.26.51-.52,1.01-.78,1.51-.27.49-.56.96-.83,1.43-.55.92-1.08,1.79-1.54,2.58-.96,1.55-1.73,2.72-2.24,3.11-2.22,3.45.97-.81-1.24,2.64l-.76.8-.34,1.02c-.73,1.13-1.38,1.91-1.86,2.42-.47.51-.77.74-.87.73.39-.52,1.03-1.54,1.42-2.11-1.11,1.35-2.51,3.36-3.73,5.15-1.23,1.79-2.4,3.26-2.78,3.72.84-1.01,1.7-2,2.52-3.02-.82,1.13-1.71,2.26-2.6,3.42-.91,1.14-1.77,2.37-2.78,3.5-1.99,2.27-3.94,4.68-6.11,6.87-1.06,1.12-2.12,2.23-3.17,3.34-1.09,1.06-2.18,2.11-3.25,3.15-2.09,2.13-4.28,3.99-6.25,5.86l.72-.42c-.76.7-1.4,1.3-1.98,1.81-.6.48-1.1.89-1.55,1.25-.91.71-1.59,1.22-2.3,1.74-.72.51-1.42,1.07-2.46,1.78-1.03.71-2.34,1.63-4.17,2.98l.25-.22c-1.36,1.22-3.39,2.56-5.49,3.89,1.83-1.39-3.82,2.03-1.39.23-.91.65-1.68,1.14-2.31,1.53-.63.4-1.12.71-1.51.96-.78.5-1.16.76-1.45.99-.29.23-.5.4-.93.75-.44.34-1.09.87-2.36,1.65l-1.34.4c-.85.56-1.29.89-2.03,1.35-.74.45-1.75,1.07-3.82,2.01,3.3-1.74-2.81.84.87-1.15-2.23.85-4.12,1.67-5.79,2.44-1.69.73-3.16,1.36-4.48,1.93-2.63,1.21-4.75,1.97-6.94,2.27-1.95,1.04.02.47,2.21-.24,2.21-.66,4.53-1.72,3.42-1.17,1-.27.2.19-1.19.84-1.42.6-3.46,1.34-4.89,1.79-1.45.49-2.74.7-4.61.97-.93.15-2,.33-3.29.62-.65.14-1.35.31-2.12.5-.78.16-1.63.34-2.56.56.74-.17.78-.23,1.52-.4-1.41.23-2.76.61-4.19.99-.72.19-1.45.38-2.23.56-.78.14-1.6.25-2.48.34-1.86.77-4.48.78-4.95,1.42l6.89-1.36c-1.94.42-3.81.95-6.01,1.49-2.2.52-4.76.86-8.04,1.14.5-.18,2.42-.57,3.74-.82-1.92.05-3.65.63-5.65.6.13-.16.73-.25,1.61-.41.88-.16,2.05-.32,3.33-.49,1.28-.17,2.68-.34,4.02-.55,1.33-.26,2.59-.54,3.62-.83-1.03.05-2.98.55-4.45.8-1.47.24-2.42.37-1.4-.06-1.47.57-3.34.78-5.47,1.01-2.14.13-4.54.23-7.1.72l.32-.36c-.81.14-2.5.34-4,.36l2.7-.5c-4.17.46-8.05-.04-12.05-.03,4.19.11,4.66.2,4.52.32-.13.13-.88.32.9.39-1.3.11-2.36.08-3.26.07-.9-.02-1.62-.05-2.23-.09-1.23-.09-2.01-.23-2.82-.37-.82-.13-1.67-.35-3.03-.54-1.37-.21-3.25-.37-6.13-.6,1.56.12,5.85.66,3.39.64-1.1-.13-2.37-.23-3.53-.45-1.16-.21-2.2-.42-2.86-.59-7.61-.9,1.12.49-2.14.27-2.54-.69-3.75-.42-7.1-.86l.04-.33c-1.07-.22-1.91-.38-2.58-.49-.66-.14-1.15-.24-1.52-.3-.74-.12-1.02-.09-1.27-.06-.5.06-.89.14-4.71-.88l3.36.3c-1.34-.28-2.7-.51-4.03-.84.31-.05.61-.08.91-.15-2.19-.45-3.61-.82-5.01-1.21-1.4-.39-2.78-.81-4.83-1.59.89.55-.73.4-4.42-.84-2.42-1.09,1.48.26-3.66-1.7.62.13,1.26.26,2.02.5.38.12.78.27,1.23.46.45.17.94.38,1.48.64.27-.02,1.23.19,1.5.17-2.65-1.05-6.67-2.54-8.53-3.25.71.29,1.55.64,1.97.86-1.26-.42-2.53-.82-3.79-1.26l-3.73-1.43c-1.09-.63-.14-.31.8,0-1.47-.65-2.59-.9-4.72-1.95.67.03.64-.24,3.75,1.01-2.36-.9-4.63-2.01-6.93-3.06-.41-.32-3.29-2.08-2.37-1.71-1.77-1.12-4.08-2.27-6.5-3.55-1.19-.69-2.41-1.4-3.63-2.14-1.21-.75-2.43-1.48-3.52-2.36-.27-.12-.77-.42-1.76-1.07-1.05-.78-2.07-1.54-3.09-2.3-.98-.81-1.96-1.61-2.95-2.43-1.01-.81-2.05-1.63-3.13-2.49-1.06-.89-2.19-1.81-3.43-2.75-.77-.9-1.58-1.75-2.3-2.69-3.59-3.27,3.03,3.75-2.95-1.71-2.13-1.93-2.45-2.37-2.39-2.52.05-.15.45.01-.19-.76-1.07-.94-2.55-2.22-4.19-3.79-1.62-1.58-3.27-3.54-4.86-5.64,1.21,1.26,2.05,2.34,3.15,3.55Zm-30.39-51.29c.22.54.55,1.35.87,2.11.34.76.64,1.49.7,1.92-.42-.55-.69-1.08-.92-1.71-.22-.63-.38-1.38-.65-2.33Zm-4.45-90.09c-.13.86-.45,2.17-.93,3.62.23-1.08.49-2.3.93-3.62ZM213.46,13.25s-.08-.02-.13-.03c-2.47-.97-1.59-.62.13.03Zm5.11,2.02c.53.16.51.1.31-.03-.39-.06-1.54-.52-2.84-1.04.34.21.97.54,2.53,1.07Zm-18.84,299.4l-1.06.15c2.33-.64,1.69-.4,1.06-.15Z"/>
    <path class="cls-3" d="m10.18,133.14c-.11.31-.19.39-.27.46-.03.46.04.48.27-.46Z"/>
    <path class="cls-3" d="m74.76,288.8l.15.11c.09.04.15.06.18.06l-.33-.17Z"/>
    <path class="cls-3" d="m135.39,9.97c-1.1.15-1.72.2-2.14.21-.04.09.47.07,2.14-.21Z"/>
    <path class="cls-3" d="m244.92,27.69c-.99-.63-2.05-1.17-3.08-1.73,1.49.84,1.99,1.19,2.68,1.71-.02-.11-.53-.57.4.02Z"/>
    <path class="cls-3" d="m267.87,47.75c.4.32.78.74,1.18,1.06v-.21c-1.57-1.49-2.76-2.45-1.18-.85Z"/>
    <path class="cls-3" d="m247.07,30.39c.04.19.54.57,1.28,1.05.38.24.81.51,1.28.8.46.31.95.65,1.46.99-.12-.09-.23-.17-.35-.25.41.05.06-.28-.67-.8-.73-.51-1.88-1.14-3.01-1.79Z"/>
    <path class="cls-3" d="m251.57,33.56c.62.43,1.26.87,1.85,1.31.33.04-.73-.56-1.85-1.31Z"/>
    <path class="cls-3" d="m225.09,17.74c1.04.55.82-.03,1.37.35.67.11-1.16-.6-2.41-1.02-.62-.22-1.12-.33-1.07-.27.05.05.63.31,2.1.94Z"/>
    <polygon class="cls-3" points="248.23 32.24 247.68 31.48 246.38 30.97 248.23 32.24"/>
    <path class="cls-3" d="m231.66,22.37l3.43,1.87c-.03-.08.43.12.99.37-2.14-1.11-4.46-2.37-4.42-2.24Z"/>
    <path class="cls-3" d="m236.08,24.61c1.11.59,2.13,1.21,2.77,1.5-.6-.33-1.85-1.07-2.77-1.5Z"/>
    <path class="cls-3" d="m243.68,29.45c-.31-.23-.62-.46-.94-.68l-2.38-1.4c1.1.69,2.25,1.32,3.31,2.07Z"/>
    <path class="cls-3" d="m192.01,8.83l-4.22-.65c-.45.04.68.32,2.25.55,1.02.1,2.59.33,1.96.1Z"/>
    <path class="cls-3" d="m204.3,12.75c-1.08-.38-1.14-.48-1.73-.77l-.24.38,1.97.38Z"/>
    <path class="cls-3" d="m192.26,9.95c-.44.04-6.11-.74-.83.17.45-.07,4.63.66.83-.17Z"/>
    <polygon class="cls-3" points="128.73 10.06 129.78 9.81 129.48 9.15 128.73 10.06"/>
    <path class="cls-3" d="m77.87,33.24c4.29-2.54.75-1.03,4.68-3.24.9-.78-3.22,1.81-2.27,1.05-2.45,1.78-3.83,2.55-2.41,2.19Z"/>
    <path class="cls-3" d="m80.28,31.04c.39-.29.8-.6,1.24-.92-.71.51-1.04.76-1.24.92Z"/>
    <path class="cls-3" d="m319.33,171.12c.16-1.09.19-2.18.28-3.27l-.29,2.11c.02.39,0,.78.01,1.17Z"/>
    <path class="cls-3" d="m319.02,164.81l.47-.76-.36-1.97c0,.74,0,2.17-.11,2.73Z"/>
    <path class="cls-3" d="m14.61,204.24l-.17-.2c.02.51.22,1.23.61,2.68l-.44-2.48Z"/>
    <polygon class="cls-3" points="31.92 243.84 31.52 243.2 31.93 244.6 31.92 243.84"/>
    <path class="cls-3" d="m55.13,271.74c-1.08-1.01-2.35-2.21-3.36-3.31,2.25,2.32,3.31,3.94,3.36,3.31Z"/>
  </g>
  <g>
    <circle class="cls-4" cx="162.08" cy="162.08" r="46.05"/>
    <g>
      <path class="cls-2" d="m209.33,161.73c0,.44.21.28.25.35-.08-.74-.3-.33-.25-.35Z"/>
      <polygon class="cls-2" points="208.22 154.61 208.32 154.72 207.96 153.72 208.22 154.61"/>
      <path class="cls-2" d="m206.74,148.09c-.17.71.66,2.33.84,3.52l-.03.21.41.46c-.41-1.4-1.05-3.18-1.23-4.19Z"/>
      <path class="cls-2" d="m206.23,144.44c-.05.26-.38-.69.25.81-.01-.08-.01-.11-.02-.16-.05-.14-.12-.33-.23-.65Z"/>
      <path class="cls-2" d="m206.46,145.1c.26.67-.05-.48,0,0h0Z"/>
      <path class="cls-2" d="m205.1,142.09l.52.8c-.01-.21-.36-.98-.17-.72-.48-.85-.47-.63-.35-.08Z"/>
      <path class="cls-2" d="m204.48,141.39l.26.42c0-.09-.05-.21-.26-.42Z"/>
      <path class="cls-2" d="m205.29,142.69l-.55-.88c0,.15-.09.21.24.41-.13-.03.05.11.31.47Z"/>
      <path class="cls-2" d="m205.49,143.24c.17.5.35,1.16-.12.34.37.82.54,1.16.58,1.07.02-.08-.06-.61-.47-1.41Z"/>
      <path class="cls-2" d="m206.27,147.88c.05.23.1.45.11.69l.26.54c-.07-.14-.13-.47-.18-.75-.07-.28-.15-.52-.19-.48Z"/>
      <path class="cls-2" d="m202.46,136.83c-.1,0,0,.38-.05.49l.44.55c-.14-.33-.45-.94-.38-1.04Z"/>
      <path class="cls-2" d="m202.4,137.32l-.65-.82c.47.8.61.91.65.82Z"/>
      <polygon class="cls-2" points="204.05 141.42 205.03 142.83 203.91 141.13 204.05 141.42"/>
      <polygon class="cls-2" points="200.2 133.54 200.7 133.91 199.85 133.22 200.2 133.54"/>
      <path class="cls-2" d="m198.56,131.46c.41.23-.22-.61.16-.32-.51-.52-1.02-.9-1.47-1.23.44.39.85.87,1.31,1.55Z"/>
      <path class="cls-2" d="m196.51,129.34c.22.19.47.37.74.57-.24-.21-.48-.4-.74-.57Z"/>
      <path class="cls-2" d="m200.8,135.02c-.01-.09,0-.28-.31-.78l.07.45c.07.1.16.21.24.33Z"/>
      <path class="cls-2" d="m200.57,134.7v-.02c-.26-.36-.44-.61-.52-.71.07.09.22.31.52.73Z"/>
      <path class="cls-2" d="m200.87,135.1s-.04-.05-.06-.08c0,.04.01.07.06.08Z"/>
      <path class="cls-2" d="m202.98,138.94c-.42-.46-1.18-1.47-.71-.34.35.3.08-.35.71.34Z"/>
      <path class="cls-2" d="m200.95,135.66c.2.3.36.64.54.95.04-.05,0-.26.21-.04-.25-.3-.48-.63-.75-.91Z"/>
      <polygon class="cls-2" points="200.57 135.26 200.95 135.66 200.72 135.32 200.57 135.26"/>
      <path class="cls-2" d="m197.63,130.88c-.39-.29-.75-.67-1.15-1.1.39.49.81.99,1.23,1.45.11.02.38.14-.08-.35Z"/>
      <path class="cls-2" d="m199.1,132.7s-.05-.05-.07-.08c.02.06.05.11.07.08Z"/>
      <polygon class="cls-2" points="192.3 125.79 192.35 125.88 192.39 125.87 192.3 125.79"/>
      <path class="cls-2" d="m197.75,131.33c.29.38.52.55.75.71-.25-.25-.52-.52-.79-.81-.05,0-.07,0,.04.1Z"/>
      <path class="cls-2" d="m195.32,128.24c.16.19.33.41.5.66-.1-.24-.39-.65-.5-.66Z"/>
      <path class="cls-2" d="m198.98,132.46l.05.05c-.06-.15-.06-.12-.05-.05Z"/>
      <path class="cls-2" d="m198.98,132.46c-.17-.18-.33-.3-.48-.42.19.22.36.42.53.58-.02-.06-.04-.12-.05-.16Z"/>
      <path class="cls-2" d="m190.07,125.81c.17-.09,1.32.43,1.93,1.33.86.58.8-.36.35-1.26-.09.05-.11.07-1.05-.47.27.27,1.66,1.74.87,1.27-.55-.45-.78-.62-.91-.78-.13-.15-.18-.27-.42-.52.31.54-1.66-.8-1.63-.32l1.06.63c-.02.06-.43-.14-.19.11Z"/>
      <path class="cls-2" d="m193.87,127.29l.35.28c-.35-.37-.57-.67-.97-1.24-.62-.43-.78-.48-.86-.46l1.61,1.5-.13-.08Z"/>
      <path class="cls-2" d="m195.68,128.94c-.37-.13-1.25-.75-.92-.15.94.89.76.53,1.36,1.03-1.46-1.52.5.37-.44-.85.31.28.57.55.81.81-.24-.3-.46-.6-.67-.88,0,.02.02.03.02.05h0s0,0,0,0c.04.09.05.12,0,.03,0,0-.02-.02-.03-.03-.03.01-.08,0-.12-.01-.38-.49-.03-.11.12.01.01,0,.03,0,.04,0h0c-.49-.52-1.09-.92-1.62-1.38.3.33.75.68,1.46,1.37Z"/>
      <path class="cls-2" d="m201.29,137.89c-.02-.07,0-.07,0-.08-.09-.1-.13-.13,0,.08Z"/>
      <path class="cls-2" d="m200.96,137.09c.1.11.24.17.48.61.17.4-.09.05-.14.11.2.22.67.81.28-.04l-.1-.11c-.37-.76-.71-1.83-.61-1.72-.03.32-.03.58.09,1.16Z"/>
      <path class="cls-2" d="m198.46,132.89c-.36-.46-.79-.85-1.21-1.26l.45.78.06-.11c.6.79.55.55.7.59Z"/>
      <path class="cls-2" d="m192.22,125.57l.32-.02c-.31-.16-.67-.26-1.01-.38l.69.4Z"/>
      <polygon class="cls-2" points="190.36 124.21 190.55 124.1 189.99 123.83 190.36 124.21"/>
      <path class="cls-2" d="m123.52,184.91l.3.39c-.14-.19-.23-.31-.3-.39Z"/>
      <path class="cls-2" d="m121.84,181.77l-.13-.04c.12.13.19.17.13.04Z"/>
      <path class="cls-2" d="m137.22,121.9c-.74.24-1.63.44-1.43.58l.32.06c.43-.31.79-.5,1.11-.64Z"/>
      <path class="cls-2" d="m116.99,153.03c.03-.06.06-.13.1-.2-.03-.19-.06-.37-.08-.53,0,.22-.04.46-.02.73Z"/>
      <path class="cls-2" d="m117.79,153.71l-.28.92c.08-.2.17-.5.28-.92Z"/>
      <path class="cls-2" d="m136.86,198.88c.19.05.39.11.59.14-.74-.5-.47-.2-.59-.14Z"/>
      <path class="cls-2" d="m168.8,115.38c-.63-.18-1.15-.3-1.6-.38.77.24,1.37.52,1.6.38Z"/>
      <path class="cls-2" d="m120.77,184.82c.2.25.31.35.35.31-.2-.26-.33-.4-.35-.31Z"/>
      <path class="cls-2" d="m165.32,114.88c.12.02.23.05.34.07.48,0,.97-.04,1.54.06-.57-.18-1.24-.23-1.89-.12Z"/>
      <path class="cls-2" d="m199.23,187.14s.07-.08.11-.12c-.02-.03-.05.03-.11.12Z"/>
      <path class="cls-2" d="m208.62,168.34c-.02.21-.07.56-.12.88.04-.16.08-.42.12-.88Z"/>
      <path class="cls-2" d="m182.5,119.34c.45.2.08.01,0,0h0Z"/>
      <path class="cls-2" d="m184.23,121.13c-.1-.02-.19-.03-.22,0,.06-.03.14-.03.22,0Z"/>
      <path class="cls-2" d="m160.5,116.15s-.03,0-.04,0c.14.04.12.03.04,0Z"/>
      <path class="cls-2" d="m183.11,119.75c-.15-.1-.33-.22-.53-.33.08.06.25.16.53.33Z"/>
      <path class="cls-2" d="m183.07,119.61c.15.08.26.14.38.2.07,0,.03-.05-.38-.2Z"/>
      <path class="cls-2" d="m181.88,119.05c.25.12.48.24.7.36-.08-.05-.11-.08-.08-.08-.13-.06-.31-.14-.62-.29Z"/>
      <path class="cls-2" d="m168.03,207.03s.07,0,.1,0c.45-.16.25-.12-.1,0Z"/>
      <path class="cls-2" d="m129.1,131.48s.02-.03.03-.05c-.02.01-.04.03-.05.05h.02Z"/>
      <path class="cls-2" d="m128.1,132.82c.27-.7.57-.98.98-1.34h-.84s-.14,1.34-.14,1.34Z"/>
      <path class="cls-2" d="m128.6,191.77l-.64-.99c1.19.83,1.78,1.64,1.25.66-.29.15-1.12-.62-1.81-1.51-.69-.89-1.37-1.78-1.7-1.65l-.34-.7c.13.18.18.18.3.36-.63-1.37-1.06-.62-2-2.32-.31-.61-.46-1.06-.16-.7l-.93-1.2c-.21-.39-.06-.35.16.03-.4-.65-.71-1.35-1.07-2.02h.03c-.24-.24-.71-.84-.93-1.14-.17-.57.19.23.21.06-.23-.36-.48-.71-.69-1.09,0-.28.12-.18.28.08.19.25.43.67.61,1.07.05-.67-.1-.89-.36-1.25-.22-.37-.53-.91-.78-2.17l.49,1.09c.1-.86-.35-1.67-.58-3-.01.32.35,2.71-.28,1.48-.08-.38-.25-.86-.61-1.53.23-.08,0-.76-.24-1.63l.32-.02c-.33-.92-.47-.8-.75-1.33-.24-1.07-.06-1.33.12-1.63-.21-1.72-.21,1.26-.58-.76-.05-.73-.14-1.34-.28-1.98-.14-.64-.36-1.31-.46-2.18.06-1.03.2.16.28-.21l-.3-.88c0-.22.08-.15.12-.12-.14-.76-.32-.04-.47-1.25-.17-.16-.12-.78.02-1.54.16-.76.32-1.66.16-2.41.11-.36.19.19.32.08-.16-2.05-.14-1.76-.23-3.46l.42-1.39c-.4,1-.48-.37-.52-1.6-.17.35-.32.65-.4.86.04-.64.07-1.29.2-1.92.11-.21.17,0,.22.33,0-.13,0-.26.01-.36.29-.64.38-.25.43.26-.12.21-.24.42-.36.62.12.5.27.97.47.91-.02-.13-.01-.37,0-.63.03.13.07.22.11.17.05-.05-.02-.27,0-.58l.46-.34-.11-.13.83-2.31c.01-.45.03-.89.04-1.34.06-.44.12-.89.18-1.37.16-.96.33-2.07.82-3.4-.06.74.33.3.6.46-.6.58-.62,2.08-1.19,3.4.29-.7.37-.49.36-.3l.6-2.52c.21.15.35-.44.76-1-.68.26.53-1.87.85-2.89.18.02.22.33-.37,1.46.96-1.08.21-1.94,1.25-2.97-.16.27-.27.4-.26.55.25-.7,1.28-2.17,1.19-1.73l-.16.27c.28-.44.63-.99.98-1.58.38-.58.83-1.16,1.21-1.73.77-1.12,1.34-2.13,1.3-2.36.05.02.21.53.21.69.43-1.24.93-2.46,1.43-3.73.05.49,1.51.18.51,1.59.38-.31.78-.77,1.46-1.56-.29.18-.99.2-.68-.15,1.22-.56.81-.44,2.19-1.23-.43.28-.4-.52.22-1.05-.04.15.42.39.24.63.36-.59.73-1.18,1.16-1.71-.34.38.23.42.68.29-.23.04,1.37-1.01,1.76-1.38l-.75.4c1.82-1.29,1.36-1.93,3.31-3.1-.18.24-.2.96.8.44.16-.24.45-.89.98-1.52.53-.63,1.25-1.35,2.12-1.89l.42-.02c.44-.28.88-.58,1.35-.8-.39.34-1.07,1.08-1.81,1.79-.73.72-1.51,1.44-2.07,1.92.81-.26.3.07,1.42-.49.46-.05-.5.5-.83.67l2.64-1.16c-.13-.13.34-.44.81-.76.49-.27.99-.52.89-.64-.97.43-1.84,1.05-2.75,1.6-.13-.12.18-.54.76-1.03.3-.24.65-.54,1.08-.75.43-.21.9-.42,1.4-.58.55-.06-.16.7-.08.79.21-.2,1.77-.88,1.97-.87l-.76.47c.56-.14.96-.4,1.4-.66.44-.25.95-.41,1.66-.44.47-.1,1.48.07,1.51-.15-.84-.18-1.3-1.29-.84-1.71.09,0,.73-.07,1.43-.14.69-.09,1.46,0,1.75.03.84.18-1.05.89-.34,1.04.01-.09.42-.27.6-.34.51,0-.16.31.91.11.13-.37,2.2-.31.47-.36,1.05-.23,1.13-.16,2.39-.25-.43-.2,1.07-.81,2.17-.96-.06.09.19.19.31.24.56-.01,1.05-.02,1.51-.03.46.03.88.08,1.29.12.83.09,1.64.17,2.68.22.19.08,1.17.25.73.37.3-.02.58-.09,1.21,0,1.18.48-1.4-.17-.52.33.1-.19,1.65-.02,2.57-.01-.22-.34-2.07-.37-2.97-.39.04-.42,1.66-.62,3.88-.48.88.06,1.04.24,1.03.29,0,.07-.19.11-.04.12,1.58.44,2.29.44,2.95.45.65,0,1.25,0,2.48.64.93.63-.13.52.03.79-.68-.19-1.17-.43-1.61-.63-.45-.17-.85-.34-1.32-.46l1.11.42c-.46-.03-1.39-.19-1.86-.4.82.37,5.26,1.58,7.41,2.9.44.11,1.17.36.89.1l-.73-.31c-.57-.52,1.48.38.61-.15.52.16,1.07.32,1.67.54.3.11.6.23.92.37.3.17.6.37.91.59l.09.41c.02-.09-.75-.67-1.16-.81.61.21,1.77,1.56,2.57,1.57l-.8-.73c.99.45,2.38.8,3.38,1.74-.32-.62-.26-.16-.85-1.02.47.8-2.97-1.83-2.06-.73-.31-.43-.66-.69-1.04-.97-.38-.27-.79-.58-1.31-1-.01.11.32.37-.68-.17-.06,0-.19-.02-.27-.03-.03-.02-.04-.02-.07-.04l.05.04c-.05,0-.06,0,.02.01.23.16.4.3.45.39-.62-.04-2.23-.83-2.83-.98-.59-.34.3.02.01-.24-.3-.08-.6-.15-.91-.19,0-.24-1.55-.97,0-.54l-1.35-.5c-.75-.4-1.83-.88-2.55-1-.65-.22-1.73-.19-1.11-.21l-2.22-.43v-.06c-1.07-.34-2.23-.36-3.41-.5-1.18-.12-2.37-.37-3.63-.58-.75.02-1.53.05-2.77-.08l-.24-.21c-.96,0-2.9-.08-3.31.12-.27-.12-.7-.17-1.21-.18-.26,0-.54,0-.84.01-.29.03-.6.09-.91.14-1.24.21-2.55.49-3.4.58v.26c-1.16.19-2.22.6-3.6,1.04l.15.19c-1.17.41-3.08.81-4.92,1.5.09-.13.57-.28.92-.35-.6.08-1.18.25-1.75.47-.56.25-1.08.58-1.61.88-1.04.65-2.07,1.2-3.07,1.6-.41.35-.75.52-1.1.67.04-.03.08-.05.11-.08-.05.03-.12.07-.19.11-.22.09-.45.18-.69.28.22-.07.42-.14.59-.22-.35.22-.86.56-1.35.93l-.35-.07s-.07.05-.12.08c-.56.24-.35.34.03.33-.25.18-.43.41-.57.58-.61-.03-1.19,1.05-1.97,1.12-.1.2-.69.69-1.25,1.19-.52.55-1,1.12-.98,1.39-.05-.03-.2.07.04-.15-.53.41-1.06.83-1.42,1.32l-.42-.03-.4.64-.35.68c-.73.53-1.06.73-.64-.09-1.17,1.84-1.09,1.38-2.01,2.97l-.1-.2c-.39.53-.8,1.52-1.16,1.73-1.3.86-4.09,5.91-5.87,9.22.43-.21.16.15-.12.62-.26.48-.58,1.06-.4,1.21-.2.15-.46.62-.36,0-.51,1.85-1.27,2.63-1.18,4.04-.19.18-.09-.45-.22-.29-.01.16-.04.62-.17.8-.13.17-.04-.3-.02-.62-.47,1.92-.1,2.21.25,2.44-.21.45-.35.8-.41,1.13-.04.33-.01.65.07,1.02-.18.31-.4.86-.26-.35-.11.67-.84,4.09-.49,4.2-.09.2-.07.95-.04,1.13-.1,1.52-.13,1.65-.18,3.15l.07-.41c.33.59.08,1.24.19,2.44l-.04-.03c-.07,1.38-.02,1.68.02,1.97.02.15.04.29.05.57,0,.28,0,.69.03,1.38l.22-.18c.55.18.06,2.42.5,3.96,0-.2.03-.39.04-.59.28.81-.12,2.49.02,3.38,0,.2-.15-.27-.24-.53.28,2.31.38.21.88,1.84-.07.35-.54-.26-.23.85.09.59,1.61,2.98,1.96,4.53-.03-.37-.06-.72.37-.05.58,1.05.94,3.2,1.87,3.95.05.15.05.22.02.24.57.74,1.72,2.49,2.19,2.84-.19,1.19,3.71,4.38,3.2,4.76l1.95,2.08h-.11c.57.71,1.11,1.06,1.48,1.34.39.27.69.42.99.56.28.32,0,.17-.05.17,1.84,1.94,2.18,1.98,4.16,3.02l.04.34c.28.13.98.8,2,1.46.5.35,1.05.73,1.63,1.09.58.36,1.18.71,1.81.91-.04.01-.11.03-.31-.03.7.26,1.42.61,2.14,1,.73.37,1.42.84,2.14,1.12,1.4.62,2.63,1.09,3.28.84.62.18,1.28.21,1.92.32-2.39-.69.47-.28-.48-.68.95.19,2.36.89,1.19.64l-.17-.09c-.55.33,2.95.96,2.83,1.2,4.84.92,9.68,1.26,14.31.87-.19-.1-.38-.18-.57-.3.53-.04,1.06-.14,1.59-.2.43.02.6.2-.54.36.63.11,1.89-.46,1.9-.55,2.25-.19-.8.55-.12.46l.93-.17h-.22c.36-.14.56-.25.83-.35.27-.09.62-.19,1.29-.37.86-.15.49.11.82.04,0,.03.12,0,.52-.12l1.99-.48-.87-.07c.84-.35,1.84-.48.85-.54.73.06,2.51-.59,4.23-1.2,1.68-.71,3.22-1.57,3.64-1.66.26-.18.52-.35.8-.52.26-.18.53-.36.8-.55.55-.36,1.15-.71,1.81-1.1-.36.15-.72-.01.42-.66-.03.39.56.19,1.23-.26.67-.44,1.48-1.02,2.06-1.15-.48.16.26-.42.94-.98.68-.56,1.2-1.18.51-.84.85-.7.21.15.94-.3.45-.49.95-.98,1.48-1.46.26-.24.55-.48.82-.73.26-.27.53-.54.79-.81,1.06-1.11,2.29-2.18,3.19-3.57-.04-.09-.47.26-.16-.38l1.39-1.12c.33-.56-.01-.73.84-1.58-.15.1-.37.25-.17-.13,1.89-2.57,3.38-5.52,4.49-8.6.53-1.55,1.16-3.07,1.54-4.66.23-.79.47-1.57.73-2.35.27-.78.4-1.58.65-2.37-.3.85-.23.26-.13-.41-.11.43-.21-.04-.34.02.23-.88.52-1.75.71-2.65-.3-.52.13-2.92-.18-3.21v.86c-.3-1.14-.9,1.54-1.37,1.33.09.32.09.68.04,1.07-.07.39-.22.81-.35,1.26-.27.89-.53,1.86-.39,2.93-.16.42-.09-.41-.24-.19.15.55,0,1.16-.36,2.26l-.02-.14c-.4,1.57-.64,2.7-1.17,3.79-.24.55-.48,1.12-.75,1.75-.27.63-.54,1.35-1,2.13l.33-.14c-.37.69-.51.81-.72,1.11-.06.96.97-1.96.98-1.07-.45.37-1.04,1.61-1.63,2.8-.61,1.18-1.36,2.24-1.76,2.41-.62,1.02.42-.15-.21.87l-.29.19v.36c-.42.66-.86.84-.97.8.13-.14.29-.45.41-.62-.75.71-1.66,2.32-1.91,2.56l.76-.86c-.47.66-.94,1.39-1.51,2.06-.59.65-1.19,1.32-1.8,1.99-.3.33-.6.67-.89,1-.32.31-.64.61-.96.91-.62.6-1.22,1.2-1.75,1.79l.25-.08c-.4.46-.73.73-1,.93-.27.2-.48.34-.7.47-.44.27-.91.55-1.94,1.38l.06-.08c-.35.43-.94.83-1.57,1.2.5-.46-1.21.44-.54-.14-2.13,1.53-.99.85-2.31,2.05h-.45c-.46.42-.46.52-1.65,1.14.92-.62-.88.11.13-.61-.67.21-1.22.45-1.7.69-.49.22-.92.4-1.3.59-.76.36-1.37.64-2.06.58-1.04.93,2.36-.56,1.72-.21.63-.05-.86.73-1.71.98-.84.34-1.65-.19-3.8.39.22-.05.22-.09.43-.15-.42.04-.8.18-1.21.33-.21.07-.42.14-.64.2-.23.03-.47.05-.73.04-.51.39-1.31.18-1.42.6l2.02-.4c-1.12.28-2.15.9-4.09.97.14-.1.7-.29,1.08-.41-.57-.05-1.06.28-1.65.18.13-.35,2.46-.45,3.64-.91-.62-.08-2.27.64-1.72.12-.4.34-.95.4-1.57.47-.63,0-1.33-.01-2.07.23l.09-.24c-.23.05-.72.19-1.16.2l.78-.35c-1.21.32-2.34-.07-3.5-.03,1.21.07,1.35.13,1.31.22-.04.1-.26.22.26.28-3.04.23-1.73-.68-5.07-.74.45.02,1.69.24.97.32-.64-.05-1.47-.27-1.84-.46-2.2-.29.31.29-.65.3-.71-.4-1.1-.05-2.1-.11l.04-.24c-.63-.12-.98-.19-1.2-.22-.22-.02-.31.02-.39.07-.16.08-.29.17-1.39-.21l1.02-.08-1.18-.21.31-.2c-.65-.06-1.08-.13-1.49-.23-.41-.1-.81-.23-1.39-.5.23.26-.29.36-1.37-.03-.68-.4.49-.07-1.04-.59.4-.02.83-.06,1.41.39.09-.05.38-.02.48-.07-.72-.44-1.93-.75-2.48-.94.21.08.45.19.56.27-.38-.08-.77-.15-1.15-.25l-1.11-.35c-.29-.24,0-.18.29-.12-.43-.18-.77-.22-1.41-.5.25-.1.3-.3,1.21.04l-2.07-.76c-.1-.13-.9-.71-.61-.64-.96-.74-2.76-1.19-4.02-2.22-.09-.02-.24-.09-.54-.27-.6-.47-1.13-.96-1.71-1.43-.29-.24-.6-.46-.92-.71-.31-.26-.64-.52-1.02-.77l-.52-.95c-1.1-.89.73,1.26-1.11-.23-1.31-1.05-.26-.63-.6-1.11-.68-.48-1.92-1.32-2.74-2.64.39.33.62.66.96.99Zm-8.92-14.87c.16.3.54.88.49,1.16-.39-.26-.37-.59-.49-1.16Zm-1.62-26.31c.01.27-.12.64-.32,1.05.06-.32.16-.67.32-1.05Zm59.41-33.11s-.03,0-.04,0c-.72-.36-.46-.23.04,0Zm1.51.66c.17.03.17,0,.12-.07-.13.02-.48-.11-.87-.27.09.1.27.21.75.33Zm-5.65,89.54l-.32.02c.68-.25.5-.14.32-.02Z"/>
      <path class="cls-2" d="m117.7,153.63c-.05.09-.1.11-.15.12.02.14.07.15.15-.12Z"/>
      <path class="cls-2" d="m136.75,198.85l.04.03s.05,0,.07,0l-.11-.03Z"/>
      <path class="cls-2" d="m154.3,117.74c-.33.01-.51,0-.64-.03,0,.06.15.09.64.03Z"/>
      <path class="cls-2" d="m186.99,121.67l-.94-.5c.45.26.57.4.78.56,0-.06-.12-.24.16-.07Z"/>
      <path class="cls-2" d="m193.3,128.34c.13.08.24.21.37.29l.05-.11c-.48-.43-.87-.66-.42-.18Z"/>
      <path class="cls-2" d="m187.4,122.85c-.05.23.58.45,1.17.89l-.1-.08c.34-.11-.34-.5-1.07-.81Z"/>
      <path class="cls-2" d="m188.71,123.83c.19.13.37.26.54.4.14-.04-.21-.18-.54-.4Z"/>
      <path class="cls-2" d="m180.98,118.79c.3.2.3-.14.45.02.46-.08-2.25-.7-.45-.02Z"/>
      <polygon class="cls-2" points="187.53 123.72 187.45 123.38 186.99 123.33 187.53 123.72"/>
      <path class="cls-2" d="m182.67,120.73l1.01.56s.15,0,.32.06c-.64-.32-1.32-.7-1.33-.62Z"/>
      <path class="cls-2" d="m184,121.36c.33.17.62.37.82.44-.18-.1-.54-.33-.82-.44Z"/>
      <polygon class="cls-2" points="186.15 122.97 185.88 122.74 185.2 122.31 186.15 122.97"/>
      <path class="cls-2" d="m170.95,116.67l-1.26-.12c-.14.07.19.17.66.21.31-.01.78.02.6-.09Z"/>
      <path class="cls-2" d="m174.48,118.24c-.31-.13-.32-.19-.48-.32l-.12.29.6.03Z"/>
      <path class="cls-2" d="m170.94,117.44c-.14.07-1.82-.03-.27.19.14-.08,1.38.09.27-.19Z"/>
      <polygon class="cls-2" points="152.25 117.25 152.55 117.17 152.4 116.68 152.25 117.25"/>
      <path class="cls-2" d="m137.64,124.69c1.3-.65.13-.44,1.33-1,.23-.28-.98.45-.74.18-.69.56-1.12.74-.59.81Z"/>
      <path class="cls-2" d="m138.23,123.87c.11-.09.23-.19.34-.3-.2.16-.29.24-.34.3Z"/>
      <polygon class="cls-2" points="209.22 164.79 209.38 163.81 209.17 164.44 209.22 164.79"/>
      <path class="cls-2" d="m208.94,162.9l.34-.23-.27-.59c0,.22.01.65-.07.82Z"/>
      <path class="cls-2" d="m119.52,174.25l-.09-.05c-.05.16,0,.37.1.8v-.75Z"/>
      <polygon class="cls-2" points="124.4 185.75 124.29 185.56 124.26 186.06 124.4 185.75"/>
      <path class="cls-2" d="m131.26,193.68c-.32-.28-.7-.61-.98-.94.64.67.82,1.27.98.94Z"/>
    </g>
  </g>
  <circle class="cls-1" cx="162.08" cy="162.08" r="4.47"/>
</svg>