<?xml version="1.0" encoding="UTF-8"?>
<svg id="Layer_2" data-name="Layer 2" xmlns="http://www.w3.org/2000/svg" viewBox="0 0 2828.73 3003.23">
  <defs>
    <style>
      .cls-1 {
        fill: #fc28fb;
      }

      .cls-2 {
        fill: #fff;
      }

      .cls-3 {
        fill: #310047;
      }

      .cls-4 {
        fill: #cecece;
      }

      .cls-5 {
        fill: #892cdc;
      }

      .cls-6 {
        fill: #7a0bc0;
      }

      .cls-7 {
        fill: #757575;
      }

      .cls-8 {
        fill: #313333;
      }

      .cls-9 {
        opacity: .25;
      }

      .cls-10 {
        opacity: .5;
      }
    </style>
  </defs>
  <g id="Layer_1-2" data-name="Layer 1">
    <g>
      <rect class="cls-2" x="812.65" y="1428.75" width="1111.53" height="1044.51" rx="126.27" ry="126.27"/>
      <path d="m1797.91,2490.76h-858.98c-79.28,0-143.77-64.5-143.77-143.77v-791.96c0-79.28,64.5-143.77,143.77-143.77h858.98c79.28,0,143.77,64.5,143.77,143.77v791.96c0,79.28-64.5,143.77-143.77,143.77Zm-858.98-1044.51c-59.98,0-108.77,48.8-108.77,108.77v791.96c0,59.98,48.8,108.77,108.77,108.77h858.98c59.98,0,108.77-48.8,108.77-108.77v-791.96c0-59.98-48.8-108.77-108.77-108.77h-858.98Z"/>
    </g>
    <path d="m1992.35,860.28s-12.05,35.35-12.5,49.74c-.45,14.39-23.63-27.75-2.46-55.07l14.96,5.33Z"/>
    <g>
      <ellipse class="cls-2" cx="1193.58" cy="631.13" rx="553.18" ry="306.79" transform="translate(-118.94 314.51) rotate(-14.31)"/>
      <path d="m1038.7,975.98c-62.25,0-121.4-7-174.99-21.06-58.54-15.36-107.46-38.38-145.39-68.4-40.37-31.96-66.52-70.43-77.73-114.37-11.2-43.93-6.67-90.24,13.47-137.62,18.92-44.52,50.84-88.15,94.88-129.67,89.05-83.97,218.5-150.72,364.51-187.95,146.01-37.23,291.61-40.63,410-9.56,58.54,15.36,107.46,38.38,145.39,68.4,40.37,31.96,66.53,70.43,77.73,114.37h0c11.2,43.93,6.67,90.24-13.47,137.62-18.92,44.52-50.84,88.15-94.88,129.67-89.05,83.97-218.5,150.72-364.51,187.95-79.92,20.38-159.73,30.62-235.01,30.62Zm309.75-654.74c-72.32,0-149.18,9.89-226.36,29.57-140.35,35.79-264.34,99.54-349.14,179.5-82.09,77.41-117.05,160.22-98.44,233.18,18.61,72.96,88.96,128.92,198.09,157.56,112.74,29.59,252.12,26.17,392.47-9.62,140.35-35.79,264.34-99.54,349.14-179.5,82.09-77.41,117.05-160.22,98.44-233.18-18.61-72.96-88.96-128.92-198.09-157.56-50.75-13.32-106.91-19.95-166.11-19.95Z"/>
    </g>
    <path d="m1038.32,976.13c-62.25,0-121.4-7-174.99-21.07-58.54-15.36-107.46-38.38-145.39-68.4-40.37-31.96-66.52-70.43-77.73-114.37-11.2-43.93-6.67-90.24,13.47-137.62,18.92-44.52,50.84-88.15,94.88-129.67,89.05-83.97,218.5-150.72,364.51-187.95,146.01-37.23,291.61-40.63,410-9.56,58.54,15.36,107.46,38.38,145.39,68.4,40.37,31.96,66.52,70.43,77.73,114.37,11.2,43.93,6.67,90.24-13.47,137.62-18.92,44.52-50.84,88.15-94.88,129.67-89.05,83.97-218.5,150.72-364.51,187.95-79.92,20.38-159.73,30.62-235.01,30.62Zm309.75-654.74c-72.32,0-149.18,9.89-226.36,29.57-140.35,35.79-264.34,99.54-349.14,179.5-82.09,77.41-117.05,160.22-98.44,233.18,18.61,72.96,88.96,128.92,198.09,157.56,112.74,29.59,252.12,26.17,392.47-9.62,140.35-35.79,264.34-99.54,349.14-179.5,82.09-77.41,117.05-160.22,98.44-233.18-18.61-72.96-88.96-128.92-198.09-157.56-50.75-13.32-106.91-19.95-166.11-19.95Z"/>
    <g>
      <path class="cls-6" d="m680.89,1301.75h0c-49.47,12.62-99.8-17.26-112.42-66.73l-33.1-129.78c-12.62-49.47,17.26-99.8,66.73-112.42h0c49.47-12.62,99.8,17.26,112.42,66.73l33.1,129.78c12.62,49.47-17.26,99.8-66.73,112.42Z"/>
      <path d="m658.06,1322.13c-49.05,0-93.88-33.12-106.55-82.79l-33.1-129.78c-7.26-28.46-3-58.03,11.99-83.29,14.99-25.25,38.92-43.16,67.37-50.41,28.46-7.26,58.03-3,83.29,11.99,25.25,14.99,43.16,38.92,50.41,67.37l33.1,129.78c14.98,58.74-20.62,118.72-79.36,133.7h0c-9.08,2.31-18.19,3.42-27.15,3.42Zm18.51-37.34l4.32,16.96-4.32-16.96c40.04-10.21,64.31-51.09,54.1-91.14l-33.1-129.78c-10.21-40.04-51.09-64.31-91.14-54.1-40.04,10.21-64.31,51.09-54.1,91.14l33.1,129.78c10.21,40.04,51.1,64.31,91.14,54.1Z"/>
    </g>
    <g class="cls-10">
      <path class="cls-2" d="m631.1,1042.64s-113.91-2.54-62.63,192.38c0,0-101.81-215.87,56.58-245.09l6.04,52.7Z"/>
    </g>
    <path d="m658.06,1322.13c-49.05,0-93.88-33.12-106.55-82.79l-33.1-129.78c-7.26-28.46-3-58.03,11.99-83.29,14.99-25.25,38.92-43.16,67.37-50.41,28.46-7.26,58.03-3,83.29,11.99,25.25,14.99,43.16,38.92,50.41,67.37l33.1,129.78c14.98,58.74-20.62,118.72-79.36,133.7h0c-9.08,2.31-18.19,3.42-27.15,3.42Zm18.51-37.34l4.32,16.96-4.32-16.96c40.04-10.21,64.31-51.09,54.1-91.14l-33.1-129.78c-10.21-40.04-51.09-64.31-91.14-54.1-40.04,10.21-64.31,51.09-54.1,91.14l33.1,129.78c10.21,40.04,51.1,64.31,91.14,54.1Z"/>
    <g>
      <path class="cls-6" d="m1980.82,970.25h0c-49.47,12.62-99.8-17.26-112.42-66.73l-33.1-129.78c-12.62-49.47,17.26-99.8,66.73-112.42h0c49.47-12.62,99.8,17.26,112.42,66.73l33.1,129.78c12.62,49.47-17.26,99.8-66.73,112.42Z"/>
      <path d="m1957.99,990.63c-49.05,0-93.88-33.12-106.54-82.79l-33.1-129.78c-7.26-28.46-3-58.03,11.99-83.29,14.99-25.25,38.92-43.16,67.37-50.41,28.46-7.26,58.03-3,83.29,11.99,25.25,14.99,43.16,38.92,50.41,67.37l33.1,129.78c7.26,28.46,3,58.03-11.99,83.29-14.99,25.25-38.92,43.16-67.37,50.41-9.08,2.32-18.19,3.42-27.15,3.42Zm-33.12-314.68c-6.11,0-12.32.75-18.51,2.33-19.4,4.95-35.71,17.15-45.92,34.36-10.22,17.21-13.12,37.38-8.17,56.77l33.1,129.78c8.63,33.85,39.19,56.43,72.63,56.43,6.11,0,12.32-.75,18.51-2.33,19.4-4.95,35.71-17.15,45.92-34.36,10.22-17.21,13.12-37.38,8.17-56.77l-33.1-129.78c-8.63-33.85-39.19-56.43-72.63-56.43Z"/>
    </g>
    <g class="cls-10">
      <path class="cls-2" d="m1903.91,717.71s103.01-48.69,135.52,150.23c0,0,5.13-238.62-151.45-200.83l15.93,50.6Z"/>
    </g>
    <path d="m1957.99,990.63c-49.05,0-93.88-33.12-106.54-82.79l-33.1-129.78c-7.26-28.46-3-58.03,11.99-83.29,14.99-25.25,38.92-43.16,67.37-50.41,28.46-7.26,58.03-3,83.29,11.99,25.25,14.99,43.16,38.92,50.41,67.37l33.1,129.78c7.26,28.46,3,58.03-11.99,83.29-14.99,25.25-38.92,43.16-67.37,50.41-9.08,2.32-18.19,3.42-27.15,3.42Zm-33.12-314.68c-6.11,0-12.32.75-18.51,2.33-19.4,4.95-35.71,17.15-45.92,34.36-10.22,17.21-13.12,37.38-8.17,56.77l33.1,129.78c8.63,33.85,39.19,56.43,72.63,56.43,6.11,0,12.32-.75,18.51-2.33,19.4-4.95,35.71-17.15,45.92-34.36,10.22-17.21,13.12-37.38,8.17-56.77l-33.1-129.78c-8.63-33.85-39.19-56.43-72.63-56.43Z"/>
    <g>
      <path class="cls-2" d="m1948.97,843.32c42.87,172.7-8.34,316.67-43.43,411.3-45.29,122.13-95.04,256.31-245.6,327.81-48.44,23.01-99.45,35.74-201.45,61.19-112.44,28.06-184.78,46.12-260.63,41.91-86.77-4.81-148.57-37.1-218.11-89.25-130.09-97.55-271.52-203.6-327-402.77-11.05-39.65-123.19-469.86,198.89-667.02,107.57-65.85,265.84-107.09,292.9-113.98,35.3-8.99,178.35-45.43,300.93-39.91,383.21,17.24,496.2,441.28,503.5,470.71Z"/>
      <path d="m1219.78,1703.65c-7.62,0-15.24-.21-22.9-.63-93.2-5.17-158.4-40.8-227.64-92.72-65.98-49.48-134.21-100.64-193.86-165.43-68.31-74.2-113.94-154.88-139.51-246.65-6.27-22.53-37.02-141.92-26.07-280.52,6.4-80.9,25.8-153.99,57.68-217.25,39.53-78.44,98.41-141.99,175-188.88,104.31-63.85,254.25-104.94,297.72-116.01,149.49-38.07,248.94-43,306.04-40.44,90.89,4.09,174.38,30.86,248.17,79.56,59.36,39.18,112.58,92.6,158.17,158.78,79.59,115.52,110.14,232.66,113.36,245.64,19.57,78.83,22.11,158.01,7.78,242.08-11.6,68.05-31.95,126-51.79,179.52-45.71,123.27-97.52,262.98-254.5,337.54-50.03,23.76-101.72,36.66-204.72,62.37-101.8,25.41-172.44,43.04-242.94,43.04Zm200.1-1314.09c-57.07,0-145.58,7.97-271.03,39.92-42.27,10.77-187.96,50.66-288.09,111.95-129.77,79.44-202.46,206.96-216.06,379.03-10.49,132.72,18.89,246.84,24.89,268.37,53.89,193.44,189.5,295.13,320.64,393.47,64.15,48.1,124.17,81.1,208.58,85.78,73.22,4.05,145.7-14.03,255.42-41.42,100.74-25.14,151.31-37.76,198.18-60.02,144.13-68.45,191.19-195.36,236.7-318.09,31.9-86.03,85.3-230.02,42.86-401-3.06-12.34-32.13-123.79-108.21-234.21-97.28-141.19-224.82-216.29-379.09-223.23-7.49-.34-15.75-.54-24.79-.54Z"/>
    </g>
    <path d="m1219.78,1703.65c-7.62,0-15.24-.21-22.9-.63-93.2-5.17-158.4-40.8-227.64-92.72-65.98-49.48-134.21-100.64-193.86-165.43-68.31-74.2-113.94-154.88-139.51-246.65-6.27-22.53-37.02-141.92-26.07-280.52,6.4-80.9,25.8-153.99,57.68-217.25,39.53-78.44,98.41-141.99,175-188.88,104.31-63.85,254.25-104.94,297.72-116.01,149.49-38.07,248.94-43,306.04-40.44,90.89,4.09,174.38,30.86,248.17,79.56,59.36,39.18,112.58,92.6,158.17,158.78,79.59,115.52,110.14,232.66,113.36,245.64,19.57,78.83,22.11,158.01,7.78,242.08-11.6,68.05-31.95,126-51.79,179.52-45.71,123.27-97.52,262.98-254.5,337.54-50.03,23.76-101.72,36.66-204.72,62.37-101.8,25.41-172.44,43.04-242.94,43.04Zm200.1-1314.09c-57.07,0-145.58,7.97-271.03,39.92-42.27,10.77-187.96,50.66-288.09,111.95-129.77,79.44-202.46,206.96-216.06,379.03-10.49,132.72,18.89,246.84,24.89,268.37,53.89,193.44,189.5,295.13,320.64,393.47,64.15,48.1,124.17,81.1,208.58,85.78,73.22,4.05,145.7-14.03,255.42-41.42,100.74-25.14,151.31-37.76,198.18-60.02,144.13-68.45,191.19-195.36,236.7-318.09,31.9-86.03,85.3-230.02,42.86-401-3.06-12.34-32.13-123.79-108.21-234.21-97.28-141.19-224.82-216.29-379.09-223.23-7.49-.34-15.75-.54-24.79-.54Z"/>
    <g>
      <path class="cls-3" d="m1714.35,1362.31c-86.12,124.02-294.84,168.49-294.84,168.49-204.41,57.04-340.7-23.61-340.7-23.61-266.12-123.65-334.33-440.19-334.33-440.19-88.77-335.85,458.08-448.29,458.08-448.29,0,0,467.55-129.05,596.25,130.32,0,0,135.17,297.01-84.45,613.28Z"/>
      <path d="m1274.48,1568.71c-36.08,0-71.62-3.77-105.71-11.22-57.27-12.52-92.15-31.41-98.04-34.74-62.49-29.15-119.43-71.06-169.25-124.57-39.81-42.75-75.16-92.96-105.09-149.23-49.55-93.15-67.38-170.78-68.94-177.84-20.46-77.74-10.19-150.46,30.52-216.14,26.73-43.13,66.81-83.33,119.14-119.49,41.28-28.53,90.3-54.67,145.71-77.7,90.86-37.77,167.68-54.41,175.63-56.08,10-2.72,122.89-32.58,252.97-32.58.34,0,.66,0,1.01,0,79.4.09,148.48,11.48,205.32,33.85,72.65,28.59,125.38,75.12,156.73,138.29l.25.53c1.44,3.15,35.23,78.57,41.68,194.31,3.78,67.83-2.69,135.54-19.24,201.24-20.66,82.03-57.14,161.08-108.44,234.96-20.87,30.05-50.11,58.02-86.91,83.13-28.98,19.77-62.75,37.86-100.36,53.77-61.01,25.8-111.58,37.27-117.74,38.61-47.93,13.33-96.2,20.35-143.48,20.88-1.92.02-3.84.03-5.75.03Zm176.98-964.6c-128.5,0-243.11,31.16-244.26,31.48l-1.13.27c-.78.16-79.49,16.61-170.44,54.49-82.71,34.45-192.88,94.19-247.95,183.11-35.47,57.27-44.32,120.89-26.29,189.07l.19.79c.17.77,17.38,78.62,66.2,170.1,44.63,83.62,125.68,196.23,258.4,257.9l.79.37.75.44c.29.17,33.41,19.33,90.08,31.49,52.16,11.2,135.62,18.61,237-9.68l1.06-.26c.5-.11,51.79-11.23,112.57-37,55.08-23.36,129.56-63.9,171.54-124.36l14.37,9.98-14.37-9.98c110.21-158.71,126.94-312.06,121.57-412.77-5.68-106.54-36.56-178.49-38.58-183.08-50.18-100.77-161.16-152.03-329.88-152.38-.54,0-1.09,0-1.62,0Z"/>
    </g>
    <path d="m1274.48,1568.71c-36.08,0-71.62-3.77-105.71-11.22-57.27-12.52-92.15-31.41-98.04-34.74-62.49-29.15-119.43-71.06-169.25-124.57-39.81-42.75-75.16-92.96-105.09-149.23-49.55-93.15-67.38-170.78-68.94-177.84-20.46-77.74-10.19-150.46,30.52-216.14,26.73-43.13,66.81-83.33,119.14-119.49,41.28-28.53,90.3-54.67,145.71-77.7,90.86-37.77,167.68-54.41,175.63-56.08,10-2.72,122.89-32.58,252.97-32.58.34,0,.66,0,1.01,0,79.4.09,148.48,11.48,205.32,33.85,72.65,28.59,125.38,75.12,156.73,138.29l.25.53c1.44,3.15,35.23,78.57,41.68,194.31,3.78,67.83-2.69,135.54-19.24,201.24-20.66,82.03-57.14,161.08-108.44,234.96-20.87,30.05-50.11,58.02-86.91,83.13-28.98,19.77-62.75,37.86-100.36,53.77-61.01,25.8-111.58,37.27-117.74,38.61-47.93,13.33-96.2,20.35-143.48,20.88-1.92.02-3.84.03-5.75.03Zm176.98-964.6c-128.5,0-243.11,31.16-244.26,31.48l-1.13.27c-.78.16-79.49,16.61-170.44,54.49-82.71,34.45-192.88,94.19-247.95,183.11-35.47,57.27-44.32,120.89-26.29,189.07l.19.79c.17.77,17.38,78.62,66.2,170.1,44.63,83.62,125.68,196.23,258.4,257.9l.79.37.75.44c.29.17,33.41,19.33,90.08,31.49,52.16,11.2,135.62,18.61,237-9.68l1.06-.26c.5-.11,51.79-11.23,112.57-37,55.08-23.36,129.56-63.9,171.54-124.36l14.37,9.98-14.37-9.98c110.21-158.71,126.94-312.06,121.57-412.77-5.68-106.54-36.56-178.49-38.58-183.08-50.18-100.77-161.16-152.03-329.88-152.38-.54,0-1.09,0-1.62,0Z"/>
    <g class="cls-9">
      <path d="m645.75,1196.58s-84.05,23.56-102.48-60.38l27.12,105.34s31.25,79.52,122.14,56.4l-46.78-101.37Z"/>
    </g>
    <g class="cls-9">
      <path d="m2034.96,808.46s-12.77,59.82-77.54,75.26l7.84,89.12s112.08-24.94,69.7-164.38Z"/>
    </g>
    <g class="cls-9">
      <path d="m1546.27,592.76s268.02,618.09-322.23,955.86c0,0,272.01,27.93,465.05-155.49,193.04-183.42,149.91-454.85,149.91-454.85,0,0,30.77-309.46-292.73-345.51Z"/>
    </g>
    <g class="cls-9">
      <path d="m1444.62,372.87s184.48,96.87,186.52,240.73c0,0,191.65,50.12,193.51,219.3,1.87,169.18,1.86,273.76,1.86,273.76,0,0-77.62,246.3-150.53,299.4-72.92,53.1-53.23,41.01-53.23,41.01,0,0-73.14,139.55-192.57,203.61,0,0,267.39-52.12,344.68-159.18,77.29-107.07,159.17-319.64,159.17-319.64,0,0,82.63-279.73-58.6-499.09-141.23-219.36-233.43-248.6-233.43-248.6,0,0-143.87-50.86-197.37-51.31Z"/>
    </g>
    <g class="cls-9">
      <path d="m1504.31,371.46s-53.31-42.98-100.85-65.68c0,0,226.69,14.2,305.46,139.96l-44.26-9.99-160.35-64.29Z"/>
    </g>
    <g class="cls-10">
      <path class="cls-2" d="m1049.27,747.82s-334,102.47-203.68,389.43c0,0,4.6-211.45,203.68-389.43Z"/>
    </g>
    <g>
      <path class="cls-4" d="m1930.57,523.76C1781.85,193.41,1413.66,17.12,1065.12,107.83c-344.43,89.65-579.09,416.47-553.78,773.56,5.67-4.54,20.01-14.78,41.22-17.16,19.2-2.15,34.13,3.25,40.82,6.16-16.38-304.88,173.48-581.31,453.25-670.24,304.58-96.81,647.28,50.35,792.98,350.83,2.02-3.65,16.42-28.62,46.62-34.34,21.85-4.14,39.05,4.26,44.34,7.11Z"/>
      <path d="m496.25,915.92l-2.36-33.29c-6.35-89.62,3.09-178.79,28.06-265.02,24.26-83.76,62.41-162.32,113.4-233.49,50.97-71.13,113-132.43,184.37-182.18,73.41-51.17,154.49-88.54,241-111.05,87.51-22.78,177.53-29.57,267.57-20.21,87.49,9.1,172.29,33.13,252.07,71.43,79.82,38.32,151.72,89.53,213.71,152.22,63.86,64.58,115.16,139.35,152.47,222.23l21.19,47.08-45.45-24.48c-5.91-3.19-18.04-8.12-32.79-5.32-21.65,4.1-32.59,22.07-34.56,25.63l-16.34,29.49-14.71-30.34c-140.63-290.03-472.48-436.97-771.93-341.79-275.64,87.62-457.02,355.98-441.08,652.62l1.52,28.26-25.96-11.27c-7.01-3.04-18.24-6.35-31.9-4.82-14.87,1.66-25.73,8.22-32.23,13.42l-26.04,20.87ZM1253.11,101.17c-60.74,0-122.34,7.67-183.58,23.6-329.13,85.66-553.36,389.01-542.17,727.63,6.87-2.57,14.63-4.59,23.26-5.56,8.86-.99,17.07-.68,24.41.36-1.32-68.53,7.43-136.52,26.08-202.42,20.26-71.55,51.67-138.95,93.36-200.33,41.59-61.22,92.2-114.67,150.42-158.88,59.65-45.28,125.74-79.64,196.43-102.11,152.02-48.32,318.37-38.71,468.4,27.08,142.66,62.56,260.14,171.58,333.36,308.71,9.49-8.46,22.61-16.54,39.88-19.81,5.52-1.05,10.81-1.46,15.84-1.44-126.22-247.26-377.45-396.85-645.71-396.85Z"/>
    </g>
    <g>
      <path class="cls-5" d="m482.23,922.71c.08.88.23,1.78.38,2.68,10.86,62.17,21.69,124.31,32.56,186.48,18.33,105.06,36.69,210.11,55.02,315.15-137.45,26.54-270.8-63.65-298.17-201.96-20.25-102.31,23.16-202.37,102.69-258.76,28.27-20.11,61.15-34.66,97.32-41.82,3.41-.67,6.8-1.28,10.21-1.78Z"/>
      <path d="m521.68,1449.18c-53.66,0-106.14-16.01-151.68-46.83-60.13-40.71-101.03-102.46-115.16-173.89-20.94-105.81,22.13-214.32,109.73-276.43,31.15-22.17,66.17-37.21,104.05-44.71,4.1-.81,7.72-1.44,11.09-1.93l18.18-2.64,1.75,18.29c.03.28.13.9.22,1.43,5.43,31.06,10.84,62.1,16.26,93.15,5.42,31.08,10.85,62.15,16.28,93.24,9.12,52.24,18.24,104.48,27.36,156.71,9.22,52.82,18.45,105.63,27.66,158.44l2.95,16.93-16.88,3.26c-17.26,3.33-34.6,4.98-51.82,4.98Zm-53.72-505.94c-30.13,6.95-58.06,19.48-83.12,37.31-76.39,54.16-113.94,148.79-95.67,241.1,22.44,113.37,122.17,192.44,233.1,192.45,9.14,0,18.35-.54,27.61-1.63-8.19-46.96-16.4-93.92-24.6-140.89-9.12-52.23-18.24-104.47-27.36-156.71-5.43-31.08-10.85-62.16-16.28-93.24-4.56-26.13-9.12-52.26-13.68-78.39Z"/>
    </g>
    <g class="cls-10">
      <path class="cls-2" d="m294.62,1290.55s-37.96-276.85,196.77-314.88l-9.18-52.99s-281.58,71.23-187.59,367.87Z"/>
    </g>
    <path d="m521.68,1449.18c-53.66,0-106.14-16.01-151.68-46.83-60.13-40.71-101.03-102.46-115.16-173.89-20.94-105.81,22.13-214.32,109.73-276.43,31.15-22.17,66.17-37.21,104.05-44.71,4.1-.81,7.72-1.44,11.09-1.93l18.18-2.64,1.75,18.29c.03.28.13.9.22,1.43,5.43,31.06,10.84,62.1,16.26,93.15,5.42,31.08,10.85,62.15,16.28,93.24,9.12,52.24,18.24,104.48,27.36,156.71,9.22,52.82,18.45,105.63,27.66,158.44l2.95,16.93-16.88,3.26c-17.26,3.33-34.6,4.98-51.82,4.98Zm-53.72-505.94c-30.13,6.95-58.06,19.48-83.12,37.31-76.39,54.16-113.94,148.79-95.67,241.1,22.44,113.37,122.17,192.44,233.1,192.45,9.14,0,18.35-.54,27.61-1.63-8.19-46.96-16.4-93.92-24.6-140.89-9.12-52.23-18.24-104.47-27.36-156.71-5.43-31.08-10.85-62.16-16.28-93.24-4.56-26.13-9.12-52.26-13.68-78.39Z"/>
    <g>
      <path class="cls-4" d="m621.54,901.47l7.17,42.14,70.6,415.86,8.18,48.18c3.15,18.49-1.34,36.57-11.25,50.94-9.91,14.35-25.2,25-43.62,28.64-38.14,7.55-75.03-17.76-81.71-56.07-.25-1.39-.48-2.75-.73-4.15-18.33-105.03-36.69-210.09-55.02-315.15-10.86-62.17-21.69-124.32-32.56-186.48-.15-.9-.3-1.8-.38-2.68-1.74-12.74.12-25.16,4.85-36.27,8.86-20.86,27.78-36.97,51.75-41.2.79-.13,1.56-.28,2.35-.41,37.86-6.68,73.91,18.73,80.36,56.64Z"/>
      <path d="m638.96,1506.08c-17.34,0-34.25-5.21-48.89-15.26-19.42-13.33-32.35-33.45-36.4-56.65l-.72-4.12c-9.22-52.84-18.44-105.65-27.66-158.47-9.12-52.23-18.24-104.47-27.36-156.71-5.43-31.08-10.85-62.16-16.28-93.24-5.42-31.08-10.85-62.15-16.28-93.24l-.03-.17c-.16-.97-.36-2.16-.5-3.48-2.04-15.35.08-30.97,6.13-45.18,11.53-27.16,35.77-46.44,64.81-51.58l.29-.05c.29-.05.57-.1.86-.15.45-.08.89-.16,1.34-.23,22.88-4,45.93,1.16,64.92,14.54,19.04,13.41,31.68,33.45,35.59,56.42h0s7.17,42.14,7.17,42.14l70.6,415.87,8.18,48.18c3.82,22.41-1.19,45.07-14.09,63.8-12.94,18.73-32.33,31.47-54.64,35.88-5.69,1.13-11.4,1.68-17.06,1.68Zm-139.1-583.62c5.43,31.06,10.85,62.11,16.26,93.16,5.42,31.08,10.84,62.15,16.28,93.24,9.12,52.24,18.24,104.48,27.36,156.71,9.22,52.82,18.45,105.63,27.66,158.44l.72,4.12c2.42,13.88,10.13,25.88,21.72,33.83,11.59,7.96,25.57,10.83,39.36,8.1,13.32-2.64,24.9-10.24,32.62-21.42,7.69-11.16,10.67-24.69,8.4-38.06l-8.19-48.19-70.6-415.86-7.17-42.13h0c-2.33-13.71-9.88-25.67-21.24-33.68-11.36-8-25.14-11.08-38.82-8.66l-.28.05c-.28.05-.57.1-.85.15-.44.08-.89.16-1.34.23-17.28,3.09-31.7,14.6-38.57,30.79-3.63,8.51-4.88,17.87-3.62,27.06l.08.7c.03.28.13.9.21,1.42Z"/>
    </g>
    <path class="cls-2" d="m627.87,940.95c-10-34.79-44.81-56.56-79.82-50.52-36.08,6.22-61.89,40.15-58.06,77.27-18.62-62.54,15.46-116.27,48.37-122.45,32.76-6.15,83.67,31.17,89.51,95.7Z"/>
    <path d="m638.96,1506.08c-17.34,0-34.25-5.21-48.9-15.26-19.42-13.33-32.35-33.45-36.4-56.65l-.73-4.11c-9.22-52.84-18.44-105.65-27.66-158.47-9.12-52.23-18.24-104.47-27.36-156.71-5.39-30.84-10.77-61.68-16.15-92.52-5.46-31.32-10.93-62.64-16.4-93.96l-.03-.17c-.16-.97-.35-2.15-.49-3.46-2.04-15.36.08-30.97,6.13-45.19,11.53-27.16,35.77-46.44,64.81-51.58l.29-.05c.29-.05.57-.1.86-.15.45-.08.89-.16,1.34-.23,22.88-4,45.93,1.16,64.92,14.54,19.04,13.41,31.68,33.45,35.59,56.42h0s7.17,42.14,7.17,42.14l70.6,415.87,8.18,48.18c3.82,22.41-1.19,45.07-14.09,63.8-12.94,18.73-32.33,31.47-54.64,35.88-5.69,1.13-11.4,1.68-17.06,1.68Zm-139.1-583.62c5.47,31.3,10.93,62.59,16.39,93.89,5.38,30.84,10.76,61.67,16.15,92.51,9.12,52.24,18.24,104.48,27.36,156.71,9.22,52.82,18.45,105.63,27.66,158.44l.72,4.11c2.42,13.88,10.13,25.89,21.72,33.84,11.59,7.95,25.57,10.83,39.36,8.1,13.32-2.64,24.9-10.24,32.62-21.42,7.69-11.16,10.67-24.69,8.4-38.06l-8.19-48.19-70.6-415.86-7.17-42.13h0c-2.33-13.71-9.88-25.67-21.24-33.68-11.36-8-25.14-11.08-38.82-8.66l-.28.05c-.28.05-.57.1-.85.15-.44.08-.89.16-1.34.23-17.28,3.09-31.7,14.6-38.57,30.79-3.63,8.51-4.88,17.86-3.62,27.06l.08.69c.03.29.12.88.22,1.43Z"/>
    <g class="cls-9">
      <path d="m521.68,1149.22s-112.99,274.4-268.63,52.2c0,0,49.83,267.96,313.57,226.97l-44.94-279.16Z"/>
    </g>
    <g>
      <path class="cls-5" d="m1962.33,540.79c.31.83.58,1.7.84,2.58,17.65,60.59,35.32,121.15,52.97,181.74,29.85,102.38,59.68,204.78,89.52,307.13,135.08-36.76,215.02-176.49,178.63-312.71-26.92-100.76-109.99-171.44-206.23-187-34.24-5.59-70.17-4.16-105.79,5.36-3.35.9-6.67,1.84-9.95,2.9Z"/>
      <path d="m2093.68,1053.64l-4.81-16.5c-15.25-52.31-30.5-104.62-45.75-156.94-14.59-50.06-29.18-100.13-43.78-150.19-8.83-30.3-17.66-60.58-26.49-90.87-8.82-30.26-17.65-60.52-26.46-90.79-.15-.51-.34-1.11-.43-1.37l-6.49-17.19,17.49-5.65c3.23-1.04,6.77-2.08,10.81-3.16,37.3-9.97,75.36-11.89,113.13-5.72,105.98,17.14,192.47,95.55,220.31,199.76,18.8,70.35,9.3,143.81-26.72,206.85-36.04,63.05-94.36,108.25-164.22,127.26l-16.59,4.51Zm-109.49-500.7c7.42,25.47,14.85,50.93,22.27,76.4,8.83,30.29,17.66,60.58,26.49,90.87,14.6,50.06,29.19,100.13,43.78,150.19,13.59,46.62,27.17,93.23,40.76,139.84,115.5-40.63,182.2-165.33,149.91-286.19-24.29-90.91-99.7-159.3-192.11-174.25-30.38-4.96-60.97-3.9-91.09,3.14Z"/>
    </g>
    <g class="cls-10">
      <path class="cls-2" d="m2292.87,788.29s-87.95-265.24-315.42-195.92l-15.12-51.61s284.15-60.17,330.53,247.52Z"/>
    </g>
    <path d="m2093.68,1053.64l-4.81-16.5c-15.25-52.31-30.5-104.62-45.75-156.94-14.59-50.06-29.18-100.13-43.78-150.19-8.83-30.3-17.66-60.58-26.49-90.87-8.82-30.26-17.65-60.52-26.46-90.79-.15-.51-.34-1.11-.43-1.37l-6.49-17.19,17.49-5.65c3.23-1.04,6.77-2.08,10.81-3.16,37.3-9.97,75.36-11.89,113.13-5.72,105.98,17.14,192.47,95.55,220.31,199.76,18.8,70.35,9.3,143.81-26.72,206.85-36.04,63.05-94.36,108.25-164.22,127.26l-16.59,4.51Zm-109.49-500.7c7.42,25.47,14.85,50.93,22.27,76.4,8.83,30.29,17.66,60.58,26.49,90.87,14.6,50.06,29.19,100.13,43.78,150.19,13.59,46.62,27.17,93.23,40.76,139.84,115.5-40.63,182.2-165.33,149.91-286.19-24.29-90.91-99.7-159.3-192.11-174.25-30.38-4.96-60.97-3.9-91.09,3.14Z"/>
    <g>
      <path class="cls-4" d="m1827.92,583.13l12.14,40.99,119.93,404.4,13.89,46.85c5.32,17.98,17.32,32.23,32.55,40.77,15.22,8.51,33.64,11.33,51.78,6.48,37.56-10.03,59.52-49.01,48.64-86.34-.39-1.36-.78-2.69-1.17-4.04-29.84-102.36-59.67-204.75-89.52-307.13-17.65-60.59-35.32-121.15-52.97-181.74-.26-.87-.53-1.75-.84-2.58-4.05-12.2-11.2-22.53-20.34-30.42-17.15-14.82-41.23-20.94-64.62-14.17-.76.23-1.53.44-2.29.67-36.93,10.69-58.08,49.39-47.17,86.26Z"/>
      <path d="m2040.2,1142.51c-14.68,0-29.19-3.75-42.32-11.09-19.86-11.14-34.33-29.27-40.79-51.08l-13.89-46.85-119.93-404.4-12.14-40.99c-6.61-22.34-4.1-45.89,7.08-66.33,11.15-20.38,29.57-35.18,51.87-41.67.44-.13.88-.26,1.32-.39.28-.08.55-.16.83-.24l.27-.08c28.34-8.2,58.58-1.56,80.92,17.74,11.69,10.08,20.47,23.16,25.41,37.84.46,1.25.8,2.4,1.09,3.34l.05.16c8.83,30.29,17.66,60.58,26.49,90.87,8.83,30.29,17.66,60.58,26.49,90.87,14.6,50.06,29.19,100.13,43.78,150.19,15.25,52.32,30.49,104.63,45.74,156.94l1.18,4.08c6.58,22.57,3.85,46.33-7.71,66.86-11.56,20.53-30.46,35.18-53.22,41.26-7.44,1.99-15,2.97-22.52,2.97Zm-195.5-564.35l12.14,40.99,119.92,404.4,13.89,46.86c3.85,13.02,12.49,23.84,24.33,30.48,11.83,6.62,25.59,8.34,38.7,4.84,13.58-3.63,24.86-12.37,31.76-24.62,6.9-12.25,8.53-26.42,4.6-39.92l-1.18-4.08c-15.24-52.27-30.49-104.59-45.74-156.91-14.59-50.06-29.18-100.13-43.78-150.19-8.83-30.3-17.66-60.58-26.49-90.87-8.82-30.26-17.65-60.52-26.46-90.8-.15-.51-.34-1.11-.43-1.37l-.24-.67c-2.92-8.81-8.17-16.65-15.16-22.68-13.33-11.52-31.34-15.49-48.21-10.65-.42.13-.85.25-1.28.37-.28.08-.56.16-.84.25l-.28.08c-13.34,3.86-24.36,12.7-31.03,24.89-6.67,12.2-8.17,26.26-4.22,39.59h0Z"/>
    </g>
    <path class="cls-2" d="m1839.64,621.36c-6.35-35.64,15.29-70.52,49.38-80.53,35.13-10.32,73.25,8.76,86.17,43.77-10.85-64.34-65.12-97.55-97.39-88.59-32.11,8.92-61.36,64.86-38.17,125.35Z"/>
    <path d="m2040.2,1142.51c-14.68,0-29.19-3.75-42.32-11.09-19.86-11.14-34.33-29.27-40.79-51.08l-13.89-46.85-119.93-404.4-12.14-40.99c-6.61-22.34-4.1-45.89,7.08-66.33,11.15-20.38,29.57-35.18,51.87-41.67.44-.13.88-.26,1.32-.39.28-.08.55-.16.83-.24l.27-.08c28.34-8.2,58.59-1.57,80.92,17.74,11.69,10.08,20.47,23.16,25.41,37.84.46,1.25.8,2.4,1.09,3.34l.05.16c8.83,30.29,17.66,60.58,26.49,90.87,8.83,30.29,17.66,60.58,26.49,90.87,14.6,50.06,29.19,100.13,43.78,150.19,15.25,52.32,30.49,104.63,45.74,156.94l1.18,4.08c6.58,22.57,3.85,46.33-7.71,66.86-11.56,20.53-30.46,35.18-53.22,41.26-7.44,1.99-15,2.97-22.52,2.97Zm-195.5-564.35l12.14,40.99,119.92,404.4,13.89,46.86c3.85,13.02,12.49,23.84,24.33,30.48,11.83,6.62,25.59,8.34,38.7,4.84,13.58-3.63,24.86-12.37,31.76-24.62,6.9-12.25,8.53-26.42,4.6-39.92l-1.18-4.08c-15.24-52.27-30.49-104.59-45.73-156.91-14.59-50.06-29.18-100.13-43.78-150.19-8.83-30.3-17.66-60.58-26.49-90.87-8.82-30.26-17.65-60.52-26.46-90.8-.15-.51-.34-1.11-.43-1.37l-.24-.67c-2.92-8.81-8.17-16.65-15.16-22.68-13.33-11.52-31.34-15.49-48.22-10.65-.42.13-.85.25-1.28.37-.28.08-.56.16-.84.24l-.28.08c-13.34,3.86-24.36,12.7-31.03,24.89-6.67,12.2-8.17,26.26-4.22,39.59h0Z"/>
    <g class="cls-9">
      <path d="m2283.75,687.08s-48.62,220.39-244.16,121.28c9.7,32.45,22.4,73.98,37.92,122.18,23.32,72.46,30.32,89.56,45.28,93.87,38.9,11.21,94.21-74.74,101.49-86.06,24.88-38.66,66.28-119.83,59.46-251.26Z"/>
    </g>
    <g class="cls-9">
      <path d="m663.76,1150.05s-40.12,135.09-138.71,20.06c0,0,14.05,335,130.11,317.61,116.07-17.39,8.6-337.66,8.6-337.66Z"/>
    </g>
    <g class="cls-9">
      <path d="m2035.16,805.27s-25.28,138.64-135.73,34.94c0,0,50.19,331.51,163.7,301.67,113.51-29.84-27.97-336.61-27.97-336.61Z"/>
    </g>
    <g>
      <path class="cls-5" d="m814.17,418.16c77.18-76.76,279.12-234.44,579.22-158.7,31.38,7.92,63.55-9.73,73.75-40.45,9.48-28.58,18.97-57.16,28.45-85.74,10.78-32.5-6.9-67.59-39.46-78.2-88.29-28.76-246.66-62-431.24-10.86-189.19,52.42-309.8,166.85-371.37,239.81-23.16,27.44-18.08,68.79,11,89.85l69.78,50.56c24.56,17.8,58.37,15.11,79.88-6.28Z"/>
      <path d="m770.56,453.78c-16.21,0-32.5-4.99-46.54-15.16l-69.78-50.56c-17.8-12.9-29.53-32.81-32.2-54.62-2.66-21.79,3.94-43.91,18.09-60.69,41.41-49.07,88.85-92.99,140.98-130.52,72.83-52.44,153.27-91.09,239.1-114.86,181.93-50.41,340.42-21.79,441.33,11.09,20.19,6.58,36.59,20.64,46.17,39.61,9.59,18.98,11.18,40.55,4.48,60.74l-28.45,85.74c-6.33,19.06-19.51,34.88-37.12,44.54-17.61,9.66-38.04,12.27-57.52,7.36-293.43-74.06-491.19,83.13-562.6,154.14l-12.34-12.41,12.34,12.41c-15.43,15.35-35.63,23.21-55.95,23.21ZM1221.04,35c-59.12,0-123.59,7.27-191.48,26.08-177.98,49.31-295.46,154.59-362.67,234.23-8.02,9.5-11.6,21.53-10.1,33.88,1.51,12.37,7.9,23.21,17.99,30.52l69.78,50.56c17.67,12.81,41.76,10.91,57.27-4.51h0c42.23-42,113.26-100.44,211.79-140.35,120.96-48.99,250.18-56.7,384.06-22.91,22.37,5.64,45.58-7.09,52.85-28.99l28.45-85.74c3.74-11.28,2.85-23.33-2.5-33.94-5.35-10.59-14.5-18.44-25.77-22.11-58.65-19.11-137.67-36.71-229.66-36.71Z"/>
    </g>
    <g class="cls-10">
      <path class="cls-2" d="m721.25,408.31c4.85,2.18-69.1-48.74-33.14-94.4,35.96-45.66,316.95-349.96,738.63-215.41,0,0,71.72,19.17,46.71,97.89l22.8-100.19s-2.29-32.21-57.24-46.46c-54.94-14.25-372.27-107.25-641.73,102.46l-144.06,132.27s-59.74,66.38,68.03,123.86Z"/>
    </g>
    <path d="m770.56,453.78c-16.21,0-32.5-4.99-46.54-15.16l-69.78-50.56c-17.8-12.9-29.53-32.81-32.2-54.62-2.66-21.79,3.94-43.91,18.09-60.69,41.41-49.07,88.85-92.99,140.98-130.52,72.83-52.44,153.27-91.09,239.1-114.86,181.93-50.41,340.42-21.79,441.33,11.09,20.19,6.58,36.59,20.64,46.17,39.61,9.59,18.98,11.18,40.55,4.48,60.74l-28.45,85.74c-6.33,19.06-19.51,34.88-37.12,44.54-17.61,9.66-38.04,12.27-57.52,7.36-293.43-74.06-491.19,83.13-562.6,154.14l-12.34-12.41,12.34,12.41c-15.43,15.35-35.63,23.21-55.95,23.21ZM1221.04,35c-59.12,0-123.59,7.27-191.48,26.08-177.98,49.31-295.46,154.59-362.67,234.23-8.02,9.5-11.6,21.53-10.1,33.88,1.51,12.37,7.9,23.21,17.99,30.52l69.78,50.56c17.67,12.81,41.76,10.91,57.27-4.51h0c42.23-42,113.26-100.44,211.79-140.35,120.96-48.99,250.18-56.7,384.06-22.91,22.37,5.64,45.58-7.09,52.85-28.99l28.45-85.74c3.74-11.28,2.85-23.33-2.5-33.94-5.35-10.59-14.5-18.44-25.77-22.11-58.65-19.11-137.67-36.71-229.66-36.71Z"/>
    <g class="cls-9">
      <path d="m667.26,372.61s66.77,29.96,152.39-57.01c85.62-86.97,350.28-196.24,557.04-137.64,0,0,84.9,21.7,113.81-29.37l-30.21,84.64s-10.25,34.7-81.35,22.74c-71.11-11.96-302.62-65.54-559.77,157.28,0,0-54.69,76-151.91-40.64Z"/>
    </g>
    <g class="cls-9">
      <path d="m552.57,864.24s-28.87-238.03,141.55-463.08l34.74,25.4s-158.27,216.01-135.47,443.84l-41.28-5.4.46-.76Z"/>
    </g>
    <g class="cls-9">
      <path d="m1483.47,168.18c40.52,15.03,85.64,35.86,132.14,65.1,142.63,89.7,221.54,210.35,261.35,285.01-12.39,10.8-24.77,21.61-37.16,32.41-24.72-48.28-62.64-109.46-120.2-170.48-93.45-99.06-194.43-150.79-258.09-177.09,7.32-11.65,14.64-23.3,21.96-34.96Z"/>
    </g>
    <g>
      <path class="cls-4" d="m307.65,2220.5h2128.94c17.97,0,34.72,9.12,44.47,24.22l321.65,497.93c8.87,13.73,10.9,30.8,5.5,46.23l-56.54,161.42c-7.44,21.23-27.47,35.44-49.97,35.44H129.3c-22.88,0-43.17-14.7-50.31-36.44l-58.83-179.32c-4.32-13.18-3.3-27.52,2.84-39.95l237.17-480.02c8.92-18.06,27.32-29.49,47.47-29.49Z"/>
      <path d="m2701.7,3003.23H129.3c-30.52,0-57.42-19.48-66.93-48.49l-58.83-179.32c-5.79-17.64-4.44-36.52,3.78-53.16l237.17-480.02c11.96-24.2,36.16-39.24,63.15-39.24h2128.94c24.02,0,46.14,12.05,59.17,32.22l321.65,497.93c11.89,18.41,14.56,40.83,7.31,61.51l-56.54,161.42c-9.88,28.21-36.6,47.16-66.48,47.16ZM307.65,2238c-13.58,0-25.76,7.57-31.78,19.74l-237.17,480.02c-4.14,8.37-4.81,17.87-1.9,26.75l58.83,179.32c4.79,14.59,18.32,24.4,33.68,24.4h2572.4c15.04,0,28.48-9.53,33.45-23.73l56.54-161.42c3.64-10.41,2.3-21.69-3.68-30.95l-321.65-497.93c-6.56-10.15-17.69-16.21-29.77-16.21H307.65Z"/>
    </g>
    <path class="cls-2" d="m2165.95,2770.04l-2088.13,17.51,46.26,143.79s6.25,35.01,70.02,33.76c0,0-91.28,62.52-122.54-35.64-31.26-98.15-53.74-171.18-53.74-171.18l2148.13,11.76Z"/>
    <polygon class="cls-2" points="958.54 2271.87 1815.36 2265.51 1858.98 2219.87 883.92 2220.5 958.54 2271.87"/>
    <path d="m2701.7,3002.6H129.3c-30.52,0-57.42-19.48-66.93-48.49l-58.83-179.32c-5.79-17.64-4.44-36.52,3.78-53.16l237.17-480.02c11.96-24.2,36.16-39.24,63.15-39.24h2128.94c24.02,0,46.14,12.05,59.17,32.22l321.65,497.93c11.89,18.41,14.56,40.83,7.31,61.51l-56.54,161.42c-9.88,28.21-36.6,47.16-66.48,47.16ZM307.65,2237.37c-13.58,0-25.76,7.57-31.78,19.74l-237.17,480.02c-4.14,8.37-4.81,17.87-1.9,26.75l58.83,179.32c4.79,14.59,18.32,24.4,33.68,24.4h2572.4c15.04,0,28.48-9.53,33.45-23.73l56.54-161.42c3.64-10.41,2.3-21.69-3.68-30.95l-321.65-497.93c-6.56-10.15-17.69-16.21-29.77-16.21H307.65Z"/>
    <rect x="14.05" y="2732.53" width="2803.35" height="35"/>
    <path d="m1597.63,2636.8c-8.29,0-15.66-5.92-17.2-14.37l-57.03-313.66c-1.73-9.51,4.58-18.62,14.09-20.35,9.51-1.73,18.62,4.58,20.35,14.09l57.03,313.66c1.73,9.51-4.58,18.62-14.09,20.35-1.06.19-2.11.29-3.15.29Z"/>
    <path d="m1404.85,2635.33c-9.47,0-17.25-7.55-17.49-17.07l-7.65-312.45c-.24-9.66,7.4-17.69,17.07-17.92,9.68-.22,17.69,7.4,17.92,17.07l7.65,312.45c.24,9.66-7.4,17.69-17.07,17.92-.15,0-.29,0-.44,0Z"/>
    <path d="m1226.98,2636.79c-.42,0-.83-.01-1.25-.04-9.64-.68-16.9-9.05-16.22-18.69l22.18-313.66c.68-9.64,9.04-16.92,18.69-16.22,9.64.68,16.9,9.05,16.22,18.69l-22.18,313.66c-.65,9.22-8.34,16.27-17.44,16.27Z"/>
    <circle cx="161.1" cy="2834.74" r="33.27" transform="translate(-1957.28 944.19) rotate(-45)"/>
    <circle cx="287.39" cy="2834.74" r="33.27" transform="translate(-455.04 83.9) rotate(-9.31)"/>
    <g class="cls-9">
      <path class="cls-7" d="m1303.46,2405.96v28.79c0,8.26-4.98,15.72-12.63,18.83-11.81,4.8-28.4,9.58-48.53,9.88-21.91.33-39.91-4.79-52.39-9.84-7.69-3.12-12.72-10.58-12.72-18.87v-30.51c3.04,15.2,30.16,27.1,63.16,27.1s58.13-11.03,62.74-25.42c.07-.21.36-.16.36.06Z"/>
      <path d="m1240.29,2470.97c-18.24,0-36.12-3.5-53.2-10.41-10.57-4.28-17.4-14.42-17.4-25.82v-30.51l14.85-1.47c2.03,10.17,24.94,21.07,55.81,21.07s52.48-10.49,55.6-20.21c1.17-3.64,4.75-5.84,8.51-5.25,3.76.59,6.49,3.79,6.49,7.6v28.79c0,11.39-6.79,21.51-17.31,25.78-16.4,6.66-33.64,10.17-51.24,10.43-.71.01-1.42.02-2.12.02Zm-55.6-45.94v9.71c0,5.26,3.15,9.94,8.03,11.92,15.86,6.42,32.51,9.53,49.46,9.3,15.73-.23,31.15-3.37,45.82-9.33,4.83-1.96,7.95-6.62,7.95-11.88v-9.61c-12.92,8.49-32.9,13.69-55.6,13.69s-42.76-5.27-55.66-13.8Z"/>
    </g>
    <g>
      <path class="cls-7" d="m1303.46,2395.96v28.79c0,8.26-4.98,15.72-12.63,18.83-11.81,4.8-28.4,9.58-48.53,9.88-21.91.33-39.91-4.79-52.39-9.85-7.69-3.12-12.72-10.58-12.72-18.87v-30.51c3.04,15.2,30.16,27.1,63.16,27.1s58.13-11.03,62.74-25.42c.07-.21.36-.16.36.06Z"/>
      <path d="m1240.29,2460.97c-18.24,0-36.12-3.5-53.2-10.41-10.57-4.28-17.4-14.42-17.4-25.82v-30.51l14.85-1.47c2.03,10.17,24.94,21.07,55.81,21.07s52.48-10.49,55.6-20.21c1.17-3.64,4.75-5.84,8.51-5.25,3.76.59,6.49,3.79,6.49,7.6v28.79c0,11.39-6.79,21.51-17.31,25.78-16.4,6.66-33.64,10.17-51.24,10.43-.71.01-1.42.02-2.12.02Zm-55.6-45.94v9.71c0,5.26,3.15,9.94,8.03,11.92,15.86,6.42,32.51,9.53,49.46,9.3,15.73-.23,31.15-3.37,45.82-9.33,4.83-1.96,7.95-6.62,7.95-11.88v-9.61c-12.92,8.49-32.9,13.69-55.6,13.69s-42.76-5.27-55.66-13.8Z"/>
    </g>
    <g class="cls-10">
      <path class="cls-2" d="m1193.12,2408.69l-.08,19.36s-.99,10.29,11.84,13.1c-7.43,1.26-11.83-.71-13.81-1.87-8.03-4.7-9.01-15.25-9.86-24.33-.7-7.47.07-13.96,1.15-19.02l10.77,12.76Z"/>
    </g>
    <path d="m1240.29,2460.97c-18.24,0-36.12-3.5-53.2-10.41-10.57-4.28-17.4-14.42-17.4-25.82v-30.51l14.85-1.47c2.03,10.17,24.94,21.07,55.81,21.07s52.48-10.49,55.6-20.21c1.17-3.64,4.75-5.84,8.51-5.25,3.76.59,6.49,3.79,6.49,7.6v28.79c0,11.39-6.79,21.51-17.31,25.78-16.4,6.66-33.64,10.17-51.24,10.43-.71.01-1.42.02-2.12.02Zm-55.6-45.94v9.71c0,5.26,3.15,9.94,8.03,11.92,15.86,6.42,32.51,9.53,49.46,9.3,15.73-.23,31.15-3.37,45.82-9.33,4.83-1.96,7.95-6.62,7.95-11.88v-9.61c-12.92,8.49-32.9,13.69-55.6,13.69s-42.76-5.27-55.66-13.8Z"/>
    <g>
      <path class="cls-7" d="m1303.82,2391.38c0,1.08-.12,2.14-.36,3.19-3.36,15.04-30.33,26.76-63.1,26.76s-60.13-11.9-63.16-27.1c-.19-.94-.29-1.89-.29-2.85,0-16.54,28.41-29.95,63.45-29.95s63.46,13.41,63.46,29.95Z"/>
      <path d="m1240.36,2428.83c-37.02,0-66.68-13.93-70.52-33.13-.29-1.43-.43-2.89-.43-4.32,0-21.35,30.5-37.45,70.95-37.45s70.96,16.1,70.96,37.45c0,1.63-.18,3.26-.54,4.84-4.22,18.88-33.84,32.61-70.42,32.61Zm0-59.9c-34.67,0-55.95,13.08-55.95,22.45,0,.45.05.91.14,1.38,2.03,10.18,24.94,21.07,55.81,21.07s53.53-10.81,55.79-20.9c.12-.52.17-1.03.17-1.55,0-9.37-21.29-22.45-55.96-22.45Z"/>
    </g>
    <g class="cls-10">
      <path class="cls-2" d="m1243.09,2368.38c-16.59,1.2-48.95,8.15-48.43,24.83.28,8.92,14.86,15.59,18.83,17.29-3.5-.18-17.98-1.25-26.63-11.41-2.13-2.51-5.59-6.56-4.93-11.41,1.27-9.42,17.04-14.31,24.66-16.67,6.86-2.13,19.52-4.98,36.5-2.63Z"/>
    </g>
    <path d="m1240.36,2428.83c-37.02,0-66.68-13.93-70.52-33.13-.29-1.43-.43-2.89-.43-4.32,0-21.35,30.5-37.45,70.95-37.45s70.96,16.1,70.96,37.45c0,1.63-.18,3.26-.54,4.84-4.22,18.88-33.84,32.61-70.42,32.61Zm0-59.9c-34.67,0-55.95,13.08-55.95,22.45,0,.45.05.91.14,1.38,2.03,10.18,24.94,21.07,55.81,21.07s53.53-10.81,55.79-20.9c.12-.52.17-1.03.17-1.55,0-9.37-21.29-22.45-55.96-22.45Z"/>
    <g class="cls-9">
      <path d="m1265.97,2446.55s7.89-.99,7.89-11.84-.93-17.63-.93-17.63l-.05-4.07s32.55-36.5-22.69-46.36c0,0,51.3-7.89,53.27,31.57v33.54s-19.73,17.76-37.49,14.8Z"/>
    </g>
    <g class="cls-9">
      <path class="cls-7" d="m1463.46,2522.96v28.79c0,8.26-4.98,15.72-12.63,18.83-11.81,4.8-28.4,9.58-48.53,9.88-21.91.33-39.91-4.79-52.39-9.84-7.69-3.12-12.72-10.58-12.72-18.87v-30.51c3.04,15.2,30.16,27.1,63.16,27.1s58.13-11.03,62.74-25.42c.07-.21.36-.16.36.06Z"/>
      <path d="m1400.29,2587.97c-18.24,0-36.12-3.5-53.2-10.41-10.57-4.28-17.4-14.42-17.4-25.82v-30.51l14.85-1.47c2.03,10.17,24.94,21.07,55.81,21.07s52.48-10.49,55.6-20.21c1.15-3.62,4.72-5.85,8.5-5.25,3.77.58,6.51,3.78,6.51,7.6v28.79c0,11.39-6.8,21.51-17.31,25.78-16.4,6.66-33.64,10.17-51.24,10.43-.71.01-1.42.02-2.12.02Zm-55.6-45.94v9.71c0,5.26,3.15,9.94,8.03,11.92,15.87,6.42,32.51,9.55,49.46,9.3,15.73-.23,31.15-3.37,45.82-9.33,4.83-1.96,7.95-6.62,7.95-11.88v-9.62c-12.92,8.5-32.9,13.69-55.6,13.69s-42.76-5.27-55.66-13.8Zm125.55-16.86s-.01.04-.02.06c0-.02.01-.04.02-.06Z"/>
    </g>
    <g>
      <path class="cls-7" d="m1463.46,2512.96v28.79c0,8.26-4.98,15.72-12.63,18.83-11.81,4.8-28.4,9.58-48.53,9.88-21.91.33-39.91-4.79-52.39-9.85-7.69-3.12-12.72-10.58-12.72-18.87v-30.51c3.04,15.2,30.16,27.1,63.16,27.1s58.13-11.03,62.74-25.42c.07-.21.36-.16.36.06Z"/>
      <path d="m1400.29,2577.97c-18.24,0-36.12-3.5-53.2-10.41-10.57-4.28-17.4-14.42-17.4-25.82v-30.51l14.85-1.47c2.03,10.17,24.94,21.07,55.81,21.07s52.48-10.49,55.6-20.21c1.15-3.62,4.72-5.84,8.5-5.25,3.77.58,6.51,3.78,6.51,7.6v28.79c0,11.39-6.8,21.51-17.31,25.78-16.4,6.66-33.64,10.17-51.24,10.43-.71.01-1.42.02-2.12.02Zm-55.6-45.94v9.71c0,5.26,3.15,9.94,8.03,11.92,15.87,6.42,32.51,9.53,49.46,9.3,15.73-.23,31.15-3.37,45.82-9.33,4.83-1.96,7.95-6.62,7.95-11.88v-9.62c-12.92,8.5-32.9,13.69-55.6,13.69s-42.76-5.27-55.66-13.8Zm125.55-16.86s-.01.04-.02.06c0-.02.01-.04.02-.06Z"/>
    </g>
    <g class="cls-10">
      <path class="cls-2" d="m1353.12,2525.69l-.08,19.36s-.99,10.29,11.84,13.1c-7.43,1.26-11.83-.71-13.81-1.87-8.03-4.7-9.01-15.25-9.86-24.33-.7-7.47.07-13.96,1.15-19.02l10.77,12.76Z"/>
    </g>
    <path d="m1400.29,2577.97c-18.24,0-36.12-3.5-53.2-10.41-10.57-4.28-17.4-14.42-17.4-25.82v-30.51l14.85-1.47c2.03,10.17,24.94,21.07,55.81,21.07s52.48-10.49,55.6-20.21c1.15-3.62,4.72-5.84,8.5-5.25,3.77.58,6.51,3.78,6.51,7.6v28.79c0,11.39-6.8,21.51-17.31,25.78-16.4,6.66-33.64,10.17-51.24,10.43-.71.01-1.42.02-2.12.02Zm-55.6-45.94v9.71c0,5.26,3.15,9.94,8.03,11.92,15.87,6.42,32.51,9.53,49.46,9.3,15.73-.23,31.15-3.37,45.82-9.33,4.83-1.96,7.95-6.62,7.95-11.88v-9.62c-12.92,8.5-32.9,13.69-55.6,13.69s-42.76-5.27-55.66-13.8Zm125.55-16.86s-.01.04-.02.06c0-.02.01-.04.02-.06Z"/>
    <g>
      <path class="cls-7" d="m1463.82,2508.38c0,1.08-.12,2.14-.36,3.19-3.36,15.04-30.33,26.76-63.1,26.76s-60.13-11.9-63.16-27.1c-.19-.94-.29-1.89-.29-2.85,0-16.54,28.41-29.95,63.45-29.95s63.46,13.41,63.46,29.95Z"/>
      <path d="m1400.36,2545.83c-37.02,0-66.68-13.93-70.52-33.13-.29-1.43-.43-2.89-.43-4.32,0-21.35,30.5-37.45,70.95-37.45s70.96,16.1,70.96,37.45c0,1.63-.18,3.26-.54,4.85-4.22,18.88-33.84,32.6-70.42,32.6Zm0-59.9c-34.67,0-55.95,13.08-55.95,22.45,0,.45.05.91.14,1.38,2.03,10.18,24.94,21.07,55.81,21.07s53.53-10.81,55.79-20.9c.12-.52.17-1.03.17-1.55,0-9.37-21.29-22.45-55.96-22.45Z"/>
    </g>
    <g class="cls-10">
      <path class="cls-2" d="m1403.09,2485.38c-16.59,1.2-48.95,8.15-48.43,24.83.28,8.92,14.86,15.59,18.83,17.29-3.5-.18-17.98-1.25-26.63-11.41-2.13-2.51-5.59-6.56-4.93-11.41,1.27-9.42,17.04-14.31,24.66-16.67,6.86-2.13,19.52-4.98,36.5-2.63Z"/>
    </g>
    <path d="m1400.36,2545.83c-37.02,0-66.68-13.93-70.52-33.13-.29-1.43-.43-2.89-.43-4.32,0-21.35,30.5-37.45,70.95-37.45s70.96,16.1,70.96,37.45c0,1.63-.18,3.26-.54,4.85-4.22,18.88-33.84,32.6-70.42,32.6Zm0-59.9c-34.67,0-55.95,13.08-55.95,22.45,0,.45.05.91.14,1.38,2.03,10.18,24.94,21.07,55.81,21.07s53.53-10.81,55.79-20.9c.12-.52.17-1.03.17-1.55,0-9.37-21.29-22.45-55.96-22.45Z"/>
    <g class="cls-9">
      <path d="m1425.97,2563.55s7.89-.99,7.89-11.84-.93-17.63-.93-17.63l-.05-4.07s32.55-36.5-22.69-46.36c0,0,51.3-7.89,53.27,31.57v33.54s-19.73,17.76-37.49,14.8Z"/>
    </g>
    <g class="cls-9">
      <path class="cls-7" d="m1622.46,2426.96v28.79c0,8.26-4.98,15.72-12.63,18.83-11.81,4.8-28.4,9.58-48.53,9.88-21.91.33-39.91-4.79-52.39-9.84-7.69-3.12-12.72-10.58-12.72-18.87v-30.51c3.04,15.2,30.16,27.1,63.16,27.1s58.13-11.03,62.74-25.42c.07-.21.36-.16.36.06Z"/>
      <path d="m1559.29,2491.97c-18.24,0-36.12-3.5-53.2-10.41-10.57-4.28-17.4-14.42-17.4-25.82v-30.51l14.85-1.47c2.03,10.17,24.94,21.07,55.81,21.07s52.48-10.49,55.6-20.21c1.15-3.62,4.72-5.84,8.5-5.25,3.77.58,6.51,3.78,6.51,7.6v28.79c0,11.39-6.8,21.51-17.31,25.78-16.4,6.66-33.64,10.17-51.24,10.43-.71.01-1.42.02-2.12.02Zm-55.6-45.94v9.71c0,5.26,3.15,9.94,8.03,11.92,15.86,6.42,32.5,9.52,49.46,9.3,15.73-.23,31.15-3.37,45.82-9.33,4.83-1.96,7.95-6.62,7.95-11.88v-9.62c-12.92,8.5-32.9,13.69-55.6,13.69s-42.76-5.27-55.66-13.8Zm125.55-16.86s-.01.04-.02.06c0-.02.01-.04.02-.06Z"/>
    </g>
    <g>
      <path class="cls-7" d="m1622.46,2416.96v28.79c0,8.26-4.98,15.72-12.63,18.83-11.81,4.8-28.4,9.58-48.53,9.88-21.91.33-39.91-4.79-52.39-9.85-7.69-3.12-12.72-10.58-12.72-18.87v-30.51c3.04,15.2,30.16,27.1,63.16,27.1s58.13-11.03,62.74-25.42c.07-.21.36-.16.36.06Z"/>
      <path d="m1559.29,2481.97c-18.24,0-36.12-3.5-53.2-10.41-10.57-4.28-17.4-14.42-17.4-25.82v-30.51l14.85-1.47c2.03,10.17,24.94,21.07,55.81,21.07s52.48-10.49,55.6-20.21c1.15-3.62,4.72-5.84,8.5-5.25,3.77.58,6.51,3.78,6.51,7.6v28.79c0,11.39-6.8,21.51-17.31,25.78-16.4,6.66-33.64,10.17-51.24,10.43-.71.01-1.42.02-2.12.02Zm-55.6-45.94v9.71c0,5.26,3.15,9.94,8.03,11.92,15.86,6.42,32.5,9.52,49.46,9.3,15.73-.23,31.15-3.37,45.82-9.33,4.83-1.96,7.95-6.62,7.95-11.88v-9.62c-12.92,8.5-32.9,13.69-55.6,13.69s-42.76-5.27-55.66-13.8Zm125.55-16.86s-.01.04-.02.06c0-.02.01-.04.02-.06Z"/>
    </g>
    <g class="cls-10">
      <path class="cls-2" d="m1512.12,2429.69l-.08,19.36s-.99,10.29,11.84,13.1c-7.43,1.26-11.83-.71-13.81-1.87-8.03-4.7-9.01-15.25-9.86-24.33-.7-7.47.07-13.96,1.15-19.02l10.77,12.76Z"/>
    </g>
    <path d="m1559.29,2481.97c-18.24,0-36.12-3.5-53.2-10.41-10.57-4.28-17.4-14.42-17.4-25.82v-30.51l14.85-1.47c2.03,10.17,24.94,21.07,55.81,21.07s52.48-10.49,55.6-20.21c1.15-3.62,4.72-5.84,8.5-5.25,3.77.58,6.51,3.78,6.51,7.6v28.79c0,11.39-6.8,21.51-17.31,25.78-16.4,6.66-33.64,10.17-51.24,10.43-.71.01-1.42.02-2.12.02Zm-55.6-45.94v9.71c0,5.26,3.15,9.94,8.03,11.92,15.86,6.42,32.5,9.52,49.46,9.3,15.73-.23,31.15-3.37,45.82-9.33,4.83-1.96,7.95-6.62,7.95-11.88v-9.62c-12.92,8.5-32.9,13.69-55.6,13.69s-42.76-5.27-55.66-13.8Zm125.55-16.86s-.01.04-.02.06c0-.02.01-.04.02-.06Z"/>
    <g>
      <path class="cls-7" d="m1622.82,2412.38c0,1.08-.12,2.14-.36,3.19-3.36,15.04-30.33,26.76-63.1,26.76s-60.13-11.9-63.16-27.1c-.19-.94-.29-1.89-.29-2.85,0-16.54,28.41-29.95,63.45-29.95s63.46,13.41,63.46,29.95Z"/>
      <path d="m1559.36,2449.83c-37.03,0-66.68-13.93-70.52-33.13-.29-1.43-.43-2.89-.43-4.32,0-21.35,30.5-37.45,70.95-37.45s70.96,16.1,70.96,37.45c0,1.63-.18,3.26-.54,4.85-4.22,18.88-33.84,32.6-70.42,32.6Zm0-59.9c-34.67,0-55.95,13.08-55.95,22.45,0,.45.05.91.14,1.38,2.03,10.18,24.94,21.07,55.81,21.07s53.53-10.81,55.79-20.9c.12-.52.17-1.03.17-1.55,0-9.37-21.29-22.45-55.96-22.45Z"/>
    </g>
    <g class="cls-10">
      <path class="cls-2" d="m1562.09,2389.38c-16.59,1.2-48.96,8.15-48.43,24.83.28,8.92,14.86,15.59,18.83,17.29-3.5-.18-17.98-1.25-26.63-11.41-2.13-2.51-5.59-6.56-4.93-11.41,1.27-9.42,17.04-14.31,24.66-16.67,6.86-2.13,19.52-4.98,36.5-2.63Z"/>
    </g>
    <path d="m1559.36,2449.83c-37.03,0-66.68-13.93-70.52-33.13-.29-1.43-.43-2.89-.43-4.32,0-21.35,30.5-37.45,70.95-37.45s70.96,16.1,70.96,37.45c0,1.63-.18,3.26-.54,4.85-4.22,18.88-33.84,32.6-70.42,32.6Zm0-59.9c-34.67,0-55.95,13.08-55.95,22.45,0,.45.05.91.14,1.38,2.03,10.18,24.94,21.07,55.81,21.07s53.53-10.81,55.79-20.9c.12-.52.17-1.03.17-1.55,0-9.37-21.29-22.45-55.96-22.45Z"/>
    <g class="cls-9">
      <path d="m1584.97,2467.55s7.89-.99,7.89-11.84-.93-17.63-.93-17.63l-.05-4.07s32.55-36.5-22.69-46.36c0,0,51.3-7.89,53.27,31.57v33.54s-19.73,17.76-37.49,14.8Z"/>
    </g>
    <g class="cls-9">
      <path class="cls-7" d="m253.46,2635.96v28.79c0,8.26-4.98,15.72-12.63,18.83-11.81,4.8-28.4,9.58-48.53,9.88-21.91.33-39.91-4.79-52.39-9.84-7.69-3.12-12.72-10.58-12.72-18.87v-30.51c3.04,15.2,30.16,27.1,63.16,27.1s58.13-11.03,62.74-25.42c.07-.21.36-.16.36.06Z"/>
      <path d="m190.29,2700.97c-18.24,0-36.12-3.5-53.2-10.41-10.57-4.28-17.4-14.42-17.4-25.82v-30.51l14.85-1.47c2.03,10.17,24.94,21.07,55.81,21.07s52.48-10.49,55.6-20.21c1.17-3.64,4.75-5.84,8.51-5.25,3.76.59,6.49,3.79,6.49,7.6v28.79c0,11.39-6.79,21.51-17.31,25.78-16.4,6.66-33.64,10.17-51.24,10.43-.71.01-1.42.02-2.12.02Zm-55.6-45.94v9.71c0,5.26,3.15,9.94,8.03,11.92,15.86,6.42,32.51,9.54,49.46,9.3,15.73-.23,31.15-3.37,45.82-9.33,4.83-1.96,7.95-6.62,7.95-11.88v-9.61c-12.92,8.49-32.9,13.69-55.6,13.69s-42.76-5.27-55.66-13.8Z"/>
    </g>
    <g>
      <path class="cls-7" d="m253.46,2625.96v28.79c0,8.26-4.98,15.72-12.63,18.83-11.81,4.8-28.4,9.58-48.53,9.88-21.91.33-39.91-4.79-52.39-9.85-7.69-3.12-12.72-10.58-12.72-18.87v-30.51c3.04,15.2,30.16,27.1,63.16,27.1s58.13-11.03,62.74-25.42c.07-.21.36-.16.36.06Z"/>
      <path d="m190.29,2690.97c-18.24,0-36.12-3.5-53.2-10.41-10.57-4.28-17.4-14.42-17.4-25.82v-30.51l14.85-1.47c2.03,10.17,24.94,21.07,55.81,21.07s52.48-10.49,55.6-20.21c1.17-3.64,4.75-5.84,8.51-5.25,3.76.59,6.49,3.79,6.49,7.6v28.79c0,11.39-6.79,21.51-17.31,25.78-16.4,6.66-33.64,10.17-51.24,10.43-.71.01-1.42.02-2.12.02Zm-55.6-45.94v9.71c0,5.26,3.15,9.94,8.03,11.92,15.86,6.42,32.51,9.54,49.46,9.3,15.73-.23,31.15-3.37,45.82-9.33,4.83-1.96,7.95-6.62,7.95-11.88v-9.61c-12.92,8.49-32.9,13.69-55.6,13.69s-42.76-5.27-55.66-13.8Z"/>
    </g>
    <g class="cls-10">
      <path class="cls-2" d="m143.12,2638.69l-.08,19.36s-.99,10.29,11.84,13.1c-7.43,1.26-11.83-.71-13.81-1.87-8.03-4.7-9.01-15.25-9.86-24.33-.7-7.47.07-13.96,1.15-19.02l10.77,12.76Z"/>
    </g>
    <path d="m190.29,2690.97c-18.24,0-36.12-3.5-53.2-10.41-10.57-4.28-17.4-14.42-17.4-25.82v-30.51l14.85-1.47c2.03,10.17,24.94,21.07,55.81,21.07s52.48-10.49,55.6-20.21c1.17-3.64,4.75-5.84,8.51-5.25,3.76.59,6.49,3.79,6.49,7.6v28.79c0,11.39-6.79,21.51-17.31,25.78-16.4,6.66-33.64,10.17-51.24,10.43-.71.01-1.42.02-2.12.02Zm-55.6-45.94v9.71c0,5.26,3.15,9.94,8.03,11.92,15.86,6.42,32.51,9.54,49.46,9.3,15.73-.23,31.15-3.37,45.82-9.33,4.83-1.96,7.95-6.62,7.95-11.88v-9.61c-12.92,8.49-32.9,13.69-55.6,13.69s-42.76-5.27-55.66-13.8Z"/>
    <g>
      <path class="cls-7" d="m253.82,2621.38c0,1.08-.12,2.14-.35,3.19-3.36,15.04-30.33,26.76-63.1,26.76s-60.13-11.9-63.16-27.1c-.19-.94-.29-1.89-.29-2.85,0-16.54,28.41-29.95,63.45-29.95s63.46,13.41,63.46,29.95Z"/>
      <path d="m190.36,2658.83c-37.02,0-66.68-13.93-70.52-33.13-.29-1.43-.43-2.89-.43-4.32,0-21.35,30.5-37.45,70.95-37.45s70.96,16.1,70.96,37.45c0,1.63-.18,3.26-.54,4.84-4.22,18.88-33.84,32.61-70.42,32.61Zm0-59.9c-34.67,0-55.95,13.08-55.95,22.45,0,.45.05.91.14,1.38,2.03,10.18,24.94,21.07,55.81,21.07s53.53-10.81,55.79-20.9c.12-.52.17-1.03.17-1.55,0-9.37-21.29-22.45-55.96-22.45Z"/>
    </g>
    <g class="cls-10">
      <path class="cls-2" d="m193.09,2598.38c-16.59,1.2-48.95,8.15-48.43,24.83.28,8.92,14.86,15.59,18.83,17.29-3.5-.18-17.98-1.25-26.63-11.41-2.13-2.51-5.59-6.56-4.93-11.41,1.27-9.42,17.04-14.31,24.66-16.67,6.86-2.13,19.52-4.98,36.5-2.63Z"/>
    </g>
    <path d="m190.36,2658.83c-37.02,0-66.68-13.93-70.52-33.13-.29-1.43-.43-2.89-.43-4.32,0-21.35,30.5-37.45,70.95-37.45s70.96,16.1,70.96,37.45c0,1.63-.18,3.26-.54,4.84-4.22,18.88-33.84,32.61-70.42,32.61Zm0-59.9c-34.67,0-55.95,13.08-55.95,22.45,0,.45.05.91.14,1.38,2.03,10.18,24.94,21.07,55.81,21.07s53.53-10.81,55.79-20.9c.12-.52.17-1.03.17-1.55,0-9.37-21.29-22.45-55.96-22.45Z"/>
    <g class="cls-9">
      <path d="m215.97,2676.55s7.89-.99,7.89-11.84-.93-17.63-.93-17.63l-.05-4.07s32.55-36.5-22.69-46.36c0,0,51.3-7.89,53.27,31.57v33.54s-19.73,17.76-37.49,14.8Z"/>
    </g>
    <g class="cls-9">
      <path class="cls-7" d="m2667.46,2631.96v28.79c0,8.26-4.98,15.72-12.63,18.83-11.81,4.8-28.4,9.58-48.53,9.88-21.91.33-39.91-4.79-52.39-9.84-7.69-3.12-12.72-10.58-12.72-18.87v-30.51c3.04,15.2,30.16,27.1,63.16,27.1s58.13-11.03,62.74-25.42c.07-.21.36-.16.36.06Z"/>
      <path d="m2604.29,2696.97c-18.24,0-36.12-3.5-53.2-10.41-10.57-4.28-17.4-14.42-17.4-25.82v-30.51l14.85-1.47c2.03,10.17,24.94,21.07,55.81,21.07s52.48-10.49,55.6-20.21c1.15-3.62,4.72-5.84,8.5-5.25,3.77.58,6.51,3.78,6.51,7.6v28.79c0,11.39-6.8,21.51-17.31,25.78-16.4,6.66-33.64,10.17-51.24,10.43-.71.01-1.42.02-2.12.02Zm-55.6-45.94v9.71c0,5.26,3.15,9.94,8.03,11.92,15.86,6.42,32.5,9.53,49.46,9.3,15.73-.23,31.15-3.37,45.82-9.33,4.83-1.96,7.95-6.62,7.95-11.88v-9.62c-12.92,8.5-32.9,13.69-55.6,13.69s-42.76-5.27-55.66-13.8Zm125.55-16.86s-.01.04-.02.06c0-.02.01-.04.02-.06Z"/>
    </g>
    <g>
      <path class="cls-7" d="m2667.46,2621.96v28.79c0,8.26-4.98,15.72-12.63,18.83-11.81,4.8-28.4,9.58-48.53,9.88-21.91.33-39.91-4.79-52.39-9.85-7.69-3.12-12.72-10.58-12.72-18.87v-30.51c3.04,15.2,30.16,27.1,63.16,27.1s58.13-11.03,62.74-25.42c.07-.21.36-.16.36.06Z"/>
      <path d="m2604.29,2686.97c-18.24,0-36.12-3.5-53.2-10.41-10.57-4.28-17.4-14.42-17.4-25.82v-30.51l14.85-1.47c2.03,10.17,24.94,21.07,55.81,21.07s52.48-10.49,55.6-20.21c1.15-3.62,4.72-5.84,8.5-5.25,3.77.58,6.51,3.78,6.51,7.6v28.79c0,11.39-6.8,21.51-17.31,25.78-16.4,6.66-33.64,10.17-51.24,10.43-.71.01-1.42.02-2.12.02Zm-55.6-45.94v9.71c0,5.26,3.15,9.94,8.03,11.92,15.86,6.42,32.5,9.53,49.46,9.3,15.73-.23,31.15-3.37,45.82-9.33,4.83-1.96,7.95-6.62,7.95-11.88v-9.62c-12.92,8.5-32.9,13.69-55.6,13.69s-42.76-5.27-55.66-13.8Zm125.55-16.86s-.01.04-.02.06c0-.02.01-.04.02-.06Z"/>
    </g>
    <g class="cls-10">
      <path class="cls-2" d="m2557.12,2634.69l-.08,19.36s-.99,10.29,11.84,13.1c-7.43,1.26-11.83-.71-13.81-1.87-8.03-4.7-9.01-15.25-9.86-24.33-.7-7.47.07-13.96,1.15-19.02l10.77,12.76Z"/>
    </g>
    <path d="m2604.29,2686.97c-18.24,0-36.12-3.5-53.2-10.41-10.57-4.28-17.4-14.42-17.4-25.82v-30.51l14.85-1.47c2.03,10.17,24.94,21.07,55.81,21.07s52.48-10.49,55.6-20.21c1.15-3.62,4.72-5.84,8.5-5.25,3.77.58,6.51,3.78,6.51,7.6v28.79c0,11.39-6.8,21.51-17.31,25.78-16.4,6.66-33.64,10.17-51.24,10.43-.71.01-1.42.02-2.12.02Zm-55.6-45.94v9.71c0,5.26,3.15,9.94,8.03,11.92,15.86,6.42,32.5,9.53,49.46,9.3,15.73-.23,31.15-3.37,45.82-9.33,4.83-1.96,7.95-6.62,7.95-11.88v-9.62c-12.92,8.5-32.9,13.69-55.6,13.69s-42.76-5.27-55.66-13.8Zm125.55-16.86s-.01.04-.02.06c0-.02.01-.04.02-.06Z"/>
    <g>
      <path class="cls-7" d="m2667.82,2617.38c0,1.08-.12,2.14-.36,3.19-3.36,15.04-30.33,26.76-63.1,26.76s-60.13-11.9-63.16-27.1c-.19-.94-.29-1.89-.29-2.85,0-16.54,28.41-29.95,63.45-29.95s63.46,13.41,63.46,29.95Z"/>
      <path d="m2604.36,2654.83c-37.03,0-66.68-13.93-70.52-33.13-.29-1.43-.43-2.89-.43-4.32,0-21.35,30.5-37.45,70.95-37.45s70.96,16.1,70.96,37.45c0,1.63-.18,3.26-.54,4.85-4.22,18.88-33.84,32.6-70.42,32.6Zm0-59.9c-34.67,0-55.95,13.08-55.95,22.45,0,.45.05.91.14,1.38,2.03,10.18,24.94,21.07,55.81,21.07s53.53-10.81,55.79-20.9c.12-.52.17-1.03.17-1.55,0-9.37-21.29-22.45-55.96-22.45Z"/>
    </g>
    <g class="cls-10">
      <path class="cls-2" d="m2607.09,2594.38c-16.59,1.2-48.96,8.15-48.43,24.83.28,8.92,14.86,15.59,18.83,17.29-3.5-.18-17.98-1.25-26.63-11.41-2.13-2.51-5.59-6.56-4.93-11.41,1.27-9.42,17.04-14.31,24.66-16.67,6.86-2.13,19.52-4.98,36.5-2.63Z"/>
    </g>
    <path d="m2604.36,2654.83c-37.03,0-66.68-13.93-70.52-33.13-.29-1.43-.43-2.89-.43-4.32,0-21.35,30.5-37.45,70.95-37.45s70.96,16.1,70.96,37.45c0,1.63-.18,3.26-.54,4.85-4.22,18.88-33.84,32.6-70.42,32.6Zm0-59.9c-34.67,0-55.95,13.08-55.95,22.45,0,.45.05.91.14,1.38,2.03,10.18,24.94,21.07,55.81,21.07s53.53-10.81,55.79-20.9c.12-.52.17-1.03.17-1.55,0-9.37-21.29-22.45-55.96-22.45Z"/>
    <g class="cls-9">
      <path d="m2629.97,2672.55s7.89-.99,7.89-11.84-.93-17.63-.93-17.63l-.05-4.07s32.55-36.5-22.69-46.36c0,0,51.3-7.89,53.27,31.57v33.54s-19.73,17.76-37.49,14.8Z"/>
    </g>
    <g class="cls-9">
      <path d="m2590.97,2490.73c-21.86,133.42-271.13,196.08-437.23,196.44-158.65.34-407.71-55.81-437.23-196.44-11.4-54.29,17.34-120.31,50.69-161.58,40.38-49.96,96.29-72.61,120.4-82.38,28.86-11.69,63.76-20.67,69.7-22.18,6.35-1.62,29.73-7.46,63.37-12.67,44.77-6.94,84.06-9.1,114.06-9.5,80.64-1.08,140.73,9.91,155.25,12.67,22.2,4.23,45.88,8.74,76.04,19.01,23.35,7.95,80.34,27.34,126.73,66.53,45.23,38.21,109.87,118.95,98.22,190.1Z"/>
      <path d="m2152.25,2704.67c-91.1,0-192.5-17.33-271.59-46.44-104.12-38.32-166.81-95-181.27-163.91-5.9-28.09-2.73-60.95,9.17-95.04,10.07-28.84,26.06-57.66,45.04-81.14,43.23-53.48,102.24-77.39,127.44-87.6,28.36-11.49,62.25-20.45,71.96-22.92,11-2.8,34.07-8.21,65-13.01,38.17-5.92,77.37-9.19,116.51-9.71,73.68-1,131.1,7.71,158.76,12.98,22.07,4.21,47.08,8.97,78.4,19.63,24.98,8.5,83.47,28.41,132.39,69.73,28.16,23.79,55.19,55.52,74.15,87.05,25.49,42.4,35.88,83.63,30.05,119.25-10.9,66.51-71.62,122.41-175.61,161.66-81.51,30.76-185.75,49.25-278.85,49.45-.51,0-1.02,0-1.53,0Zm-6.49-484.83c-3.56,0-7.15.02-10.79.07-37.5.5-75.05,3.63-111.61,9.3-29.49,4.57-51.33,9.69-61.73,12.34-9.17,2.33-41.13,10.78-67.45,21.44-22.69,9.19-75.82,30.71-113.36,77.16-29.83,36.91-57.32,98.66-47.18,146.99,26.47,126.08,260.23,182.53,418.65,182.53.48,0,.94,0,1.42,0,89.12-.19,188.77-17.83,266.56-47.19,43.82-16.54,79.21-36.1,105.2-58.16,27.52-23.36,43.75-49.07,48.23-76.41h0c5.66-34.52-10.75-71.02-25.5-95.55-16.81-27.96-41.76-57.25-66.74-78.35-43.87-37.06-97.97-55.47-121.08-63.34-29.01-9.87-51.72-14.2-73.68-18.39-20.17-3.84-72.9-12.44-140.94-12.44Z"/>
    </g>
    <g>
      <path class="cls-7" d="m2590.97,2464.47c-21.86,133.42-271.13,196.08-437.23,196.44-158.65.34-407.71-55.81-437.23-196.44-11.4-54.29,17.34-120.31,50.69-161.58,40.38-49.96,96.29-72.61,120.4-82.38,28.86-11.69,63.76-20.67,69.7-22.18,6.35-1.62,29.73-7.46,63.37-12.67,44.77-6.94,84.06-9.1,114.06-9.51,80.64-1.08,140.73,9.91,155.25,12.67,22.2,4.23,45.88,8.74,76.04,19.01,23.35,7.95,80.34,27.34,126.73,66.53,45.23,38.21,109.87,118.95,98.22,190.1Z"/>
      <path d="m2152.25,2678.41c-91.1,0-192.5-17.33-271.59-46.44-104.12-38.32-166.81-95-181.27-163.91-5.9-28.09-2.73-60.95,9.17-95.04,10.07-28.84,26.06-57.66,45.04-81.14,43.23-53.48,102.24-77.39,127.44-87.6,28.4-11.5,62.26-20.45,71.96-22.92,11-2.8,34.07-8.21,65-13.01,38.17-5.92,77.37-9.18,116.51-9.71,73.67-1.01,131.09,7.71,158.76,12.98,22.07,4.21,47.08,8.97,78.4,19.63,24.98,8.5,83.47,28.41,132.39,69.73,28.16,23.79,55.19,55.52,74.15,87.05,25.49,42.4,35.88,83.63,30.05,119.25-10.9,66.51-71.62,122.41-175.61,161.66-81.51,30.76-185.75,49.25-278.85,49.45-.51,0-1.02,0-1.53,0Zm-6.48-484.83c-3.56,0-7.16.02-10.8.07-37.5.5-75.05,3.63-111.61,9.3-29.49,4.57-51.33,9.69-61.73,12.34-9.16,2.33-41.1,10.76-67.45,21.44-22.69,9.19-75.82,30.71-113.36,77.16-29.83,36.91-57.32,98.66-47.18,146.99,26.47,126.08,260.23,182.53,418.65,182.53.48,0,.94,0,1.42,0,89.12-.19,188.77-17.83,266.56-47.19,43.82-16.54,79.21-36.1,105.2-58.16,27.52-23.36,43.75-49.07,48.23-76.41h0c5.66-34.52-10.75-71.02-25.5-95.55-16.81-27.96-41.76-57.25-66.74-78.35-43.87-37.06-97.97-55.47-121.08-63.34-29.01-9.87-51.72-14.2-73.68-18.39-20.17-3.84-72.9-12.44-140.93-12.44Z"/>
    </g>
    <g class="cls-10">
      <path class="cls-2" d="m1762.08,2440.4s-30.01,152.04,285.09,198.03c0,0-410.4-5-314.61-278.47l29.52,80.44Z"/>
    </g>
    <path d="m2152.25,2678.41c-91.1,0-192.5-17.33-271.59-46.44-104.12-38.32-166.81-95-181.27-163.91-5.9-28.09-2.73-60.95,9.17-95.04,10.07-28.84,26.06-57.66,45.04-81.14,43.23-53.48,102.24-77.39,127.44-87.6,28.4-11.5,62.26-20.45,71.96-22.92,11-2.8,34.07-8.21,65-13.01,38.17-5.92,77.37-9.18,116.51-9.71,73.67-1.01,131.09,7.71,158.76,12.98,22.07,4.21,47.08,8.97,78.4,19.63,24.98,8.5,83.47,28.41,132.39,69.73,28.16,23.79,55.19,55.52,74.15,87.05,25.49,42.4,35.88,83.63,30.05,119.25-10.9,66.51-71.62,122.41-175.61,161.66-81.51,30.76-185.75,49.25-278.85,49.45-.51,0-1.02,0-1.53,0Zm-6.48-484.83c-3.56,0-7.16.02-10.8.07-37.5.5-75.05,3.63-111.61,9.3-29.49,4.57-51.33,9.69-61.73,12.34-9.16,2.33-41.1,10.76-67.45,21.44-22.69,9.19-75.82,30.71-113.36,77.16-29.83,36.91-57.32,98.66-47.18,146.99,26.47,126.08,260.23,182.53,418.65,182.53.48,0,.94,0,1.42,0,89.12-.19,188.77-17.83,266.56-47.19,43.82-16.54,79.21-36.1,105.2-58.16,27.52-23.36,43.75-49.07,48.23-76.41h0c5.66-34.52-10.75-71.02-25.5-95.55-16.81-27.96-41.76-57.25-66.74-78.35-43.87-37.06-97.97-55.47-121.08-63.34-29.01-9.87-51.72-14.2-73.68-18.39-20.17-3.84-72.9-12.44-140.93-12.44Z"/>
    <g>
      <ellipse class="cls-8" cx="2144.24" cy="2363.08" rx="396.04" ry="186.93"/>
      <path d="m2144.24,2567.51c-108.32,0-210.42-20.04-287.51-56.42-81.27-38.36-126.03-90.92-126.03-148.01s44.76-109.65,126.03-148c77.09-36.39,179.2-56.42,287.51-56.42s210.42,20.04,287.51,56.42c81.27,38.36,126.03,90.92,126.03,148s-44.76,109.65-126.03,148.01c-77.09,36.39-179.2,56.42-287.51,56.42Zm0-373.86c-103.26,0-200.06,18.85-272.57,53.08-34.25,16.17-60.93,34.76-79.31,55.27-17.69,19.74-26.66,40.29-26.66,61.08s8.97,41.34,26.66,61.08c18.38,20.51,45.06,39.11,79.31,55.27,72.51,34.23,169.32,53.08,272.57,53.08s200.06-18.85,272.57-53.08c34.25-16.16,60.93-34.76,79.31-55.27,17.69-19.74,26.66-40.29,26.66-61.08s-8.97-41.34-26.66-61.08c-18.38-20.51-45.06-39.11-79.31-55.27-72.51-34.23-169.32-53.08-272.57-53.08Z"/>
    </g>
    <g class="cls-10">
      <path class="cls-2" d="m2018.41,2199.15s-455.14,136.38-33.76,321.75c-135.98-6.49-230.16-91.13-231.32-158.89-1.26-73.43,105.92-173.96,265.08-162.86Z"/>
    </g>
    <path d="m2145.2,2567.45c-108.32,0-210.42-20.04-287.51-56.42-81.27-38.36-126.03-90.92-126.03-148.01s44.76-109.65,126.03-148.01c77.09-36.39,179.2-56.42,287.51-56.42s210.42,20.04,287.51,56.42c81.27,38.36,126.03,90.92,126.03,148.01s-44.76,109.65-126.03,148.01c-77.09,36.39-179.2,56.42-287.51,56.42Zm0-373.86c-103.26,0-200.06,18.85-272.57,53.08-34.25,16.16-60.93,34.76-79.31,55.27-17.69,19.74-26.66,40.29-26.66,61.08s8.97,41.34,26.66,61.08c18.38,20.51,45.06,39.11,79.31,55.27,72.51,34.23,169.32,53.08,272.57,53.08s200.06-18.85,272.57-53.08c34.25-16.16,60.93-34.76,79.31-55.27,17.69-19.74,26.66-40.29,26.66-61.08s-8.97-41.34-26.66-61.08c-18.38-20.51-45.06-39.11-79.31-55.27-72.51-34.23-169.32-53.08-272.57-53.08Z"/>
    <g>
      <path class="cls-4" d="m2229.83,2348.7c-4.44,27.09-55.06,39.82-88.79,39.89-32.22.07-82.8-11.33-88.79-39.89-2.31-11.02,3.52-24.43,10.29-32.81,8.2-10.15,19.56-14.75,24.45-16.73,5.86-2.37,12.95-4.2,14.16-4.5,1.29-.33,6.04-1.51,12.87-2.57,9.09-1.41,17.07-1.85,23.16-1.93,16.38-.22,28.58,2.01,31.53,2.57,4.51.86,9.32,1.78,15.44,3.86,4.74,1.61,16.31,5.55,25.74,13.51,9.19,7.76,22.31,24.16,19.95,38.61Z"/>
      <path d="m2140.74,2396.1c-34.78,0-88.76-12.18-95.83-45.85-3.01-14.34,4.48-30.01,11.8-39.07,9.42-11.65,22.06-16.78,27.46-18.96,5.8-2.35,12.51-4.16,15.12-4.82,2.3-.59,7.12-1.72,13.57-2.72,7.93-1.23,16.08-1.91,24.21-2.02,15.32-.2,27.27,1.61,33.03,2.71,4.61.88,9.83,1.88,16.45,4.13,5.28,1.8,17.65,6.01,28.16,14.88,9.78,8.26,25.52,27.15,22.51,45.55h0c-5.49,33.5-61.91,46.11-96.18,46.18h-.31Zm-1.32-98.46c-.71,0-1.42,0-2.15.01-7.43.1-14.88.72-22.11,1.84-5.84.9-10.13,1.91-12.17,2.43-1.81.46-8.1,2.13-13.19,4.19-4.33,1.75-14.45,5.86-21.43,14.49-5.49,6.79-10.58,18-8.79,26.56,4.87,23.19,51.21,33.93,81.17,33.93h.26c35.91-.08,78.18-13.9,81.41-33.61h0c1.59-9.69-7.77-23.54-17.38-31.66-8.34-7.05-18.83-10.62-23.31-12.14-5.63-1.91-10.1-2.77-14.42-3.59-3.99-.76-14.4-2.46-27.88-2.46Z"/>
    </g>
    <path class="cls-2" d="m2062.79,2341.78c.33,4.13,1.33,8.92,3.75,13.75,9.7,19.38,33.73,22.74,36.89,23.13-.92.32-22.08,7.23-37.51-6.25-16.28-14.22-13.47-38.7-10.22-39.71,1.02-.32,3,1.38,7.1,9.08Z"/>
    <path d="m2140.74,2396.1c-34.78,0-88.76-12.18-95.83-45.85-3.01-14.34,4.48-30.01,11.8-39.07,9.42-11.65,22.06-16.78,27.46-18.96,5.8-2.35,12.51-4.16,15.12-4.82,2.3-.59,7.12-1.72,13.57-2.72,7.93-1.23,16.08-1.91,24.21-2.02,15.32-.2,27.27,1.61,33.03,2.71,4.61.88,9.83,1.88,16.45,4.13,5.28,1.8,17.65,6.01,28.16,14.88,9.78,8.26,25.52,27.15,22.51,45.55h0c-5.49,33.5-61.91,46.11-96.18,46.18h-.31Zm-1.32-98.46c-.71,0-1.42,0-2.15.01-7.43.1-14.88.72-22.11,1.84-5.84.9-10.13,1.91-12.17,2.43-1.81.46-8.1,2.13-13.19,4.19-4.33,1.75-14.45,5.86-21.43,14.49-5.49,6.79-10.58,18-8.79,26.56,4.87,23.19,51.21,33.93,81.17,33.93h.26c35.91-.08,78.18-13.9,81.41-33.61h0c1.59-9.69-7.77-23.54-17.38-31.66-8.34-7.05-18.83-10.62-23.31-12.14-5.63-1.91-10.1-2.77-14.42-3.59-3.99-.76-14.4-2.46-27.88-2.46Z"/>
    <g>
      <ellipse class="cls-7" cx="2140.36" cy="2328.11" rx="80.43" ry="37.96"/>
      <path d="m2140.36,2373.58c-22.57,0-43.9-4.2-60.07-11.84-17.96-8.48-27.86-20.42-27.86-33.63s9.89-25.15,27.86-33.63c16.17-7.63,37.5-11.84,60.07-11.84s43.9,4.2,60.07,11.84c17.96,8.48,27.86,20.42,27.86,33.63s-9.89,25.15-27.86,33.63c-16.17,7.63-37.5,11.84-60.07,11.84Zm0-75.92c-42.98,0-72.93,16.05-72.93,30.46s29.95,30.46,72.93,30.46,72.93-16.05,72.93-30.46-29.95-30.46-72.93-30.46Z"/>
    </g>
    <g class="cls-10">
      <path class="cls-2" d="m2113.44,2298.65s-81.27,25.01-10,57.52c-25.95-1.92-41.81-21.55-40.01-35.01,1.86-13.88,23.58-29.17,50.02-22.51Z"/>
    </g>
    <path d="m2140.36,2373.58c-22.57,0-43.9-4.2-60.07-11.84-17.96-8.48-27.86-20.42-27.86-33.63s9.89-25.15,27.86-33.63c16.17-7.63,37.5-11.84,60.07-11.84s43.9,4.2,60.07,11.84c17.96,8.48,27.86,20.42,27.86,33.63s-9.89,25.15-27.86,33.63c-16.17,7.63-37.5,11.84-60.07,11.84Zm0-75.92c-42.98,0-72.93,16.05-72.93,30.46s29.95,30.46,72.93,30.46,72.93-16.05,72.93-30.46-29.95-30.46-72.93-30.46Z"/>
    <path d="m1830.13,2465.83c1.19,3.1,1.83,6.2,2.34,9.31.51,3.11.78,6.21.91,9.32.25,6.22-.14,12.44-1,18.67-.44,3.11-.95,6.23-1.67,9.34-.73,3.12-1.71,6.23-2.95,9.35-1.28,3.12-2.77,6.24-4.67,9.37-1.92,3.13-4.06,6.25-7.14,9.39-3.12-3.08-5.31-6.18-7.28-9.27-1.95-3.09-3.48-6.19-4.82-9.29-1.29-3.1-2.32-6.2-3.1-9.3-.78-3.1-1.33-6.21-1.82-9.31-.95-6.21-1.44-12.43-1.29-18.65.08-3.11.3-6.22.76-9.33.46-3.11,1.06-6.23,2.2-9.35l29.54-.23Z"/>
    <path d="m1934.68,2516.53c1.19,3.1,1.83,6.2,2.34,9.31.51,3.11.78,6.21.91,9.32.25,6.22-.14,12.44-1,18.67-.44,3.11-.95,6.23-1.67,9.34-.73,3.12-1.71,6.23-2.95,9.35-1.28,3.12-2.77,6.24-4.67,9.37-1.92,3.12-4.06,6.25-7.14,9.39-3.12-3.08-5.31-6.18-7.28-9.27-1.95-3.09-3.48-6.19-4.82-9.29-1.29-3.1-2.32-6.2-3.1-9.3-.78-3.1-1.33-6.21-1.82-9.31-.95-6.21-1.44-12.43-1.29-18.65.08-3.11.3-6.22.76-9.33.46-3.11,1.06-6.23,2.2-9.35l29.54-.24Z"/>
    <path d="m2048.74,2541.87c1.19,3.1,1.83,6.2,2.34,9.31.51,3.11.78,6.21.91,9.32.25,6.22-.14,12.44-1,18.67-.44,3.11-.95,6.23-1.67,9.34-.73,3.12-1.71,6.23-2.95,9.35-1.28,3.12-2.77,6.24-4.67,9.37-1.92,3.12-4.06,6.25-7.14,9.39-3.12-3.08-5.31-6.18-7.28-9.27-1.95-3.09-3.48-6.19-4.82-9.29-1.29-3.1-2.32-6.2-3.1-9.3-.78-3.1-1.33-6.21-1.82-9.31-.95-6.21-1.44-12.43-1.29-18.65.08-3.11.3-6.22.76-9.33.46-3.11,1.06-6.23,2.2-9.35l29.54-.24Z"/>
    <path d="m2161.47,2553.88c1.19,3.1,1.83,6.2,2.34,9.31.51,3.11.78,6.21.91,9.32.25,6.22-.14,12.44-1,18.67-.44,3.11-.95,6.23-1.67,9.34-.73,3.12-1.71,6.23-2.95,9.35-1.28,3.12-2.77,6.24-4.67,9.37-1.92,3.12-4.06,6.25-7.14,9.39-3.12-3.08-5.31-6.18-7.28-9.27-1.95-3.09-3.48-6.19-4.82-9.29-1.29-3.1-2.32-6.2-3.1-9.3-.78-3.1-1.33-6.21-1.82-9.31-.95-6.21-1.44-12.43-1.29-18.65.08-3.11.3-6.22.76-9.33.46-3.11,1.06-6.23,2.2-9.35l29.54-.24Z"/>
    <path d="m2283.61,2543.12c1.19,3.1,1.83,6.2,2.34,9.31.51,3.11.78,6.21.91,9.32.25,6.22-.14,12.44-1,18.67-.44,3.11-.95,6.23-1.67,9.34-.73,3.12-1.71,6.23-2.95,9.35-1.28,3.12-2.77,6.24-4.67,9.37-1.92,3.12-4.06,6.25-7.14,9.39-3.12-3.08-5.31-6.18-7.28-9.27-1.95-3.09-3.48-6.19-4.82-9.29-1.29-3.1-2.32-6.2-3.1-9.3-.78-3.1-1.33-6.21-1.82-9.31-.95-6.21-1.44-12.43-1.29-18.65.08-3.11.3-6.22.76-9.33.46-3.11,1.06-6.23,2.2-9.35l29.54-.24Z"/>
    <path d="m2407.01,2515.94c1.19,3.1,1.83,6.2,2.34,9.31.51,3.11.78,6.21.91,9.32.25,6.22-.14,12.44-1,18.67-.44,3.11-.95,6.23-1.67,9.34-.73,3.12-1.71,6.23-2.95,9.35-1.28,3.12-2.77,6.24-4.67,9.37-1.92,3.12-4.06,6.25-7.14,9.39-3.12-3.08-5.31-6.18-7.28-9.27-1.95-3.09-3.48-6.19-4.82-9.29-1.29-3.1-2.32-6.2-3.1-9.3-.78-3.1-1.33-6.21-1.82-9.31-.95-6.21-1.44-12.43-1.29-18.65.08-3.11.3-6.22.76-9.33.46-3.11,1.06-6.23,2.2-9.35l29.54-.24Z"/>
    <path d="m2511.47,2457.25c1.19,3.1,1.83,6.2,2.34,9.31.51,3.11.78,6.21.91,9.32.25,6.22-.14,12.44-1,18.67-.44,3.11-.95,6.23-1.67,9.34-.73,3.12-1.71,6.23-2.95,9.35-1.28,3.12-2.77,6.24-4.67,9.37-1.92,3.12-4.06,6.25-7.14,9.39-3.12-3.08-5.31-6.18-7.28-9.27-1.95-3.09-3.48-6.19-4.82-9.29-1.29-3.1-2.32-6.2-3.1-9.3-.78-3.1-1.33-6.21-1.82-9.31-.95-6.21-1.44-12.43-1.29-18.65.08-3.11.3-6.22.76-9.33.46-3.11,1.06-6.23,2.2-9.35l29.54-.24Z"/>
    <path d="m2165.75,2327.56c0,5.25-11.35,9.51-25.35,9.51s-25.35-4.26-25.35-9.51,11.35-9.5,25.35-9.5,25.35,4.26,25.35,9.5Z"/>
    <g class="cls-9">
      <path d="m2133.44,2383.67s48.76-2.5,60.02-21.26l-7.5-10s47.51-38.76-47.51-57.52c0,0,55.91-9.92,82.35,26.93,26.44,36.84-19.83,73.1-87.35,61.85Z"/>
    </g>
    <g class="cls-10">
      <path class="cls-2" d="m2002.78,2265.51s-192.56,116.29,101.28,178.8c0,0-406.37-48.76-101.28-178.8Z"/>
    </g>
    <g class="cls-9">
      <path d="m91.57,2986.35s1564.9,71.27,2061.59-236.32h619.85s58.14-20.01.63,121.29c-57.52,141.29-37.51,115.03-37.51,115.03H91.57Z"/>
    </g>
    <g class="cls-9">
      <path d="m1984.17,2634.05s0,0,0,0c0-.07,483.42,7.59,453.51-130.77-9.09-6.01-18.17-12.02-27.26-18.03,11.74-31.64,25.56-86.19,6.23-142.96-33.89-99.55-156.71-167.75-302.42-155.24,38.51-7.66,89.53-12.97,148.32-5.78,110.5,13.51,192.82,64.37,242.23,103.51,25.77,20.42,46.28,46.71,59.82,76.67,20.08,44.45,39.54,110.34,9,159.68-13.05,21.08-31.03,32.36-54.25,44.78-120.29,64.31-236.6,81.85-268.83,86.28,0,0-90.4,12.4-266.36-18.14Z"/>
    </g>
    <g>
      <path class="cls-2" d="m1866.78,2220.21c10.07,0,18.02-8.51,17.35-18.56-3.23-48.05-8.43-99.34-16.32-153.38-7.41-50.75-16.39-98.43-26.23-142.79,32,38.29,67.58,88.3,98.72,150.81,10.78,21.64,19.95,42.62,27.78,62.64,6.84,17.48,7.45,36.8,1.8,54.7-58.98,187.1,15.19,153.53,57.44,123.71,14.08-9.94,33.53-7.08,43.93,6.67,31.34,41.43,100.57,114.55,198.72,114.36,51.44-.1,116.46-19.6,145.85-60.07,96.99-133.52-162.26-468.13-285.73-592.7-74.23-74.89-166.11-148.62-166.11-148.62-56.77-45.56-106.61-80.64-142.79-104.91l-32.84-28.34c-27.01,35.77-86.64,86.62-181.46,119.8-94.82,33.18-311.75,76.39-311.75,76.39-78.96,15.37-138.37,3.26-170.65-6.24-56.03-16.5-98.52-45.28-145.49-77.09-31.09-21.06-55.66-40.75-72.85-55.37-44.67,17.04-93.91,38.87-145.71,67.03-75.19,40.88-137.14,84.98-186.5,125.31-2.59-53.45-2.47-114.18,2.91-180.68,3.72-46,9.49-88.92,16.41-128.43,6.02-34.37-9.64-68.76-39.38-87.01-.11-.07-.23-.14-.34-.21-6.05-3.73-11.8-7.72-17.48-11.66-6.34-4.4-22.21-15.4-34.97-26.23-5.11-4.34-24.12-20.65-37.88-40.8-13.57-19.87-19.8-48.63-30.7-103.87-.76-3.85-1.41-7.73-2.05-11.6-6.89-41.64-30.55-57.69-52.85-63.24-22.47-5.59-46.14-.84-65.9,11.23-173.17,105.72,20.37,319.01,20.37,319.01,0,0-136.96,454.6,43.71,611.97,180.68,157.36,533.29-134.05,533.29-134.05-15.32,52.86-29.62,112.32-40.8,177.76-9.42,55.14-15.3,106.88-18.77,154.43,339.1,0,678.2.02,1017.3.02Z"/>
      <path d="m2269.56,2435.87c-104.84,0-177.98-75.97-212.28-121.3-4.69-6.2-13.43-7.49-19.88-2.93-38.32,27.05-67.79,33.43-87.59,18.97-26.86-19.61-25.82-69.65,3.37-162.24,4.44-14.09,3.94-29.38-1.41-43.07-8.11-20.73-17.24-41.33-27.14-61.21-14.9-29.91-31.86-58.9-50.71-86.68,4.13,22.77,7.88,45.59,11.2,68.34,7.46,51.12,13,103.18,16.47,154.73.65,9.6-2.75,19.14-9.33,26.17-6.57,7.03-15.86,11.06-25.48,11.06l-1036.12-.02,1.37-18.77c3.8-52.11,10.19-104.62,18.98-156.1,7.41-43.39,16.66-86.82,27.61-129.67-36.7,26.45-94.54,64.8-160.87,96.66-66.19,31.79-127.05,50.33-180.88,55.11-9.4.83-18.6,1.25-27.57,1.25-57.47,0-106.15-17.07-145.02-50.93-44.22-38.52-74.08-96.34-88.74-171.87-11.43-58.89-13.72-128.82-6.81-207.85,9.9-113.26,35.47-211.14,43.89-241.18-23.78-28.39-102.65-130.91-88.83-226.93,6.61-45.97,33.12-83.41,78.79-111.28,24.75-15.11,52.9-19.83,79.24-13.27,16.12,4.01,29.77,11.72,40.58,22.91,13.06,13.54,21.58,31.85,25.32,54.45.66,3.98,1.26,7.57,1.95,11.06,10.29,52.14,16.21,80.16,27.99,97.39,8.2,12,20.54,25.26,34.76,37.33,12.11,10.28,27.73,21.11,33.61,25.19,5.47,3.79,11.07,7.67,16.7,11.14l.31.19c36.12,22.16,54.75,63.36,47.47,104.94-7.33,41.83-12.78,84.5-16.2,126.82-3.86,47.72-5.24,96.02-4.11,144.04,51.11-39.37,105.44-74.76,161.9-105.46,47.5-25.82,97.24-48.7,147.83-68l9.68-3.69,7.89,6.71c22.64,19.25,46.64,37.49,71.33,54.21,46.79,31.69,87.2,59.06,140.62,74.79,50.8,14.97,105.43,16.93,162.36,5.85,2.08-.42,216.74-43.34,309.32-75.73,110.12-38.53,160.46-96.86,173.27-113.82l11.26-14.91,46.18,39.85c48.84,32.79,96.98,68.18,143.12,105.2.93.74,93.51,75.22,167.58,149.95,61.17,61.71,157.63,176.38,228.2,296.45,38.23,65.05,63.72,123.27,75.75,173.04,14.82,61.3,9.27,110.36-16.49,145.82-33.65,46.33-104.6,67.17-159.98,67.28h-.42Zm-223.63-162.01c14.91,0,29.56,6.77,39.26,19.59,30.37,40.14,94.69,107.42,184.38,107.42.12,0,.23,0,.35,0,45.02-.09,105.44-16.66,131.73-52.85,19.45-26.78,23.08-66.15,10.78-117.02-11.22-46.42-35.42-101.44-71.9-163.53-64.51-109.76-158.42-224.51-222.88-289.54-72.64-73.29-163.72-146.56-164.63-147.29-45.64-36.63-93.27-71.62-141.59-104.02l-.88-.59-20.11-17.35c-12.59,14.1-31.06,31.65-57.29,50.23-35.23,24.93-75.76,45.51-120.49,61.16-94.89,33.2-305.21,75.26-314.11,77.03-62.57,12.18-122.77,9.95-179.01-6.62-58.64-17.28-103.19-47.45-150.36-79.39-22.86-15.48-45.14-32.2-66.38-49.81-45.84,17.95-90.88,38.9-134.01,62.35-64.73,35.19-126.57,76.74-183.79,123.49l-26.87,21.95-1.68-34.65c-2.95-60.77-1.96-122.32,2.95-182.94,3.51-43.4,9.1-87.15,16.61-130.04,4.79-27.35-7.49-54.47-31.3-69.07l-.43-.26c-6.37-3.93-12.37-8.08-18.16-12.1-6.32-4.38-22.96-15.92-36.38-27.3-16.78-14.24-30.96-29.55-41.01-44.27-15.64-22.9-22.21-53.59-33.42-110.35-.79-3.99-1.44-7.85-2.14-12.13-4.55-27.52-17.57-43.58-39.81-49.11-17.19-4.28-35.86-1.02-52.56,9.18-36.82,22.48-57.22,50.72-62.37,86.32-13.59,94.06,85.58,204.89,86.58,206l6.63,7.33-2.84,9.47c-.34,1.12-33.96,113.93-45.27,244.01-6.58,75.67-4.42,142.24,6.4,197.83,13.15,67.55,39.17,118.65,77.32,151.88,86.03,74.93,218.67,35.74,314.79-10.33,107.64-51.6,194.99-123.29,195.86-124.01l43.74-36.11-15.78,54.48c-16.69,57.6-30.27,116.76-40.36,175.84-7.55,44.19-13.28,89.17-17.09,133.98l998.28.02c-3.43-50.56-8.88-101.7-16.21-151.91-6.9-47.26-15.65-94.88-26-141.53l-15.56-70.14,46.07,55.12c39.64,47.43,73.61,99.32,100.95,154.23,10.37,20.82,19.93,42.37,28.41,64.07,8.25,21.1,9.03,44.66,2.19,66.34-34.26,108.66-16.87,122.9-16.11,123.45,2.48,1.81,16.39,2.14,46.77-19.3,8.77-6.19,18.8-9.18,28.72-9.18Z"/>
    </g>
    <g class="cls-9">
      <path d="m1056.75,2488.23c-21.86,133.42-271.13,196.08-437.23,196.44-158.65.34-407.71-55.81-437.23-196.44-11.4-54.29,17.34-120.31,50.69-161.58,40.38-49.96,96.29-72.61,120.4-82.38,28.86-11.69,63.76-20.67,69.7-22.18,6.35-1.62,29.73-7.46,63.37-12.67,44.77-6.94,84.06-9.1,114.06-9.51,80.64-1.08,140.73,9.91,155.25,12.67,22.2,4.23,45.88,8.74,76.04,19.01,23.35,7.95,80.34,27.34,126.73,66.53,45.23,38.21,109.87,118.95,98.22,190.1Z"/>
      <path d="m618.04,2702.16c-91.1,0-192.5-17.33-271.59-46.44-104.12-38.32-166.81-95-181.27-163.91-5.9-28.09-2.73-60.95,9.17-95.04,10.07-28.84,26.06-57.66,45.04-81.14,43.23-53.48,102.24-77.39,127.44-87.6,28.36-11.49,62.25-20.45,71.96-22.92,11.02-2.8,34.11-8.22,65-13.01,38.17-5.92,77.36-9.18,116.5-9.71,73.66-1,131.09,7.71,158.76,12.98,22.09,4.21,47.09,8.98,78.4,19.63,24.98,8.5,83.47,28.41,132.39,69.73,28.16,23.79,55.19,55.52,74.15,87.05,25.49,42.4,35.88,83.63,30.05,119.25-10.9,66.51-71.62,122.41-175.61,161.66-81.51,30.76-185.75,49.25-278.85,49.45-.51,0-1.02,0-1.53,0Zm-6.5-484.83c-3.56,0-7.15.02-10.79.07-37.51.5-75.06,3.63-111.61,9.3-29.45,4.57-51.32,9.69-61.73,12.34-9.17,2.33-41.13,10.78-67.45,21.44-22.69,9.19-75.82,30.71-113.36,77.16-29.83,36.91-57.32,98.66-47.18,146.99,26.47,126.08,260.23,182.53,418.65,182.53.48,0,.94,0,1.42,0,89.12-.19,188.77-17.83,266.56-47.19,43.82-16.54,79.21-36.1,105.2-58.16,27.53-23.36,43.75-49.07,48.23-76.41l17.27,2.83-17.27-2.83c5.66-34.52-10.75-71.02-25.5-95.55-16.81-27.96-41.76-57.25-66.74-78.35-43.87-37.06-97.97-55.47-121.07-63.33-29-9.87-51.7-14.2-73.66-18.38-20.2-3.85-72.94-12.44-140.97-12.44Z"/>
    </g>
    <g>
      <path class="cls-7" d="m1056.75,2461.97c-21.86,133.42-271.13,196.08-437.23,196.44-158.65.34-407.71-55.81-437.23-196.44-11.4-54.29,17.34-120.31,50.69-161.58,40.38-49.96,96.29-72.61,120.4-82.38,28.86-11.69,63.76-20.67,69.7-22.18,6.35-1.62,29.73-7.46,63.37-12.67,44.77-6.94,84.06-9.1,114.06-9.51,80.64-1.08,140.73,9.91,155.25,12.67,22.2,4.23,45.88,8.74,76.04,19.01,23.35,7.95,80.34,27.34,126.73,66.53,45.23,38.21,109.87,118.95,98.22,190.1Z"/>
      <path d="m618.04,2675.91c-91.1,0-192.5-17.33-271.59-46.44-104.12-38.32-166.81-95-181.27-163.91-5.9-28.09-2.73-60.95,9.17-95.04,10.07-28.84,26.06-57.66,45.04-81.14,43.23-53.48,102.24-77.39,127.44-87.6,28.36-11.49,62.25-20.45,71.96-22.92,11-2.8,34.07-8.21,65-13.01,38.17-5.92,77.37-9.18,116.51-9.71,73.66-.99,131.09,7.71,158.76,12.98,22.07,4.21,47.08,8.97,78.4,19.63,24.98,8.5,83.47,28.41,132.39,69.73,28.16,23.79,55.19,55.52,74.15,87.05,25.49,42.4,35.88,83.63,30.05,119.25-10.9,66.51-71.62,122.41-175.61,161.66-81.51,30.76-185.75,49.25-278.85,49.45-.51,0-1.02,0-1.53,0Zm-6.5-484.83c-3.56,0-7.15.02-10.79.07-37.5.5-75.05,3.63-111.61,9.3-29.49,4.57-51.34,9.69-61.73,12.34-9.17,2.33-41.13,10.78-67.45,21.44-22.69,9.19-75.82,30.71-113.36,77.16-29.83,36.91-57.32,98.66-47.18,146.99,26.47,126.08,260.23,182.53,418.65,182.53.48,0,.94,0,1.42,0,89.12-.19,188.77-17.83,266.56-47.19,43.82-16.54,79.21-36.1,105.2-58.16,27.53-23.36,43.75-49.07,48.23-76.41l17.27,2.83-17.27-2.83c5.66-34.52-10.75-71.02-25.5-95.55-16.81-27.96-41.76-57.25-66.74-78.35-43.87-37.06-97.97-55.47-121.08-63.34-29.01-9.87-51.72-14.2-73.68-18.39-20.18-3.84-72.92-12.44-140.95-12.44Z"/>
    </g>
    <g class="cls-10">
      <path class="cls-2" d="m227.86,2439.71s-30.01,155.45,285.09,202.48c0,0-410.4-5.11-314.61-284.72l29.52,82.24Z"/>
    </g>
    <path d="m618.04,2675.91c-91.1,0-192.5-17.33-271.59-46.44-104.12-38.32-166.81-95-181.27-163.91-5.9-28.09-2.73-60.95,9.17-95.04,10.07-28.84,26.06-57.66,45.04-81.14,43.23-53.48,102.24-77.39,127.44-87.6,28.36-11.49,62.25-20.45,71.96-22.92,11-2.8,34.07-8.21,65-13.01,38.17-5.92,77.37-9.18,116.51-9.71,73.66-.99,131.09,7.71,158.76,12.98,22.07,4.21,47.08,8.97,78.4,19.63,24.98,8.5,83.47,28.41,132.39,69.73,28.16,23.79,55.19,55.52,74.15,87.05,25.49,42.4,35.88,83.63,30.05,119.25-10.9,66.51-71.62,122.41-175.61,161.66-81.51,30.76-185.75,49.25-278.85,49.45-.51,0-1.02,0-1.53,0Zm-6.5-484.83c-3.56,0-7.15.02-10.79.07-37.5.5-75.05,3.63-111.61,9.3-29.49,4.57-51.34,9.69-61.73,12.34-9.17,2.33-41.13,10.78-67.45,21.44-22.69,9.19-75.82,30.71-113.36,77.16-29.83,36.91-57.32,98.66-47.18,146.99,26.47,126.08,260.23,182.53,418.65,182.53.48,0,.94,0,1.42,0,89.12-.19,188.77-17.83,266.56-47.19,43.82-16.54,79.21-36.1,105.2-58.16,27.53-23.36,43.75-49.07,48.23-76.41l17.27,2.83-17.27-2.83c5.66-34.52-10.75-71.02-25.5-95.55-16.81-27.96-41.76-57.25-66.74-78.35-43.87-37.06-97.97-55.47-121.08-63.34-29.01-9.87-51.72-14.2-73.68-18.39-20.18-3.84-72.92-12.44-140.95-12.44Z"/>
    <g>
      <ellipse class="cls-8" cx="610.02" cy="2360.58" rx="396.04" ry="186.93"/>
      <path d="m610.02,2565.01c-108.31,0-210.42-20.04-287.51-56.42-81.27-38.36-126.03-90.92-126.03-148s44.76-109.65,126.03-148.01c77.09-36.39,179.2-56.42,287.51-56.42s210.42,20.04,287.51,56.42c81.27,38.36,126.03,90.92,126.03,148.01s-44.76,109.65-126.03,148c-77.09,36.39-179.2,56.42-287.51,56.42Zm0-373.86c-103.26,0-200.06,18.85-272.57,53.08-34.25,16.16-60.93,34.76-79.31,55.27-17.69,19.74-26.66,40.29-26.66,61.08s8.97,41.34,26.66,61.08c18.38,20.51,45.06,39.11,79.31,55.27,72.51,34.23,169.32,53.08,272.57,53.08s200.06-18.85,272.57-53.08c34.25-16.17,60.93-34.76,79.31-55.27,17.69-19.74,26.66-40.29,26.66-61.08s-8.97-41.35-26.66-61.08c-18.38-20.51-45.06-39.11-79.31-55.27-72.51-34.23-169.32-53.08-272.57-53.08Z"/>
    </g>
    <g class="cls-10">
      <path class="cls-2" d="m484.19,2194.15s-455.14,137.44-33.76,324.25c-135.98-6.54-230.16-91.84-231.32-160.12-1.26-74,105.92-175.31,265.08-164.12Z"/>
    </g>
    <path d="m610.98,2564.95c-108.32,0-210.42-20.04-287.51-56.42-81.27-38.36-126.03-90.92-126.03-148.01s44.76-109.65,126.03-148.01c77.09-36.39,179.2-56.42,287.51-56.42s210.42,20.04,287.51,56.42c81.27,38.36,126.03,90.92,126.03,148.01s-44.76,109.65-126.03,148.01c-77.09,36.39-179.2,56.42-287.51,56.42Zm0-373.86c-103.26,0-200.06,18.85-272.57,53.08-34.25,16.16-60.93,34.76-79.31,55.27-17.69,19.74-26.66,40.29-26.66,61.08s8.97,41.35,26.66,61.08c18.38,20.51,45.06,39.11,79.31,55.27,72.51,34.23,169.32,53.08,272.57,53.08s200.06-18.85,272.57-53.08c34.25-16.16,60.93-34.76,79.31-55.27,17.69-19.74,26.66-40.29,26.66-61.08s-8.97-41.34-26.66-61.08c-18.38-20.51-45.06-39.11-79.31-55.27-72.51-34.23-169.32-53.08-272.57-53.08Z"/>
    <g>
      <path class="cls-4" d="m695.62,2346.2c-4.44,27.09-55.06,39.82-88.79,39.89-32.22.07-82.8-11.33-88.79-39.89-2.31-11.02,3.52-24.43,10.29-32.81,8.2-10.15,19.56-14.75,24.45-16.73,5.86-2.37,12.95-4.2,14.16-4.5,1.29-.33,6.04-1.51,12.87-2.57,9.09-1.41,17.07-1.85,23.16-1.93,16.38-.22,28.58,2.01,31.53,2.57,4.51.86,9.32,1.78,15.44,3.86,4.74,1.61,16.31,5.55,25.74,13.51,9.19,7.76,22.31,24.16,19.95,38.61Z"/>
      <path d="m606.53,2393.6c-34.78,0-88.76-12.18-95.83-45.85-3.01-14.33,4.48-30.01,11.8-39.07,9.42-11.66,22.07-16.78,27.47-18.97,6.01-2.43,13.09-4.31,15.12-4.82,2.3-.59,7.12-1.72,13.57-2.72,7.94-1.23,16.08-1.91,24.21-2.02,15.33-.21,27.27,1.61,33.03,2.71,4.61.88,9.83,1.87,16.45,4.13,5.29,1.8,17.66,6.01,28.16,14.88,9.78,8.26,25.52,27.15,22.51,45.55h0c-5.49,33.5-61.91,46.11-96.18,46.18h-.32Zm-1.32-98.46c-.71,0-1.42,0-2.15.01-7.43.1-14.87.72-22.12,1.84-5.83.9-10.12,1.91-12.17,2.43-3.71.94-9.11,2.54-13.19,4.19-4.32,1.75-14.45,5.85-21.43,14.49-5.49,6.8-10.58,18-8.79,26.56,4.87,23.19,51.21,33.93,81.17,33.93h.26c35.91-.08,78.18-13.9,81.41-33.61h0c1.59-9.69-7.77-23.54-17.38-31.66-8.34-7.04-18.83-10.61-23.31-12.14-5.63-1.92-10.1-2.77-14.43-3.59-3.99-.76-14.4-2.46-27.88-2.46Z"/>
    </g>
    <path class="cls-2" d="m528.58,2339.28c.33,4.13,1.33,8.92,3.75,13.75,9.7,19.38,33.73,22.74,36.89,23.13-.92.32-22.08,7.23-37.51-6.25-16.28-14.22-13.47-38.7-10.22-39.71,1.02-.32,3,1.38,7.1,9.08Z"/>
    <path d="m606.53,2393.6c-34.78,0-88.76-12.18-95.83-45.85-3.01-14.33,4.48-30.01,11.8-39.07,9.42-11.66,22.07-16.78,27.47-18.97,6.01-2.43,13.09-4.31,15.12-4.82,2.3-.59,7.12-1.72,13.57-2.72,7.94-1.23,16.08-1.91,24.21-2.02,15.33-.21,27.27,1.61,33.03,2.71,4.61.88,9.83,1.87,16.45,4.13,5.29,1.8,17.66,6.01,28.16,14.88,9.78,8.26,25.52,27.15,22.51,45.55h0c-5.49,33.5-61.91,46.11-96.18,46.18h-.32Zm-1.32-98.46c-.71,0-1.42,0-2.15.01-7.43.1-14.87.72-22.12,1.84-5.83.9-10.12,1.91-12.17,2.43-3.71.94-9.11,2.54-13.19,4.19-4.32,1.75-14.45,5.85-21.43,14.49-5.49,6.8-10.58,18-8.79,26.56,4.87,23.19,51.21,33.93,81.17,33.93h.26c35.91-.08,78.18-13.9,81.41-33.61h0c1.59-9.69-7.77-23.54-17.38-31.66-8.34-7.04-18.83-10.61-23.31-12.14-5.63-1.92-10.1-2.77-14.43-3.59-3.99-.76-14.4-2.46-27.88-2.46Z"/>
    <g>
      <ellipse class="cls-7" cx="606.15" cy="2325.61" rx="80.43" ry="37.96"/>
      <path d="m606.15,2371.08c-22.57,0-43.9-4.2-60.07-11.84-17.96-8.48-27.86-20.42-27.86-33.63s9.89-25.15,27.86-33.63c16.17-7.63,37.51-11.84,60.07-11.84s43.9,4.2,60.07,11.84c17.96,8.48,27.86,20.42,27.86,33.63s-9.89,25.15-27.86,33.63c-16.17,7.63-37.51,11.84-60.07,11.84Zm0-75.92c-42.98,0-72.93,16.05-72.93,30.46s29.95,30.46,72.93,30.46,72.93-16.05,72.93-30.46-29.95-30.46-72.93-30.46Z"/>
    </g>
    <g class="cls-10">
      <path class="cls-2" d="m579.22,2296.14s-81.27,25.01-10,57.52c-25.95-1.92-41.81-21.55-40.01-35.01,1.86-13.88,23.58-29.17,50.02-22.51Z"/>
    </g>
    <path d="m606.15,2371.08c-22.57,0-43.9-4.2-60.07-11.84-17.96-8.48-27.86-20.42-27.86-33.63s9.89-25.15,27.86-33.63c16.17-7.63,37.51-11.84,60.07-11.84s43.9,4.2,60.07,11.84c17.96,8.48,27.86,20.42,27.86,33.63s-9.89,25.15-27.86,33.63c-16.17,7.63-37.51,11.84-60.07,11.84Zm0-75.92c-42.98,0-72.93,16.05-72.93,30.46s29.95,30.46,72.93,30.46,72.93-16.05,72.93-30.46-29.95-30.46-72.93-30.46Z"/>
    <path d="m295.91,2463.33c1.19,3.1,1.83,6.2,2.34,9.31.51,3.11.78,6.21.91,9.32.25,6.22-.14,12.44-1,18.67-.44,3.11-.95,6.23-1.67,9.34-.73,3.12-1.71,6.23-2.95,9.35-1.28,3.12-2.77,6.24-4.67,9.37-1.92,3.13-4.06,6.25-7.14,9.39-3.12-3.08-5.31-6.18-7.28-9.27-1.95-3.09-3.48-6.19-4.82-9.29-1.29-3.1-2.32-6.2-3.1-9.3-.78-3.1-1.33-6.21-1.82-9.31-.95-6.21-1.44-12.43-1.29-18.65.08-3.11.3-6.22.76-9.33.46-3.11,1.06-6.23,2.2-9.35l29.54-.24Z"/>
    <path d="m400.47,2514.03c1.19,3.1,1.83,6.2,2.34,9.31.51,3.11.78,6.21.91,9.32.25,6.22-.14,12.44-1,18.67-.44,3.11-.95,6.23-1.67,9.34-.73,3.12-1.71,6.23-2.95,9.35-1.28,3.12-2.77,6.24-4.67,9.37-1.92,3.12-4.06,6.25-7.14,9.39-3.12-3.08-5.31-6.18-7.28-9.27-1.95-3.09-3.48-6.19-4.82-9.29-1.29-3.1-2.32-6.2-3.1-9.3-.78-3.1-1.33-6.21-1.82-9.31-.95-6.21-1.44-12.43-1.29-18.65.08-3.11.3-6.22.76-9.33.46-3.11,1.06-6.23,2.2-9.35l29.54-.24Z"/>
    <path d="m514.53,2539.37c1.19,3.1,1.83,6.2,2.34,9.31.51,3.11.78,6.21.91,9.32.25,6.22-.14,12.44-1,18.67-.44,3.11-.95,6.23-1.67,9.34-.73,3.12-1.71,6.23-2.95,9.35-1.28,3.12-2.77,6.24-4.67,9.37-1.92,3.12-4.06,6.25-7.14,9.39-3.12-3.08-5.31-6.18-7.28-9.27-1.95-3.09-3.48-6.19-4.82-9.29-1.29-3.1-2.32-6.2-3.1-9.3-.78-3.1-1.33-6.21-1.82-9.31-.95-6.21-1.44-12.43-1.29-18.65.08-3.11.3-6.22.76-9.33.46-3.11,1.06-6.23,2.2-9.35l29.54-.24Z"/>
    <path d="m627.25,2551.38c1.19,3.1,1.83,6.2,2.34,9.31.51,3.11.78,6.21.91,9.32.25,6.22-.14,12.44-1,18.67-.44,3.11-.95,6.23-1.67,9.34-.73,3.12-1.71,6.23-2.95,9.35-1.28,3.12-2.77,6.24-4.67,9.37-1.92,3.13-4.06,6.25-7.14,9.39-3.12-3.08-5.31-6.18-7.28-9.27-1.95-3.09-3.48-6.19-4.82-9.29-1.29-3.1-2.32-6.2-3.1-9.3-.78-3.1-1.33-6.21-1.82-9.31-.95-6.21-1.44-12.43-1.29-18.65.08-3.11.3-6.22.76-9.33.46-3.11,1.06-6.23,2.2-9.35l29.54-.24Z"/>
    <path d="m749.4,2540.62c1.19,3.1,1.83,6.2,2.34,9.31.51,3.11.78,6.21.91,9.32.25,6.22-.14,12.44-1,18.67-.44,3.11-.95,6.23-1.67,9.34-.73,3.12-1.71,6.23-2.95,9.35-1.28,3.12-2.77,6.24-4.67,9.37-1.92,3.12-4.06,6.25-7.14,9.39-3.12-3.08-5.31-6.18-7.28-9.27-1.95-3.09-3.48-6.19-4.82-9.29-1.29-3.1-2.32-6.2-3.1-9.3-.78-3.1-1.33-6.21-1.82-9.31-.95-6.21-1.44-12.43-1.29-18.65.08-3.11.3-6.22.76-9.33.46-3.11,1.06-6.23,2.2-9.35l29.54-.24Z"/>
    <path d="m872.79,2513.44c1.19,3.1,1.83,6.2,2.34,9.31.51,3.11.78,6.21.91,9.32.25,6.22-.14,12.44-1,18.67-.44,3.11-.95,6.23-1.67,9.34-.73,3.12-1.71,6.23-2.95,9.35-1.28,3.12-2.77,6.24-4.67,9.37-1.92,3.12-4.06,6.25-7.14,9.39-3.12-3.08-5.31-6.18-7.28-9.27-1.95-3.09-3.48-6.19-4.82-9.29-1.29-3.1-2.32-6.2-3.1-9.3-.78-3.1-1.33-6.21-1.82-9.31-.95-6.21-1.44-12.43-1.29-18.65.08-3.11.3-6.22.76-9.33.46-3.11,1.06-6.23,2.2-9.35l29.54-.24Z"/>
    <path d="m977.26,2454.75c1.19,3.1,1.83,6.2,2.34,9.31.51,3.11.78,6.21.91,9.32.25,6.22-.14,12.44-1,18.67-.44,3.11-.95,6.23-1.67,9.34-.73,3.12-1.71,6.23-2.95,9.35-1.28,3.12-2.77,6.24-4.67,9.37-1.92,3.13-4.06,6.25-7.14,9.39-3.12-3.08-5.31-6.18-7.28-9.27-1.95-3.09-3.48-6.19-4.82-9.29-1.29-3.1-2.32-6.2-3.1-9.3-.78-3.1-1.33-6.21-1.82-9.31-.95-6.21-1.44-12.43-1.29-18.65.08-3.11.3-6.22.76-9.33.46-3.11,1.06-6.23,2.2-9.35l29.54-.24Z"/>
    <ellipse cx="606.18" cy="2325.06" rx="25.35" ry="9.5"/>
    <g class="cls-9">
      <path d="m448.71,2634.05s0,0,0,0c0-.07,483.42,7.59,453.51-130.77-9.09-6.01-18.17-12.02-27.26-18.03,11.74-31.64,25.56-86.19,6.23-142.96-33.89-99.55-156.71-167.75-302.42-155.24,38.51-7.66,89.53-12.97,148.32-5.78,110.5,13.51,192.82,64.37,242.23,103.51,25.77,20.42,46.28,46.71,59.82,76.67,20.08,44.45,39.54,110.34,9,159.68-13.05,21.08-31.03,32.36-54.25,44.78-120.29,64.31-236.6,81.85-268.83,86.28,0,0-90.4,12.4-266.36-18.14Z"/>
    </g>
    <g class="cls-9">
      <path d="m599.23,2381.17s48.76-2.5,60.02-21.26l-7.5-10s47.51-38.76-47.51-57.52c0,0,55.91-9.92,82.35,26.93,26.44,36.84-19.83,73.1-87.35,61.85Z"/>
    </g>
    <g class="cls-10">
      <path class="cls-2" d="m468.56,2263.01s-192.56,116.29,101.28,178.8c0,0-406.37-48.76-101.28-178.8Z"/>
    </g>
    <g>
      <path class="cls-2" d="m901.61,1947.76l187.6.33-1.91,91.18-185.67.39c-25.26.05-45.77-20.41-45.77-45.68v-.55c0-25.26,20.5-45.72,45.76-45.68Z"/>
      <path d="m901.53,2057.16c-16.85,0-32.69-6.55-44.62-18.46-11.96-11.94-18.55-27.82-18.55-44.72v-.55c0-16.9,6.59-32.78,18.54-44.71,11.93-11.91,27.78-18.46,44.63-18.46h.12l205.44.36-2.64,126.11-202.77.43h-.14Zm0-91.9c-7.52,0-14.58,2.92-19.91,8.24-5.33,5.32-8.27,12.41-8.27,19.94v.55c0,7.54,2.94,14.62,8.27,19.95,5.32,5.31,12.39,8.23,19.9,8.23h.06l168.57-.36,1.18-56.25-169.76-.3h-.05Z"/>
    </g>
    <g>
      <path class="cls-2" d="m899.42,2092.46c65.68-.21,131.37-.42,197.05-.63-1.1,30.69-2.19,61.39-3.29,92.08-64.58.15-129.17.3-193.75.45-25.26.05-45.77-20.41-45.77-45.68v-.55c0-25.26,20.5-45.72,45.76-45.68Z"/>
      <path d="m899.34,2201.86c-16.85,0-32.69-6.55-44.63-18.46-11.96-11.94-18.55-27.82-18.55-44.72v-.55c0-16.9,6.59-32.78,18.54-44.71,11.93-11.91,27.78-18.46,44.63-18.46h.05l215.22-.69-4.54,127.1-210.59.49h-.14Zm0-91.9c-7.52,0-14.58,2.92-19.91,8.24-5.33,5.32-8.27,12.41-8.27,19.94v.55c0,7.54,2.94,14.62,8.27,19.95,5.32,5.31,12.39,8.23,19.9,8.23h.06l176.9-.41,2.04-57.06-178.95.57h-.05Z"/>
    </g>
    <g>
      <path class="cls-2" d="m1832.3,1940.49l-187.6-.74,1.39,91.19,185.66,1.46c25.26.2,45.89-20.15,46.04-45.42v-.55c.15-25.26-20.24-45.84-45.49-45.94Z"/>
      <path d="m1832.14,2049.89c-.17,0-.34,0-.51,0l-202.76-1.59-1.92-126.12,205.43.81c16.9.07,32.75,6.71,44.64,18.72,11.89,12,18.38,27.92,18.29,44.82v.54c-.1,16.91-6.78,32.75-18.81,44.62-11.91,11.75-27.64,18.2-44.36,18.2Zm-168.8-36.32l168.56,1.32h.23c7.45,0,14.47-2.88,19.78-8.12,5.37-5.29,8.34-12.36,8.39-19.9v-.54c.05-7.54-2.85-14.64-8.15-20s-12.37-8.32-19.91-8.35l-169.76-.67.86,56.25Z"/>
    </g>
    <g>
      <path class="cls-2" d="m1833.67,2085.2c-64.86-.35-129.71-.69-194.57-1.04-.73,31.79-1.46,63.58-2.19,95.37,65.41-.81,130.81-1.62,196.22-2.43,25.26.2,45.89-20.15,46.04-45.42v-.55c.15-25.26-20.24-45.84-45.49-45.94Z"/>
      <path d="m1618.99,2197.25l3-130.69,211.76,1.13c16.89.07,32.73,6.72,44.61,18.72,11.89,12.01,18.38,27.92,18.29,44.82v.54c-.1,16.91-6.78,32.75-18.81,44.62-11.91,11.75-27.64,18.2-44.36,18.2-.11,0-.21,0-.32,0l-214.19,2.65Zm37.21-95.5l-1.38,60.06,178.27-2.21h.18c.08,0,.15,0,.23,0,7.45,0,14.47-2.88,19.78-8.12,5.37-5.29,8.35-12.36,8.39-19.9v-.54c.05-7.54-2.85-14.64-8.15-20-5.3-5.36-12.37-8.32-19.91-8.35h-.02l-177.38-.95Z"/>
    </g>
    <g class="cls-9">
      <path d="m1644.45,1985.36l233.9.8s6.31,46.98-72.07,46.08c-78.38-.9-160.19-1.31-160.19-1.31l-1.65-45.57Z"/>
    </g>
    <g class="cls-9">
      <path d="m1640.7,2125.78l233.9.8s6.31,46.98-72.07,46.08c-78.38-.9-160.19-1.31-160.19-1.31l-1.65-45.57Z"/>
    </g>
    <g>
      <rect class="cls-2" x="1087.3" y="1884.78" width="554.95" height="335.44" rx="62.5" ry="62.5"/>
      <path d="m1579.75,2237.72h-429.95c-44.11,0-80-35.89-80-80v-210.44c0-44.11,35.89-80,80-80h429.95c44.11,0,80,35.89,80,80v210.44c0,44.11-35.89,80-80,80Zm-429.95-335.44c-24.81,0-45,20.19-45,45v210.44c0,24.81,20.19,45,45,45h429.95c24.81,0,45-20.19,45-45v-210.44c0-24.81-20.19-45-45-45h-429.95Z"/>
    </g>
    <g>
      <rect class="cls-1" x="1148.62" y="1976.31" width="179.72" height="151.28" rx="27.5" ry="27.5"/>
      <path d="m1300.84,2145.09h-124.72c-24.81,0-45-20.19-45-45v-96.28c0-24.81,20.19-45,45-45h124.72c24.81,0,45,20.19,45,45v96.28c0,24.81-20.19,45-45,45Zm-124.72-151.28c-5.51,0-10,4.49-10,10v96.28c0,5.51,4.49,10,10,10h124.72c5.51,0,10-4.49,10-10v-96.28c0-5.51-4.49-10-10-10h-124.72Z"/>
    </g>
    <g class="cls-10">
      <path class="cls-2" d="m1165.6,2026.95s-1.15-24.69,31.04-24.69h91.97s21.84,0,22.99,20.4v-33.28h-145.99v37.57Z"/>
    </g>
    <g class="cls-9">
      <path d="m1315.86,2061.74s.94,36.74-33.06,36.54c-34-.21-97.14-.59-97.14-.59,0,0-23.07-.14-24.06-30.49l-.37,49.51,154.22.93.41-55.9Z"/>
    </g>
    <path d="m1300.84,2145.09h-124.72c-24.81,0-45-20.19-45-45v-96.28c0-24.81,20.19-45,45-45h124.72c24.81,0,45,20.19,45,45v96.28c0,24.81-20.19,45-45,45Zm-124.72-151.28c-5.51,0-10,4.49-10,10v96.28c0,5.51,4.49,10,10,10h124.72c5.51,0,10-4.49,10-10v-96.28c0-5.51-4.49-10-10-10h-124.72Z"/>
    <path d="m1573.03,2002.03h-182.15c-9.67,0-17.5-7.83-17.5-17.5s7.83-17.5,17.5-17.5h182.15c9.67,0,17.5,7.83,17.5,17.5s-7.83,17.5-17.5,17.5Z"/>
    <path d="m1573.03,2073.29h-182.15c-9.67,0-17.5-7.83-17.5-17.5s7.83-17.5,17.5-17.5h182.15c9.67,0,17.5,7.83,17.5,17.5s-7.83,17.5-17.5,17.5Z"/>
    <path d="m1573.03,2144.54h-182.15c-9.67,0-17.5-7.84-17.5-17.5s7.83-17.5,17.5-17.5h182.15c9.67,0,17.5,7.83,17.5,17.5s-7.83,17.5-17.5,17.5Z"/>
    <g class="cls-9">
      <path d="m1087.3,2003.17s20.64,105.24,61.93,123.87l166.36-4.39,12.75-70.16s156.04,232.4,305.4,0v103.04s25.5,64.68-60.72,64.68-424.41-1.27-424.41-1.27c0,0-63.75-10.79-61.32-107.26v-108.53Z"/>
    </g>
    <g class="cls-9">
      <path d="m1089.21,1993.71l-233.9-.54s-6.58,46.94,71.8,46.49c78.38-.45,160.19-.39,160.19-.39l1.91-45.56Z"/>
    </g>
    <g class="cls-9">
      <path d="m1091.71,2138.28l-233.9-.54s-6.58,46.94,71.8,46.49c78.38-.45,160.19-.39,160.19-.39l1.91-45.56Z"/>
    </g>
    <g class="cls-9">
      <polygon points="873.59 2039.66 870.11 2092.38 1087.3 2086.33 1087.13 2039.76 873.59 2039.66"/>
    </g>
    <g class="cls-9">
      <polygon points="1648.42 2035.28 1644.99 2087.99 1859.16 2081.95 1859 2035.37 1648.42 2035.28"/>
    </g>
    <g class="cls-9">
      <polygon points="855.17 2174.8 1099.72 2181.34 1166.45 2220.81 870.11 2216.26 840.1 2206.27 855.17 2174.8"/>
    </g>
    <g class="cls-9">
      <polygon points="1874.76 2177.4 1630.12 2179 1562.6 2217.34 1858.97 2218.79 1889.18 2209.36 1874.76 2177.4"/>
    </g>
    <path d="m306.13,1350.53c4.33,5.6,8.48,11.24,12.77,16.75,4.27,5.53,8.68,10.94,13.16,16.28,9.05,10.61,18.51,20.89,28.74,30.59,5.1,4.86,10.38,9.57,15.76,14.25,5.43,4.61,10.95,9.21,16.66,13.69,5.7,4.49,11.54,8.96,17.54,13.39,5.99,4.46,12.18,8.79,18.43,13.53-7.83-.18-15.55-1.3-23.16-2.96-7.61-1.68-15.12-3.92-22.44-6.7-7.31-2.8-14.5-6.03-21.42-9.8-6.94-3.74-13.6-7.99-20.06-12.56-6.47-4.56-12.63-9.57-18.53-14.88-1.49-1.31-2.94-2.67-4.35-4.06-1.41-1.39-2.87-2.74-4.25-4.17-2.76-2.86-5.48-5.75-8.08-8.76-5.22-5.99-10.03-12.33-14.44-18.94-4.38-6.62-8.35-13.52-11.62-20.75l25.28-14.9Z"/>
    <path d="m1831.92,1928.34c-4.56-14.56-8.53-29.31-12.37-44.1-3.84-14.79-7.42-29.67-10.82-44.6-3.42-14.92-6.61-29.92-9.46-45.03-1.42-7.55-2.72-15.14-3.94-22.76-1.2-7.62-2.34-15.26-3.16-23,3.88,6.76,7.44,13.63,10.94,20.51,3.48,6.89,6.88,13.8,10.16,20.75,6.55,13.9,12.76,27.91,18.73,42,5.99,14.08,11.81,28.21,17.37,42.42,5.56,14.21,10.98,28.47,15.82,42.92l-33.26,10.9Z"/>
    <path d="m881.45,1906.79c5.93-14.03,12.42-27.84,19.05-41.59,6.62-13.75,13.5-27.39,20.56-40.97,7.03-13.59,14.29-27.08,21.88-40.44,3.8-6.68,7.71-13.31,11.71-19.91,4.02-6.59,8.08-13.17,12.47-19.61-1.41,7.66-3.13,15.19-4.9,22.7-1.79,7.5-3.67,14.97-5.66,22.39-3.99,14.84-8.32,29.55-12.87,44.17-4.53,14.63-9.24,29.19-14.2,43.64-4.96,14.46-10.05,28.86-15.7,43.03l-32.33-13.4Z"/>
    <g>
      <path class="cls-5" d="m628.19,1692c-5.86,30.6-28.41,127.33-116.85,203.45-68.64,59.08-141.91,75.55-174.8,80.86-6.39-10.22-13.1-22.34-19.35-36.31-6.14-13.73-10.65-26.59-14-38,26.24-1.53,56.93-6.83,89-20,126.29-51.86,171.04-183.57,180-212l5,59,51-37Z"/>
      <path d="m327.86,1995.44l-6.16-9.86c-7.68-12.29-14.57-25.22-20.48-38.44-5.82-13.01-10.81-26.55-14.82-40.22l-6.19-21.11,21.96-1.28c29.24-1.71,57.29-8.01,83.37-18.72,110.49-45.37,155.66-155.73,169.96-201.07l26.64-84.52,9.87,116.41,61.68-44.75-8.31,43.41c-9.24,48.24-37.45,140.12-122.63,213.42-65.32,56.21-135.8,77.18-183.42,84.87l-11.47,1.85Zm-1.09-78.12c1.98,5.25,4.12,10.44,6.4,15.53,3.67,8.19,7.75,16.26,12.2,24.1,42.54-8.4,100.53-28.27,154.55-74.76,54.9-47.25,83.68-103.09,98.73-147.14l-36.28,26.32-1.58-18.66c-6.15,11.76-12.83,23.17-19.96,34.08-37.42,57.23-85.2,98.07-142,121.4-22.87,9.39-47.03,15.8-72.07,19.13Z"/>
    </g>
    <g class="cls-10">
      <path class="cls-2" d="m537.98,1747.94s8.71,46.56,35.71,80.56l17.51-32.8-21.5-87.87-31.72,40.11Z"/>
    </g>
    <path d="m327.86,1995.44l-6.16-9.86c-7.68-12.29-14.57-25.22-20.48-38.44-5.82-13.01-10.81-26.55-14.82-40.22l-6.19-21.11,21.96-1.28c29.24-1.71,57.29-8.01,83.37-18.72,110.49-45.37,155.66-155.73,169.96-201.07l26.64-84.52,9.87,116.41,61.68-44.75-8.31,43.41c-9.24,48.24-37.45,140.12-122.63,213.42-65.32,56.21-135.8,77.18-183.42,84.87l-11.47,1.85Zm-1.09-78.12c1.98,5.25,4.12,10.44,6.4,15.53,3.67,8.19,7.75,16.26,12.2,24.1,42.54-8.4,100.53-28.27,154.55-74.76,54.9-47.25,83.68-103.09,98.73-147.14l-36.28,26.32-1.58-18.66c-6.15,11.76-12.83,23.17-19.96,34.08-37.42,57.23-85.2,98.07-142,121.4-22.87,9.39-47.03,15.8-72.07,19.13Z"/>
    <path class="cls-2" d="m667.19,1686c-9.07,5.91-18.24,12.07-27.5,18.5-18.95,13.15-36.77,26.38-53.5,39.5,6.67,24.67,13.33,49.33,20,74l61-132Z"/>
    <path d="m584.09,1682.65c.6,7.06,1.03,14.04,1.65,21,.59,6.96,1.36,13.89,2.23,20.81,1.85,13.82,4.23,27.6,7.56,41.28,1.65,6.85,3.53,13.67,5.52,20.52,2.06,6.82,4.2,13.68,6.58,20.54,2.36,6.87,4.84,13.78,7.48,20.76,2.61,7,5.46,13.99,8.15,21.36-6.48-4.4-12.36-9.52-17.86-15.05-5.48-5.54-10.58-11.49-15.22-17.79-4.63-6.31-8.91-12.93-12.68-19.84-3.8-6.9-7.1-14.09-10.04-21.43-2.97-7.34-5.42-14.89-7.5-22.55-.54-1.91-1.02-3.84-1.45-5.77-.43-1.94-.93-3.86-1.31-5.81-.76-3.9-1.48-7.8-2.04-11.74-1.14-7.86-1.74-15.8-1.86-23.74-.09-7.94.32-15.89,1.49-23.74l29.32,1.19Z"/>
    <g>
      <path class="cls-5" d="m1910.19,2002c8.12-16.91,55.91-112.28,165-144,59.47-17.29,110.84-8.01,136.7-1.33,0,0,52.45,65.81,64.87,83.07,0,0-186.5-99.94-331.54,126.66-11.68-21.47-23.36-42.93-35.04-64.4Z"/>
      <path d="m1944.01,2100.77l-53.47-98.28,3.88-8.07c11.63-24.21,28.44-49.24,47.33-70.49,36.08-40.58,79.33-68.42,128.56-82.73,58.99-17.15,111.94-10.26,145.97-1.47l5.66,1.46,3.64,4.57c2.15,2.7,52.86,66.35,65.39,83.75l44.18,61.37-66.65-35.72c-.39-.21-44.33-23.03-103.82-19.5-79.3,4.69-148.18,51.85-204.71,140.17l-15.96,24.94Zm-14.06-99.07l16.96,31.17c30.61-42.16,64.96-74.68,102.38-96.9,35.98-21.37,74.74-33.26,115.2-35.35,23.94-1.24,45.55,1.12,63.66,4.77-10.72-13.61-20.95-26.51-26.23-33.15-29.82-6.98-73.59-11.46-121.84,2.57-87.77,25.52-133.72,95.99-150.12,126.9Z"/>
    </g>
    <g class="cls-10">
      <polygon class="cls-2" points="2165.19 1848 2208.19 1916 2262.36 1919.83 2212.19 1854 2165.19 1848"/>
    </g>
    <path d="m1944.01,2100.77l-53.47-98.28,3.88-8.07c11.63-24.21,28.44-49.24,47.33-70.49,36.08-40.58,79.33-68.42,128.56-82.73,58.99-17.15,111.94-10.26,145.97-1.47l5.66,1.46,3.64,4.57c2.15,2.7,52.86,66.35,65.39,83.75l44.18,61.37-66.65-35.72c-.39-.21-44.33-23.03-103.82-19.5-79.3,4.69-148.18,51.85-204.71,140.17l-15.96,24.94Zm-14.06-99.07l16.96,31.17c30.61-42.16,64.96-74.68,102.38-96.9,35.98-21.37,74.74-33.26,115.2-35.35,23.94-1.24,45.55,1.12,63.66,4.77-10.72-13.61-20.95-26.51-26.23-33.15-29.82-6.98-73.59-11.46-121.84,2.57-87.77,25.52-133.72,95.99-150.12,126.9Z"/>
    <g class="cls-9">
      <path d="m1810.32,1805.3s145.28,125.07,216.73,316.55c6.01,16.1,5.75,33.91-.99,49.71-11.28,26.45-22.68,65.99,15.87,55.46,19.22-5.25,39.64,2.17,50.84,18.66,46.81,68.91,169.98,216.1,310.93,108.83,0,0-154,161-340-61l-30-3s-129,118-60-134c0,0-81.74-197.41-163.37-351.2Z"/>
    </g>
    <g class="cls-9">
      <path d="m287.39,1720.5c.16-7.38,28.3,350,318.3,256,290-94,339-190,339-190l-47.08,110.58s-624.52,480.42-610.22-176.58Z"/>
    </g>
    <g class="cls-9">
      <path d="m955.29,1579.93s146.9,200.07,364.9,153.07c142.52-30.73,249.13-59.32,305.88-75.43,37.81-10.74,73.06-28.99,103.6-53.73,42.52-34.43,97.4-89.94,123.53-162.37l-24.03-8.82s-66.76,112.64-198.12,161.74c-131.36,49.11-366.36,91.61-366.36,91.61,0,0-220.8,4.35-309.4-106.07Z"/>
    </g>
  </g>
</svg>