<svg xmlns="http://www.w3.org/2000/svg" viewBox="0 0 92.96 89.03"><defs><style>.cls-1{fill:#ed1977;}.cls-2{fill:#575eaa;}.cls-3{fill:#fee600;}.cls-4{fill:#3ec7f3;}.cls-5{fill:#a75fa6;}</style></defs><title>Asset 2</title><g id="Layer_2" data-name="Layer 2"><g id="instrument-1"><path d="M19,16.86l-4.3,6.33s-1.73-.38-2.39.25-6.22,8.7-6.22,8.7l-.14,1.2-3.77,6S.52,42.24.55,43.5s4.81,11.42,7,14S17.75,68.34,22.62,71.64s14.86,9.58,19.2,11.52,12.46,5.49,14.61,5.41,7-1.64,8.46-3.12,3.2-3.69,3.2-3.69L70.29,83l8.86-12V68l3.77-5.53s3.36-1.52,4-3.33a18.84,18.84,0,0,0-.31-9C85.7,47.3,81.46,41.05,79,38.3s-6-6.6-6-6.6L90.13,34s2.18.19,2.18-1-3.2-2.12-3.2-2.12l-20.89-3-6.74-4.62L57.9,20.88,46.76,2.66S44.7.21,43.87.54s0,3,0,3L52,17.19l-9.66-4.35S32.63,9.35,28.87,9.26a11.53,11.53,0,0,0-7,2.15C19.67,12.68,19,16.86,19,16.86Z"/><path class="cls-1" d="M60.17,88.38c3.83-.8,6.51-3,7.19-5.78,0-.19.08-.37.11-.56l3-3.6q3.08-3.66,6.11-7.36l1.2-1.45h0l1-1.21a37.15,37.15,0,0,0,5.55-8,14.86,14.86,0,0,0,.85-2.34,6.16,6.16,0,0,0,.55-1.46c1.47-6.15-1.78-11.91-3.12-13.55-.82-1.28-1.67-2.45-2.47-3.53A64,64,0,0,0,63.61,23.78c-1.7-1.1-3.22-2-4.67-2.86a1,1,0,0,0-.28-.11c-2-1.35-4-2.62-6-3.77a74.17,74.17,0,0,0-9.94-4.73,50,50,0,0,0-10.3-3c-3.81-.57-7.11.07-9.55,1.84a8.65,8.65,0,0,0-2.12,2.2,26.36,26.36,0,0,0-1.66,2.35l-3.88,5.83c-1.49,2.25-3,4.49-4.44,6.76C9,31,7.33,33.66,5.6,36.42a9.3,9.3,0,0,0-1.15.71,8.16,8.16,0,0,0-3.26,8.58C2,49.12,4.21,52.33,6,54.9a61.86,61.86,0,0,0,7,8.4A89.41,89.41,0,0,0,30.45,76.74,147.32,147.32,0,0,0,50.1,86.8a20.42,20.42,0,0,0,7.68,1.82A11.47,11.47,0,0,0,60.17,88.38Zm-28-77.83a48.64,48.64,0,0,1,10,2.89A71.78,71.78,0,0,1,52,18.09c2,1.15,4.06,2.43,6.07,3.8a.57.57,0,0,0,.29.11c1.41.8,2.9,1.72,4.56,2.79A62.83,62.83,0,0,1,79.19,40.3c.79,1.07,1.62,2.22,2.46,3.52,0,.06,4.53,5.84,2.93,12.57a5.11,5.11,0,0,1-.47,1.23.31.31,0,0,0-.06.13A14.28,14.28,0,0,1,83.26,60a36.25,36.25,0,0,1-5.38,7.68l-2.21,2.66c-2,2.46-4,4.92-6.1,7.36l-3.12,3.72a.6.6,0,0,0-.13.28c0,.21-.08.43-.14.65-.83,3.49-5,4.62-6.26,4.89-3.38.7-6.78-.44-9.36-1.52a146,146,0,0,1-19.48-10,87.74,87.74,0,0,1-17.2-13.26A60.84,60.84,0,0,1,7,54.22c-1.71-2.49-3.85-5.59-4.6-8.79a6.85,6.85,0,0,1,2.79-7.32,7.86,7.86,0,0,1,1.14-.7,1.23,1.23,0,0,0,.29-.31C8.3,34.39,10,31.68,11.75,29c1.45-2.26,2.94-4.5,4.43-6.74l3.88-5.84a28.14,28.14,0,0,1,1.63-2.3,7.41,7.41,0,0,1,1.86-1.93,10.51,10.51,0,0,1,6.24-1.82A16.28,16.28,0,0,1,32.21,10.55ZM77.35,69.24h0Z"/><path class="cls-2" d="M59.84,88.77a10.39,10.39,0,0,0,6.28-3.7l.19-.14a.94.94,0,0,0,.1-.1l1.78-2.2,1,.58a1.66,1.66,0,0,0,2.23-.35c2.81-3.66,4.9-6.52,6.76-9.27h0l.35-.49c.8-1.12,1.89-2.64,1.26-4.31a5.11,5.11,0,0,0-.22-.48c.84-1.07,1.67-2.16,2.48-3.25l.49-.63c.35-.45.72-.92,1-1.42a7,7,0,0,0,4.22-4.78c1.37-6.22-2.1-12.14-3.51-13.85-.87-1.3-1.77-2.52-2.61-3.64A70.22,70.22,0,0,0,64.29,24.3c-1.77-1.15-3.36-2.13-4.88-3a1,1,0,0,0-.28-.11c-2.08-1.43-4.19-2.76-6.28-4a79.09,79.09,0,0,0-10.33-5A53.78,53.78,0,0,0,31.87,8.94c-3.92-.66-7.3-.08-9.78,1.67a7.91,7.91,0,0,0-3.38,5.58c-.23.35-.45.7-.66,1s-.56.89-.84,1.3l-.49.73c-.71,1-1.44,2.14-2.19,3.18A2,2,0,0,0,12,23a99.89,99.89,0,0,0-6.24,8.83,2.08,2.08,0,0,0-.31,1.44c-1.16,1.56-2.28,3.25-3.29,4.93A8.25,8.25,0,0,0,.22,45.62C1,49.09,3.24,52.34,5,55a61.69,61.69,0,0,0,7.1,8.51,89,89,0,0,0,17.62,13.6A147.54,147.54,0,0,0,49.63,87.22,20.59,20.59,0,0,0,57.35,89,11.77,11.77,0,0,0,59.84,88.77ZM14,23.54l.21.15a1.36,1.36,0,0,0,.21.1.61.61,0,0,0,.75-.18c.88-1.21,1.72-2.46,2.54-3.68l.49-.72c.29-.43.57-.88.86-1.34s.47-.76.72-1.14a.56.56,0,0,0,.1-.27,6.71,6.71,0,0,1,2.9-4.87c2.79-2,6.37-1.88,8.88-1.46a53.28,53.28,0,0,1,10.41,3.16,77.88,77.88,0,0,1,10.16,5c2.11,1.22,4.24,2.57,6.33,4a.63.63,0,0,0,.29.1c1.48.86,3,1.82,4.77,2.95A68.72,68.72,0,0,1,80.69,41.47c.83,1.1,1.72,2.3,2.61,3.63,0,.06,4.8,6,3.29,12.87a6,6,0,0,1-3.7,4,.58.58,0,0,0-.26.23c-.32.5-.7,1-1.07,1.47-.17.22-.34.43-.5.65-.83,1.11-1.67,2.21-2.53,3.3l-.2.26a.6.6,0,0,0,0,.71,2.76,2.76,0,0,1,.32.61c.41,1.06-.4,2.18-1.11,3.18l-.37.52c-1.85,2.72-3.92,5.56-6.72,9.2a.47.47,0,0,1-.65.06l-1.41-.85a.6.6,0,0,0-.78.13L65.52,84l-.2.15a.57.57,0,0,0-.13.14,9.11,9.11,0,0,1-5.6,3.29c-3.44.74-6.88-.41-9.5-1.49A146.94,146.94,0,0,1,30.37,76,88.33,88.33,0,0,1,13,62.63a61.33,61.33,0,0,1-7-8.35c-1.73-2.53-3.88-5.68-4.63-8.93a7.15,7.15,0,0,1,1.74-6.49c1.1-1.82,2.26-3.55,3.45-5.14a.59.59,0,0,0,.09-.57.85.85,0,0,1,.11-.73,96.83,96.83,0,0,1,6.16-8.72.8.8,0,0,1,.62-.31A.76.76,0,0,1,14,23.54ZM77.66,73.26h0ZM58.94,22.36ZM62.09,85.7a.68.68,0,0,0,.36-.23c.3-.42.62-.82.94-1.22l.64-.81,2.19-2.85a.6.6,0,0,0,0-.75.77.77,0,0,1-.2-.57,3,3,0,0,1,.8-1.42l.36-.47c.56-.79,1.14-1.56,1.71-2.34.21-.28.53-.74.94-1.31C71,72.05,74.55,67,75.58,66.5a6.31,6.31,0,0,1,.77.4.61.61,0,0,0,.78-.15l.22-.28c.68-.85,1.38-1.7,2.08-2.54a.59.59,0,0,0,.07-.65.56.56,0,0,0-.57-.33A19.46,19.46,0,0,1,70.6,61c-4.44-1.91-9-4.15-13.52-6.66a.6.6,0,0,0-.81.22A17,17,0,0,1,55,56.35c-.2.25-.4.5-.58.75-.53.71-1.08,1.41-1.62,2.11l-.38.49a.6.6,0,0,0-.11.5.93.93,0,0,1-.08.58,19,19,0,0,1-1.86,2.91l-.89,1.25a85.18,85.18,0,0,0-5.5,9,.49.49,0,0,1-.61.32,10.28,10.28,0,0,1-1.27-.57.59.59,0,0,0-.75.16l-2.63,3.3a.6.6,0,0,0,.19.91c4.29,2.31,8.62,4.37,12.87,6.14h0A20.65,20.65,0,0,0,59.52,86,12.52,12.52,0,0,0,62.09,85.7Zm-9.83-2.65c-4-1.66-8.08-3.6-12.13-5.75L42,74.94c.31.15.64.29,1,.41a1.66,1.66,0,0,0,2.11-.91,82.33,82.33,0,0,1,5.42-8.82c.28-.41.57-.81.86-1.22a19,19,0,0,0,2-3.11,2.2,2.2,0,0,0,.21-1l.22-.29c.55-.71,1.1-1.42,1.63-2.13l.56-.73c.35-.44.71-.9,1-1.38,4.41,2.42,8.82,4.58,13.13,6.43a22.26,22.26,0,0,0,7.56,2c-.4.48-.79,1-1.18,1.45l-.58-.27C75,65,73.83,66,68.83,73c-.39.56-.71,1-.92,1.3-.58.77-1.15,1.56-1.72,2.34l-.32.43a3.8,3.8,0,0,0-1.06,2.12,2,2,0,0,0,.2,1L63.07,82.7l-.62.81c-.28.35-.56.7-.83,1.06-3.4.68-6.78-.46-9.36-1.52ZM37.71,76.77l2.73-3.5a.67.67,0,0,0-.14-.88l-.19-.16c-.07-.07-.44-.43-.21-.73,1.59-2.16,3.2-4.28,4.82-6.41.34-.46.75-1.07,1.19-1.74,1.32-2,3.53-5.36,4.87-4.8l.11.1.18.16a.6.6,0,0,0,.84-.1l.13-.16c.56-.71,1.13-1.41,1.7-2.1.21-.25.41-.51.62-.78.35-.45.72-.92,1.11-1.33a.58.58,0,0,0,.16-.5.61.61,0,0,0-.3-.43c-1.7-1-3.38-2-5-3a103,103,0,0,1-14.5-10.6.59.59,0,0,0-.52-.14.62.62,0,0,0-.43.34,24.11,24.11,0,0,1-3,4.72.65.65,0,0,0-.12.5,4.63,4.63,0,0,1-.6,3.3,61.84,61.84,0,0,1-4.18,6.21l-.21.3a.79.79,0,0,1-.48.28.59.59,0,0,1-.42-.09l-.16-.13a.6.6,0,0,0-.84.09l-3.42,4.11c-.45.54-.89,1.09-1.33,1.64-.61.77-1.23,1.55-1.88,2.3a.6.6,0,0,0,.06.85A95.67,95.67,0,0,0,31.92,74c1.63,1,3.32,2,5,2.92a.6.6,0,0,0,.29.08A.6.6,0,0,0,37.71,76.77ZM21,61.73c.43-.54.86-1.09,1.3-1.61l3.08-3.71a1.85,1.85,0,0,0,1,.14,2,2,0,0,0,1.27-.76l.21-.3a65.27,65.27,0,0,0,4.26-6.32,5.93,5.93,0,0,0,.78-3.87,28,28,0,0,0,2.69-4,104.23,104.23,0,0,0,14.07,10.2c1.43.88,2.91,1.76,4.4,2.61-.24.28-.46.57-.68.85l-.59.75c-.5.59-1,1.2-1.48,1.81a.25.25,0,0,0-.09,0c-2.27-1-4.53,2.48-6.35,5.24-.42.65-.81,1.23-1.14,1.67-1.62,2.13-3.24,4.26-4.83,6.42A1.67,1.67,0,0,0,39.15,73l-2.08,2.67c-1.53-.86-3-1.75-4.53-2.65a94.12,94.12,0,0,1-13.06-9.37C20,63,20.5,62.36,21,61.73Zm-4.33.72a.62.62,0,0,0,.43-.23c.64-.83,1.35-1.65,2-2.44.39-.45.78-.89,1.16-1.34.9-1.08,1.82-2.14,2.74-3.2a.59.59,0,0,0,.15-.44.63.63,0,0,0-.21-.42,7.41,7.41,0,0,1-.64-.61.79.79,0,0,1,0-.86c2.34-3,4.76-6.22,7.27-9.34a.67.67,0,0,1,.83-.25.61.61,0,0,0,.74-.19l.14-.2a20.1,20.1,0,0,1,3-3.55.58.58,0,0,0,.21-.44.62.62,0,0,0-.19-.45c-.68-.63-1.34-1.27-2-1.93A66.55,66.55,0,0,1,25,28c-1.67-2.36-3.75-5.3-4.71-8.3a.61.61,0,0,0-.52-.4.62.62,0,0,0-.59.3l-.07.12c-.68,1.14-1.4,2.26-2.11,3.37l-1.12,1.76a.61.61,0,0,0,0,.6,1.79,1.79,0,0,1,.27.94,2.07,2.07,0,0,1-.49.86l-.23.31-1,1.45-4.28,6.09a.71.71,0,0,1-.47.26.61.61,0,0,1-.49-.11l-.46-.37a.58.58,0,0,0-.45-.12.61.61,0,0,0-.41.23,58.93,58.93,0,0,0-4.46,6.89,1.27,1.27,0,0,1-.55.57.6.6,0,0,0-.31.7c.9,3.24,3,6.28,4.65,8.72a61.11,61.11,0,0,0,7.1,8.51c.63.64,1.26,1.27,1.92,1.88a.57.57,0,0,0,.41.16Zm-12.21-20a54.89,54.89,0,0,1,4-6.25,1.82,1.82,0,0,0,1.37.34,1.88,1.88,0,0,0,1.29-.76c1.44-2,2.86-4.06,4.29-6.09l1-1.45.2-.27a3,3,0,0,0,.72-1.46,2.59,2.59,0,0,0-.24-1.32L18,23.77c.53-.82,1.06-1.64,1.57-2.47a39.07,39.07,0,0,0,4.44,7.42,67.54,67.54,0,0,0,7.42,8.7c.51.51,1,1,1.55,1.5a22.76,22.76,0,0,0-2.57,3.16,1.91,1.91,0,0,0-1.78.74c-2.51,3.13-4.94,6.3-7.28,9.36a2,2,0,0,0,.06,2.4l.3.31c-.8.92-1.59,1.84-2.38,2.78q-.56.66-1.14,1.32c-.55.64-1.12,1.3-1.66,2-.48-.46-1-.92-1.41-1.39a60.71,60.71,0,0,1-7-8.35h0a32.12,32.12,0,0,1-4.36-7.94A2.78,2.78,0,0,0,4.47,42.49ZM50.38,60.62l.18-.21a.64.64,0,0,0,.12-.48.6.6,0,0,0-.28-.41l-.35.48.33-.49a.58.58,0,0,0-.48-.09.62.62,0,0,0-.38.29l-.13.25a.59.59,0,0,0,.19.79.59.59,0,0,0,.8-.13Z"/><path class="cls-3" d="M76.7,59.41C80,59,82.13,57.33,82.55,55c.88-4.94-2.21-9.82-3.43-11.23-.76-1.08-1.55-2.08-2.28-3A65.3,65.3,0,0,0,62,27c-1.48-1-2.82-1.84-4.09-2.59a.82.82,0,0,0-.24-.1c-1.76-1.22-3.53-2.37-5.28-3.41a74.2,74.2,0,0,0-8.63-4.42,48.34,48.34,0,0,0-8.84-3c-3.25-.68-6-.35-8,1a5.92,5.92,0,0,0-2.31,6.94c.88,2.83,2.93,5.56,4.57,7.75a61.82,61.82,0,0,0,6.41,7.22A91,91,0,0,0,51,48.23a148.72,148.72,0,0,0,17.09,9.31,18.09,18.09,0,0,0,7.3,2A9.18,9.18,0,0,0,76.7,59.41Zm-42-44.79a47.9,47.9,0,0,1,8.61,2.93,72.58,72.58,0,0,1,8.49,4.35c1.76,1.05,3.55,2.21,5.32,3.44a.55.55,0,0,0,.25.1c1.24.74,2.54,1.57,4,2.53A64,64,0,0,1,75.9,41.5c.72.91,1.49,1.9,2.27,3,0,0,4.14,5,3.19,10.28h0c-.47,2.66-3.81,3.31-4.82,3.44-2.8.38-5.86-.83-7.92-1.78a148.62,148.62,0,0,1-17-9.23A90.42,90.42,0,0,1,36.44,35.45a61.22,61.22,0,0,1-6.29-7.08c-1.59-2.12-3.56-4.76-4.38-7.38A4.7,4.7,0,0,1,27.6,15.4a7.51,7.51,0,0,1,4.19-1.1A14.11,14.11,0,0,1,34.68,14.62ZM57.3,25.41Z"/><path class="cls-4" d="M91.59,34.4A1.7,1.7,0,0,0,92.94,33a1.67,1.67,0,0,0-.89-1.73h0A13.07,13.07,0,0,0,87.36,30c-.44-.06-.86-.11-1.27-.18-1.91-.31-3.81-.62-5.72-.91q-5.81-.9-11.6-1.82c-6.07-1-12.25-1.89-18.23-2.78l-5-.74-2.23-.36a40.27,40.27,0,0,0-7.61-.8A3.42,3.42,0,0,0,34.62,21a3.57,3.57,0,0,0-4.5,0,3.29,3.29,0,0,0-1.56,4.24A3.91,3.91,0,0,0,31,27.46,3.78,3.78,0,0,0,34.19,27a3.55,3.55,0,0,0,.78-.67,40,40,0,0,0,6.87,1.38l1.51.21L55,29.66q7.66,1.13,15.33,2.21L78.22,33q3.19.47,6.41.9l1.15.16,2.23.29.22,0a16.18,16.18,0,0,0,2,.16A6.62,6.62,0,0,0,91.59,34.4ZM34.26,25.29a2.63,2.63,0,0,1-.73.72,2.54,2.54,0,0,1-2.15.29,2.72,2.72,0,0,1-1.72-1.53,2.08,2.08,0,0,1,1.06-2.71l.15-.1a2.36,2.36,0,0,1,3,0,2.25,2.25,0,0,1,.81,1.27.6.6,0,0,0,.61.46,39.72,39.72,0,0,1,7.82.77l2.25.37,5,.74c6,.9,12.15,1.82,18.22,2.78q5.81.93,11.61,1.82c1.9.29,3.8.6,5.71.91l1.3.19a12,12,0,0,1,4.26,1.08.47.47,0,0,1,.29.51.5.5,0,0,1-.42.39,8.62,8.62,0,0,1-3,0l-.22,0c-.74-.09-1.48-.2-2.22-.3l-1.15-.16c-2.14-.28-4.27-.59-6.4-.89l-7.93-1.13q-7.66-1.09-15.32-2.21L43.52,26.74,42,26.53a36.27,36.27,0,0,1-7-1.47l-.2,0A.59.59,0,0,0,34.26,25.29Z"/><path class="cls-5" d="M78.93,54.53a3.9,3.9,0,0,0,.1-3.32,3.72,3.72,0,0,0-2.36-2.13,4,4,0,0,0-1-.17,40.66,40.66,0,0,0-3.37-6.15c-.27-.42-.54-.85-.8-1.29l-6.16-10q-4-6.57-8.14-13.11l-4.26-6.84Q51.21,8.76,49.49,6l-.62-1c-.4-.64-.8-1.28-1.21-1.91L47.53,3A9.68,9.68,0,0,0,45.4.38,1.73,1.73,0,0,0,43.45.24,1.68,1.68,0,0,0,42.7,2h0a12.92,12.92,0,0,0,2.08,4.39c.23.37.46.73.67,1.09l3,5q3,5,6.08,10C57.65,27.75,60.9,33,64,38.15l2.71,4.43c.39.64.78,1.29,1.16,1.94a41.87,41.87,0,0,0,4.28,6.33,3.51,3.51,0,0,0-.42,1.77,3.57,3.57,0,0,0,2.91,3.43,3.43,3.43,0,0,0,1.32.27A3.27,3.27,0,0,0,78.93,54.53ZM44.66,1.34a8.35,8.35,0,0,1,1.86,2.27l.13.2c.41.62.8,1.25,1.2,1.89l.62,1q1.72,2.73,3.43,5.48L56.16,19q4.08,6.56,8.14,13.11l6.15,10,.81,1.3a36.89,36.89,0,0,1,3.42,6.34.59.59,0,0,0,.62.39,2.71,2.71,0,0,1,1,.1,2.55,2.55,0,0,1,1.61,1.45,2.76,2.76,0,0,1-.07,2.3,2.08,2.08,0,0,1-2.76.94.48.48,0,0,0-.17-.05,2.38,2.38,0,0,1-2-2.28,2.23,2.23,0,0,1,.46-1.43.6.6,0,0,0,0-.77A39.72,39.72,0,0,1,69,43.91c-.39-.66-.78-1.32-1.17-2l-2.72-4.43c-3.14-5.11-6.38-10.39-9.52-15.62q-3-5-6.08-10-1.5-2.47-3-5l-.7-1.12a12.24,12.24,0,0,1-1.91-4h0a.49.49,0,0,1,.2-.54.39.39,0,0,1,.23-.07A.58.58,0,0,1,44.66,1.34Z"/></g></g></svg>