<svg xmlns="http://www.w3.org/2000/svg" viewBox="0 0 72.87 97.55"><defs><style>.cls-1,.cls-2,.cls-3,.cls-4,.cls-5{fill-rule:evenodd;}.cls-2{fill:#ee3c90;}.cls-3{fill:#f498c1;}.cls-4{fill:#f17ab0;}.cls-5{fill:#eccec4;}</style></defs><title>Asset 4</title><g id="Layer_2" data-name="Layer 2"><g id="instrument-3"><g id="Layer_8" data-name="Layer 8"><path class="cls-1" d="M3.8,45.16S-1.59,93.24,35.62,93.24,69.53,47.35,69.53,47.35Z"/></g><path class="cls-2" d="M12.14,36.69a34.13,34.13,0,0,1,48.59,0h9.84v24a34.14,34.14,0,1,1-68.27,0v-24ZM5.62,40h8A30.81,30.81,0,0,1,59.3,40h8V60.65h0a30.82,30.82,0,1,1-61.63,0V40Z"/><path class="cls-3" d="M36.44,0A36.44,36.44,0,1,1,0,36.44,36.43,36.43,0,0,1,36.44,0Z"/><path class="cls-4" d="M36.44,15.9A20.54,20.54,0,1,1,15.9,36.44,20.54,20.54,0,0,1,36.44,15.9Zm0,3.32A17.22,17.22,0,1,1,19.22,36.44,17.22,17.22,0,0,1,36.44,19.22Z"/><path class="cls-5" d="M29.85,40.49h0a1.67,1.67,0,0,0-2,1.17L13.41,95.46a1.66,1.66,0,0,0,1.17,2h0a1.66,1.66,0,0,0,2-1.17L31,42.52a1.67,1.67,0,0,0-1.18-2Z"/><path class="cls-5" d="M31.06,36a4.67,4.67,0,1,1-5.71,3.3A4.67,4.67,0,0,1,31.06,36Z"/><path class="cls-5" d="M43,40.49h0a1.66,1.66,0,0,1,2,1.17l14.42,53.8a1.66,1.66,0,0,1-1.18,2h0a1.66,1.66,0,0,1-2-1.17L41.85,42.52a1.66,1.66,0,0,1,1.17-2Z"/><path class="cls-5" d="M41.81,36a4.67,4.67,0,1,0,5.72,3.3A4.68,4.68,0,0,0,41.81,36Z"/></g></g></svg>