<svg xmlns="http://www.w3.org/2000/svg" viewBox="0 0 68.79 89.19"><defs><style>.cls-1,.cls-2,.cls-3,.cls-4,.cls-5,.cls-6{fill-rule:evenodd;}.cls-2{fill:#ee3e96;}.cls-3{fill:#dca0c8;}.cls-4{fill:#9957a3;}.cls-5{fill:#f26722;}.cls-6{fill:#ec2227;}</style></defs><title>Asset 5</title><g id="Layer_2" data-name="Layer 2"><g id="instrument-4"><g id="Layer_10" data-name="Layer 10"><circle cx="34.13" cy="35.45" r="33.15"/><path class="cls-1" d="M67.28,55.6A33.15,33.15,0,0,1,1,55.6C1,50,.81,36.42,3.29,31.78c5.57-10.46,18.16-9.33,30.84-9.33,13.67,0,26.76-.84,31.83,11C67.68,37.44,67.28,51,67.28,55.6Z"/></g><path class="cls-2" d="M34.55,68.22l0,0a.57.57,0,0,0-.13-.08.41.41,0,0,0-.17-.05h-.09a.64.64,0,0,0-.28.06.6.6,0,0,0-.22.16l0,0,0,0,0,0s0,0,0,0v0L25.49,85.66,17.66,63.92a.65.65,0,0,0-1.15-.13L9.23,75,7.15,53.85A.64.64,0,0,0,5.87,54l2.27,23a.63.63,0,0,0,1.17.28l7.58-11.64,7.92,22a.61.61,0,0,0,.57.42.63.63,0,0,0,.61-.37l8.14-17.39,8.13,17.39a.65.65,0,0,0,.62.37.62.62,0,0,0,.57-.42l7.92-22,7.57,11.64a.64.64,0,0,0,1.18-.28l2.27-23a.64.64,0,1,0-1.28-.12L59,75l-7.28-11.2a.64.64,0,0,0-1.14.13L42.77,85.66,34.71,68.43a.57.57,0,0,0-.08-.13l0,0,0,0,0,0Z"/><path class="cls-3" d="M67.32,34.93v4.58h-.88V55.59a32.31,32.31,0,1,1-64.62,0V39.51H.73V35.06a.67.67,0,0,0-.2.47V55.59a33.6,33.6,0,0,0,67.2,0V35.53a.65.65,0,0,0-.41-.6Z"/><path class="cls-4" d="M34.13,1.82a33.71,33.71,0,1,0,33.7,33.71A33.71,33.71,0,0,0,34.13,1.82Zm0,1.29A32.42,32.42,0,1,1,1.71,35.53,32.42,32.42,0,0,1,34.13,3.11Z"/><path class="cls-5" d="M34.13,16.34A19.19,19.19,0,1,0,53.32,35.53,19.19,19.19,0,0,0,34.13,16.34Zm0,1.28A17.91,17.91,0,1,1,16.22,35.53,17.9,17.9,0,0,1,34.13,17.62Z"/><path class="cls-3" d="M24.88,31.43,1.15.25A.65.65,0,0,0,.25.13.65.65,0,0,0,.13,1L23.86,32.21a5.87,5.87,0,0,1,1-.78Z"/><path class="cls-3" d="M43.85,31.55a5.51,5.51,0,0,1,1,.78L68.66,1a.65.65,0,0,0-1-.78L43.85,31.55Z"/><path class="cls-6" d="M41.61,40.6a5.06,5.06,0,1,0-5.06-5.05,5,5,0,0,0,5.06,5.05Zm0-8.82a3.77,3.77,0,1,1-3.77,3.77,3.76,3.76,0,0,1,3.77-3.77Z"/><path class="cls-6" d="M27.18,40.6a5.06,5.06,0,1,0-5.05-5.05,5,5,0,0,0,5.05,5.05Zm0-8.82a3.77,3.77,0,1,1-3.77,3.77,3.77,3.77,0,0,1,3.77-3.77Z"/></g></g></svg>